<?xml version="1.0" encoding="UTF-8" standalone="no"?>
<!-- Generator: Adobe Illustrator 27.5.0, SVG Export Plug-In . SVG Version: 6.00 Build 0)  -->

<svg
   version="1.1"
   x="0px"
   y="0px"
   viewBox="0 0 500 500"
   style="enable-background:new 0 0 500 500;"
   xml:space="preserve"
   id="svg222"
   sodipodi:docname="person1.svg"
   inkscape:version="1.2.2 (b0a8486541, 2022-12-01)"
   xmlns:inkscape="http://www.inkscape.org/namespaces/inkscape"
   xmlns:sodipodi="http://sodipodi.sourceforge.net/DTD/sodipodi-0.dtd"
   xmlns:xlink="http://www.w3.org/1999/xlink"
   xmlns="http://www.w3.org/2000/svg"
   xmlns:svg="http://www.w3.org/2000/svg"><defs
   id="defs226" /><sodipodi:namedview
   id="namedview224"
   pagecolor="#ffffff"
   bordercolor="#000000"
   borderopacity="0.25"
   inkscape:showpageshadow="2"
   inkscape:pageopacity="0.0"
   inkscape:pagecheckerboard="0"
   inkscape:deskcolor="#d1d1d1"
   showgrid="false"
   inkscape:zoom="1.542"
   inkscape:cx="126.13489"
   inkscape:cy="146.56291"
   inkscape:window-width="1920"
   inkscape:window-height="972"
   inkscape:window-x="0"
   inkscape:window-y="0"
   inkscape:window-maximized="1"
   inkscape:current-layer="svg222" />
<g
   id="Background">
</g>
<g
   id="Objects"
   transform="matrix(3.6024221,0,0,3.6057456,-1179.5072,-71.109366)">
    <g
   id="g219">
        <g
   id="g217">
            <path
   style="fill:#f9da55"
   d="m 466.037,89.229 c 0,38.175 -30.946,69.121 -69.12,69.121 -38.174,0 -69.12,-30.946 -69.12,-69.121 0,-38.174 30.946,-69.12 69.12,-69.12 38.174,0 69.12,30.946 69.12,69.12 z"
   id="path139" />
            <g
   id="g215">
                <defs
   id="defs142">
                    <path
   id="SVGID_1_"
   d="m 466.037,89.229 c 0,38.175 -30.946,69.121 -69.12,69.121 -38.174,0 -69.12,-30.946 -69.12,-69.121 0,-38.174 30.946,-69.12 69.12,-69.12 38.174,0 69.12,30.946 69.12,69.12 z" />
                </defs>
                <clipPath
   id="SVGID_00000036246779500956181350000015724627732898847411_">
                    <use
   xlink:href="#SVGID_1_"
   style="overflow:visible"
   id="use144" />
                </clipPath>
                <g
   clip-path="url(#SVGID_00000036246779500956181350000015724627732898847411_)"
   id="g213">
                    <g
   id="g193">
                        <path
   style="fill:#d87b66"
   d="m 421.344,81.165 c -0.065,-0.586 -0.511,-1.076 -1.054,-1.291 -0.488,-0.193 -0.869,0.105 -1.208,0.436 -0.511,0.5 -0.73,1.164 -1.179,1.698 -0.008,0.012 -0.025,0.013 -0.035,0.021 -0.017,0.43 -0.035,0.862 -0.049,1.291 -0.072,2.254 -0.111,4.52 -0.261,6.771 3.196,1.38 4.701,-3.747 5.179,-6.062 0.295,-1.426 0.462,-2.974 0.345,-4.44 -0.069,-0.858 -0.325,-2.276 -0.999,-2.876 -1.33,-1.187 -3.031,-0.673 -4.045,0.72 -0.029,0.756 -0.056,1.51 -0.084,2.266 0.438,-0.577 1.024,-1.03 1.634,-1.144 1.435,-0.27 2.595,1.364 2.202,2.669 -0.079,0.263 -0.42,0.185 -0.446,-0.059 z"
   id="path147" />
                        <path
   style="fill:#ffffff"
   d="m 385.401,81.141 c -0.054,0.045 -0.114,0.067 -0.178,0.077 -0.098,0.367 -0.153,0.831 -0.178,1.3 0.186,0.384 0.44,0.756 0.724,1.07 0.047,0.053 0.097,0.1 0.147,0.148 0.03,-0.332 0.037,-0.644 0.041,-0.747 0.004,-0.112 -0.055,-2.271 -0.556,-1.848 z"
   id="path149" />
                        <path
   style="fill:#d87b66"
   d="m 372.739,79.985 c 0.56,0.123 1.055,0.547 1.429,1.086 -0.095,-1.077 -0.189,-2.156 -0.271,-3.237 -1.074,-1.615 -3.16,-0.967 -3.847,0.547 -0.311,0.688 -0.249,1.731 -0.259,2.475 -0.02,1.433 0.23,2.87 0.539,4.267 0.561,2.537 1.612,7.54 5.107,6.308 -0.352,-1.835 -0.626,-3.687 -0.816,-5.552 -0.07,-0.672 -0.133,-1.353 -0.197,-2.03 -0.066,-0.022 -0.13,-0.057 -0.175,-0.116 -0.533,-0.715 -0.709,-1.785 -1.378,-2.393 -0.321,-0.291 -0.806,-0.313 -1.069,0.049 -0.117,0.159 -0.206,0.335 -0.291,0.51 -0.169,0.347 -0.249,0.702 -0.559,0.946 -0.13,0.101 -0.295,0.066 -0.353,-0.094 -0.228,-0.625 0.166,-1.509 0.513,-2.037 0.373,-0.564 0.948,-0.879 1.627,-0.729 z"
   id="path151" />
                        <path
   style="fill:#ffffff"
   d="m 407.808,81.141 c -0.054,0.045 -0.115,0.067 -0.178,0.077 -0.098,0.367 -0.154,0.831 -0.178,1.3 0.187,0.384 0.44,0.756 0.724,1.07 0.047,0.053 0.097,0.1 0.147,0.148 0.032,-0.332 0.038,-0.644 0.041,-0.747 0.003,-0.112 -0.056,-2.271 -0.556,-1.848 z"
   id="path153" />
                        <path
   style="fill:#5b3b23"
   d="m 371.3,91.103 c -1.827,-2.346 -2.397,-6.502 -2.56,-9.364 -0.112,-1.934 -0.146,-6.003 2.554,-6.234 0.892,-0.077 1.825,0.271 2.497,0.862 -0.187,-2.679 -0.332,-5.358 -0.398,-8.007 -1.772,-0.723 -3.356,-2.328 -4.356,-3.887 -0.199,-0.31 0.268,-0.552 0.479,-0.28 1.729,2.25 4.111,3.979 6.875,3.488 -2.37,-0.96 -4.349,-3.07 -5.313,-5.341 -0.114,-0.269 0.252,-0.507 0.402,-0.236 1.531,2.757 3.828,4.148 6.588,5.032 -1.678,-1.776 -2.786,-4.671 -3.041,-6.838 -0.032,-0.268 0.395,-0.31 0.459,-0.063 0.513,1.964 1.332,3.8 2.589,5.401 0.789,1.005 1.671,2.03 3.028,2.072 0.941,0.03 1.745,-0.415 2.603,-0.76 -1.726,-1.41 -3.153,-3.721 -3.439,-5.155 -0.07,-0.358 0.412,-0.482 0.541,-0.149 1.007,2.603 3.409,5.408 6.273,5.159 -1.859,-1.318 -3.257,-3.891 -4.121,-6.283 -0.114,-0.319 0.412,-0.539 0.548,-0.23 0.757,1.715 1.752,3.55 3.063,4.907 1.801,1.864 3.464,1.554 5.479,0.771 -1.641,-1.282 -2.914,-3.48 -3.642,-5.046 -0.165,-0.352 0.321,-0.651 0.527,-0.309 1.661,2.741 3.561,5.368 6.979,5.064 -1.789,-1.744 -2.503,-4.407 -2.432,-6.837 0.011,-0.381 0.561,-0.374 0.586,0 0.134,1.98 0.785,3.943 2.057,5.491 0.745,0.907 1.75,1.726 3.002,1.586 0.936,-0.105 1.704,-0.683 2.511,-1.131 -1.71,-1.25 -2.939,-3.189 -2.728,-5.148 0.032,-0.297 0.429,-0.296 0.463,0 0.439,3.976 5.42,6.845 8.827,4.482 -1.522,-1.578 -2.455,-3.769 -2.202,-6.073 0.038,-0.356 0.551,-0.372 0.566,0 0.099,2.558 1.316,5.013 3.59,6.313 2.134,1.22 4.465,0.88 6.656,0.138 -1.686,-1.134 -3.129,-2.774 -4.235,-4.289 -0.181,-0.247 0.221,-0.546 0.419,-0.324 2.671,2.989 5.352,4.77 9.386,5.217 0.349,0.038 0.479,0.559 0.089,0.653 -1.558,0.376 -3.028,0.108 -4.378,-0.529 0.188,3.655 0.118,7.337 -0.01,11.013 1.024,-1.322 2.559,-1.936 4.2,-0.789 2.163,1.51 2.068,4.723 1.833,7.027 -0.266,2.577 -0.975,6.226 -3.032,8.072 -1.048,0.94 -2.518,1.243 -3.588,0.517 -0.219,2.622 -0.627,5.216 -1.485,7.739 -0.151,0.446 -0.317,0.889 -0.491,1.33 1.224,0.965 3.539,0.808 4.897,0.133 1.797,-0.896 1.533,-2.696 1.319,-4.345 -0.073,-0.092 -0.141,-0.193 -0.201,-0.31 -0.116,-0.23 0.077,-0.579 0.358,-0.493 0.153,-0.055 0.342,-0.023 0.451,0.103 1.406,0.238 3.254,-0.689 3.923,-1.809 1.02,-1.706 -0.385,-3.447 -0.686,-5.141 -0.018,-0.103 0,-0.191 0.036,-0.265 -0.025,-0.15 0.025,-0.318 0.183,-0.433 2.105,-1.54 3.936,-3.929 3.941,-6.59 0.006,-2.379 -1.024,-4.456 -1.851,-6.618 -0.065,-0.169 0.033,-0.33 0.177,-0.412 0.005,-0.005 0.007,-0.015 0.014,-0.02 3.017,-2.091 3.245,-4.713 2.452,-8.183 -0.683,-2.984 -1.919,-5.594 -4.563,-7.203 -0.129,-0.004 -0.253,-0.08 -0.315,-0.202 -0.002,-0.001 -0.004,-0.002 -0.007,-0.004 -0.364,-0.201 -0.238,-0.733 0.077,-0.86 0.461,-2.615 0.955,-5.012 0.257,-7.704 -0.404,-1.547 -1.136,-3.536 -2.481,-4.504 -1.364,-0.979 -2.831,-0.903 -4.409,-0.752 -0.032,0.045 -0.053,0.099 -0.088,0.143 -0.188,0.248 -0.738,0.224 -0.686,-0.186 0.317,-2.543 1.417,-5.23 -0.701,-7.363 -2.058,-2.071 -4.629,-0.716 -6.666,0.569 -0.071,0.315 -0.495,0.519 -0.748,0.236 -0.839,-0.942 -0.63,-3.333 -2.48,-2.842 -0.708,0.188 -1.308,0.661 -1.741,1.24 -0.165,0.22 -0.284,0.463 -0.412,0.699 0.011,0.152 0.028,0.303 0.027,0.455 -0.004,0.496 -0.791,0.63 -0.884,0.12 -0.405,-2.228 -1.89,-4.939 -4.444,-5.002 -1.892,-0.046 -4.162,0.813 -5.857,1.593 -3.362,1.549 -5.769,3.982 -8.14,6.745 -0.092,0.105 -0.204,0.113 -0.298,0.07 -0.112,0.081 -0.262,0.101 -0.417,0.004 -3.371,-2.113 -7.125,-3.346 -10.978,-1.582 -3.372,1.544 -5.137,4.656 -6.015,8.107 -0.064,0.253 -0.332,0.311 -0.522,0.217 -0.717,0.214 -1.423,-0.024 -2.177,0.104 -0.969,0.163 -1.762,0.722 -2.346,1.497 -1.265,1.677 -0.933,3.723 -0.703,5.659 0.041,0.335 -0.368,0.496 -0.629,0.367 -1.392,1.249 -2.845,2.125 -3.595,3.956 -0.791,1.934 -0.801,4.479 0.761,6.041 0.279,0.281 -0.003,0.869 -0.414,0.709 -0.275,-0.106 -0.516,-0.247 -0.732,-0.412 -0.495,0.296 -0.934,2.724 -0.938,2.932 -0.017,0.952 0.232,1.924 0.668,2.767 0.888,1.715 2.472,2.572 3.964,3.67 0.378,0.277 0.175,0.813 -0.27,0.782 -0.944,1.695 -1.367,3.267 -0.84,5.237 0.552,2.06 1.655,4.276 3.757,5.006 0.333,0.116 0.398,0.659 0,0.742 -0.286,0.061 -0.555,0.071 -0.811,0.051 0.147,1.736 -0.09,3.47 1.143,4.934 1.087,1.29 2.571,2.112 3.859,3.163 0.042,-0.064 0.077,-0.127 0.123,-0.19 0.186,-0.261 0.586,-0.105 0.518,0.218 -0.513,2.428 0.116,4.488 2.366,5.727 2.09,1.151 4.357,1.652 6.604,0.783 -1.158,-2.92 -2.05,-5.922 -2.693,-8.984 -1.465,0.748 -3.347,-0.107 -4.355,-1.402 z"
   id="path155" />
                        <path
   style="fill:#49241a"
   d="m 390.542,55.855 c -1.307,1.649 -3.28,3.787 -5.354,3.254 -2.352,-0.603 -2.558,-2.76 -3.166,-4.741 -2.237,2.721 -4.581,5.684 -8.456,5.361 -3.264,-0.271 -2.559,-2.303 -2.444,-4.523 -2.075,1.442 -5.824,3.312 -7.127,0.541 -1.085,-2.307 -0.579,-5.468 1.008,-7.616 -0.583,0.27 -1.087,0.687 -1.486,1.216 -1.265,1.677 -0.933,3.723 -0.703,5.659 0.041,0.335 -0.368,0.496 -0.629,0.367 -1.392,1.249 -2.845,2.125 -3.595,3.956 -0.791,1.934 -0.801,4.479 0.761,6.041 0.279,0.281 -0.003,0.869 -0.414,0.709 -0.275,-0.106 -0.516,-0.247 -0.732,-0.412 -0.495,0.296 -0.934,2.724 -0.938,2.932 -0.017,0.952 0.232,1.924 0.668,2.767 0.888,1.715 2.472,2.572 3.964,3.67 0.378,0.277 0.175,0.813 -0.27,0.782 -0.944,1.695 -1.367,3.267 -0.84,5.237 0.552,2.06 1.655,4.276 3.757,5.006 0.333,0.116 0.398,0.659 0,0.742 -0.286,0.061 -0.555,0.071 -0.811,0.051 0.147,1.736 -0.09,3.47 1.143,4.934 1.087,1.29 2.571,2.112 3.859,3.163 0.042,-0.064 0.077,-0.127 0.123,-0.19 0.186,-0.261 0.586,-0.105 0.518,0.218 -0.513,2.428 0.116,4.488 2.366,5.727 2.09,1.151 4.357,1.652 6.604,0.783 -1.158,-2.92 -2.05,-5.922 -2.693,-8.984 -1.461,0.748 -3.344,-0.107 -4.352,-1.403 -1.827,-2.346 -2.397,-6.502 -2.56,-9.364 -0.112,-1.934 -0.146,-6.003 2.554,-6.234 0.892,-0.077 1.825,0.271 2.497,0.862 -0.187,-2.679 -0.332,-5.358 -0.398,-8.007 -1.772,-0.723 -3.356,-2.328 -4.356,-3.887 -0.199,-0.31 0.268,-0.552 0.479,-0.28 1.729,2.25 4.111,3.979 6.875,3.488 -2.37,-0.96 -4.349,-3.07 -5.313,-5.341 -0.114,-0.269 0.252,-0.507 0.402,-0.236 1.531,2.757 3.828,4.148 6.588,5.032 -1.678,-1.776 -2.786,-4.671 -3.041,-6.838 -0.032,-0.268 0.395,-0.31 0.459,-0.063 0.513,1.964 1.332,3.8 2.589,5.401 0.789,1.005 1.671,2.03 3.028,2.072 0.941,0.03 1.745,-0.415 2.603,-0.76 -1.726,-1.41 -3.153,-3.721 -3.439,-5.155 -0.07,-0.358 0.412,-0.482 0.541,-0.149 1.007,2.603 3.409,5.408 6.273,5.159 -1.859,-1.318 -3.257,-3.891 -4.121,-6.283 -0.114,-0.319 0.412,-0.539 0.548,-0.23 0.757,1.715 1.752,3.55 3.063,4.907 1.801,1.864 3.464,1.554 5.479,0.771 -1.641,-1.282 -2.914,-3.48 -3.642,-5.046 -0.165,-0.352 0.321,-0.651 0.527,-0.309 1.661,2.741 3.561,5.368 6.979,5.064 -1.45,-1.415 -2.186,-3.434 -2.377,-5.444 -1.699,-0.825 -2.401,-2.607 -2.998,-4.377 z"
   id="path157" />
                        <path
   style="fill:#49241a"
   d="m 428.064,73.955 c 0.005,-0.005 0.007,-0.015 0.014,-0.02 3.017,-2.091 3.245,-4.713 2.452,-8.183 -0.683,-2.984 -1.919,-5.594 -4.563,-7.203 -0.129,-0.004 -0.253,-0.08 -0.315,-0.202 -0.002,-0.001 -0.004,-0.002 -0.007,-0.004 -0.364,-0.201 -0.238,-0.733 0.077,-0.86 0.461,-2.615 0.955,-5.012 0.257,-7.704 -0.119,-0.452 -0.268,-0.94 -0.448,-1.43 0.372,3.003 -0.689,6.502 -2.059,8.802 -0.706,1.186 -1.991,2.76 -3.596,2.047 -1.25,-0.556 -1.727,-1.779 -2.045,-3.028 -0.809,0.945 -1.923,1.917 -3.103,1.226 -1.196,-0.7 -1.748,-2.374 -2.292,-3.76 -1.148,2.358 -2.814,5.063 -5.481,5.474 -0.096,0.015 -0.186,0.007 -0.277,0.01 0.355,2.153 1.523,4.124 3.476,5.24 2.134,1.22 4.465,0.88 6.656,0.138 -1.686,-1.134 -3.129,-2.774 -4.235,-4.289 -0.181,-0.247 0.221,-0.546 0.419,-0.324 2.671,2.989 5.352,4.77 9.386,5.217 0.349,0.038 0.479,0.559 0.089,0.653 -1.558,0.376 -3.028,0.108 -4.378,-0.529 0.188,3.655 0.118,7.337 -0.01,11.013 1.024,-1.322 2.559,-1.936 4.2,-0.789 2.163,1.51 2.068,4.723 1.833,7.027 -0.266,2.577 -0.975,6.226 -3.032,8.072 -1.048,0.94 -2.518,1.243 -3.588,0.517 -0.219,2.622 -0.627,5.216 -1.485,7.739 -0.151,0.446 -0.317,0.889 -0.491,1.33 1.224,0.965 3.539,0.808 4.897,0.133 1.797,-0.896 1.533,-2.696 1.319,-4.345 -0.073,-0.092 -0.141,-0.193 -0.201,-0.31 -0.116,-0.23 0.077,-0.579 0.358,-0.493 0.153,-0.055 0.342,-0.023 0.451,0.103 1.406,0.238 3.254,-0.689 3.923,-1.809 1.02,-1.706 -0.385,-3.447 -0.686,-5.141 -0.018,-0.103 0,-0.191 0.036,-0.265 -0.025,-0.15 0.025,-0.318 0.183,-0.433 2.105,-1.54 3.936,-3.929 3.941,-6.59 0.006,-2.379 -1.024,-4.456 -1.851,-6.618 -0.066,-0.17 0.033,-0.33 0.176,-0.412 z"
   id="path159" />
                        <path
   style="fill:#49241a"
   d="m 399.784,56.964 c -1.374,1.435 -3.067,4.155 -5.468,3.558 0.313,1.384 0.898,2.703 1.808,3.809 0.745,0.907 1.75,1.726 3.002,1.586 0.936,-0.105 1.704,-0.683 2.511,-1.131 -1.71,-1.25 -2.939,-3.189 -2.728,-5.148 0.032,-0.297 0.429,-0.296 0.463,0 0.439,3.976 5.42,6.845 8.827,4.482 -1.302,-1.349 -2.165,-3.149 -2.232,-5.083 -2.301,-0.669 -3.779,-4.583 -6.183,-2.073 z"
   id="path161" />
                        <path
   style="fill:#101f23"
   d="m 399.074,140.006 c 1.336,0.045 3.679,-3.427 4.129,-4.257 1.006,-1.849 1.588,-4.039 1.959,-6.106 0.066,-0.37 0.112,-0.743 0.161,-1.117 -1.986,1.697 -5.734,2.337 -8.16,2.008 -1.489,-0.202 -3.772,-0.392 -5.354,-1.221 0.051,0.131 0.095,0.264 0.147,0.394 1.654,4.106 4.352,6.989 7.118,10.299 z"
   id="path163" />
                        <path
   style="fill:#1e353f"
   d="m 404.394,112.73 c 0,0.009 0.007,0.014 0.006,0.023 -0.116,1.182 -0.041,2.382 0.036,3.582 1.696,1.071 1.888,4.066 2.108,5.813 0.384,3.016 0.225,6.097 -0.47,9.058 -0.649,2.766 -1.671,5.647 -3.727,7.69 -0.603,0.6 -1.64,1.768 -2.633,2.061 -0.055,0.074 -0.127,0.137 -0.228,0.167 1.634,-0.315 3.218,-1.154 4.723,-1.762 1.95,-0.787 3.899,-1.579 5.851,-2.362 0.886,-0.356 2.014,-0.622 2.764,-1.23 1.916,-1.554 1.146,-2.779 0.18,-4.397 -0.455,-0.759 -0.94,-1.302 -0.534,-2.12 0.625,-1.253 2.654,-1.474 3.476,-2.595 1.25,-1.707 0.718,-3.531 -0.295,-5.152 -0.038,-0.017 -0.081,-0.03 -0.119,-0.047 -0.159,-0.074 -0.206,-0.244 -0.174,-0.4 -0.525,-0.76 -1.133,-1.466 -1.68,-2.081 -2.374,-2.669 -5.31,-4.639 -8.063,-6.867 -0.403,0.217 -0.802,0.436 -1.221,0.619 z"
   id="path165" />
                        <path
   style="fill:#f4ae8c"
   d="m 390.891,120.071 c -0.089,-0.477 -0.151,-0.97 -0.2,-1.47 -0.797,3.168 -0.338,6.47 0.701,9.567 1.819,0.869 4.805,1.238 6.607,1.304 2.674,0.099 4.849,-1.291 7.369,-1.796 0.02,-0.004 0.038,0.008 0.057,0.007 0.148,-1.533 0.164,-3.082 0.027,-4.615 -0.113,-1.292 -0.228,-3.692 -0.938,-5.207 0.025,0.708 0.022,1.415 -0.052,2.114 -0.047,0.441 -0.69,0.593 -0.815,0.111 -0.375,-1.455 -0.329,-3.006 -0.299,-4.499 0.01,-0.506 -0.108,-1.686 0.076,-2.471 -1.594,0.573 -3.303,0.91 -5.134,0.937 -0.058,0.084 -0.144,0.153 -0.268,0.181 -2.278,0.496 -4.488,0.395 -6.57,-0.141 0.354,1.936 0.526,4.111 0.123,5.976 -0.071,0.336 -0.62,0.346 -0.684,0.002 z"
   id="path167" />
                        <path
   style="fill:#1e353f"
   d="m 379.424,127.587 c 1.423,1.32 3.78,1.129 5.464,2.075 3.492,1.958 -3.235,6.019 1.892,8.179 3.686,1.554 7.121,2.547 11.014,2.427 -3.16,-2.549 -5.521,-6.614 -6.967,-10.249 -1.698,-4.271 -2.481,-9.04 -0.261,-13.249 0.007,-0.016 0.02,-0.024 0.029,-0.036 -0.019,-0.966 -0.001,-1.936 0.019,-2.871 -0.156,-0.05 -0.31,-0.111 -0.465,-0.166 -2.962,2.195 -6.426,3.938 -8.94,6.633 -0.902,0.965 -1.681,2.061 -2.143,3.31 -0.554,1.497 -0.829,2.844 0.358,3.947 z"
   id="path169" />
                        <path
   style="fill:#1e353f"
   d="m 437.696,129.904 c -0.961,-2.696 -2.489,-3.818 -5.273,-4.602 -1.801,-0.506 -3.641,-0.9 -5.463,-1.32 -3.041,-0.7 -6.515,-0.899 -9.568,-1.836 0.605,1.313 0.906,2.781 0.306,4.156 -0.675,1.548 -3.512,2.371 -3.745,3.692 -0.17,0.959 1.073,2.074 1.277,3.091 0.152,0.753 0.113,1.497 -0.228,2.188 -0.649,1.315 -2.065,1.918 -3.348,2.45 -2.771,1.147 -5.593,2.183 -8.39,3.256 -1.845,0.708 -3.639,1.669 -5.544,0.765 -0.104,-0.048 -0.129,-0.151 -0.117,-0.251 -4.211,0.466 -9.158,-1.156 -12.607,-3.137 -1.469,-0.843 -1.716,-2.162 -1.463,-3.768 0.127,-0.807 0.857,-1.848 0.916,-2.614 0.136,-1.772 -2.33,-2.091 -3.532,-2.408 -1.625,-0.431 -3.021,-0.788 -3.381,-2.598 -0.344,-1.733 0.29,-3.678 1.146,-5.169 0.033,-0.058 0.079,-0.112 0.114,-0.17 -3.267,1.227 -7.162,0.715 -10.526,1.522 -2.333,0.561 -4.598,1.419 -6.701,2.578 -2.776,1.529 -3.408,4.056 -4.402,6.851 -1.598,4.49 -3.11,9.024 -4.138,13.685 -0.061,0.278 -0.112,0.561 -0.169,0.842 3.645,3.049 7.493,5.705 11.629,7.884 -0.74,-2.782 -0.677,-6.013 -1.029,-8.831 -0.47,-3.754 -1.084,-7.483 -1.766,-11.203 -0.072,-0.395 0.505,-0.566 0.609,-0.168 0.976,3.695 1.767,7.433 2.374,11.206 0.485,2.997 1.313,6.513 0.865,9.55 2.613,1.307 5.342,2.423 8.217,3.311 9.047,2.794 18.64,3.384 28.031,2.434 9.1,-0.919 18.126,-3.219 26.54,-6.809 0.651,-0.279 1.283,-0.582 1.923,-0.878 -0.401,-2.657 0.123,-5.725 0.476,-8.295 0.465,-3.37 1.247,-6.659 2.348,-9.878 0.116,-0.34 0.622,-0.206 0.541,0.148 -0.782,3.387 -1.429,6.803 -1.793,10.263 -0.246,2.337 -0.087,4.852 -0.368,7.214 3.267,-1.576 6.388,-3.365 9.408,-5.32 -0.083,-2.242 -0.145,-4.493 -0.479,-6.719 -0.564,-3.756 -1.414,-7.531 -2.69,-11.112 z m -38.308,23.359 c -1.338,0.59 -2.577,-0.673 -2.768,-1.94 -0.196,-1.321 0.696,-2.482 1.957,-2.798 0.189,-0.047 0.329,0.03 0.408,0.15 0.824,0.042 1.732,0.59 2.014,1.262 0.494,1.18 -0.515,2.84 -1.611,3.326 z"
   id="path171" />
                        <path
   style="fill:#1e353f"
   d="m 404.394,112.73 c 0,0.009 0.007,0.014 0.006,0.023 -0.116,1.182 -0.041,2.382 0.036,3.582 1.696,1.071 1.888,4.066 2.108,5.813 0.384,3.016 0.225,6.097 -0.47,9.058 -0.649,2.766 -1.671,5.647 -3.727,7.69 -0.603,0.6 -1.64,1.768 -2.633,2.061 -0.055,0.074 -0.127,0.137 -0.228,0.167 1.634,-0.315 3.218,-1.154 4.723,-1.762 1.95,-0.787 3.899,-1.579 5.851,-2.362 0.886,-0.356 2.014,-0.622 2.764,-1.23 1.916,-1.554 1.146,-2.779 0.18,-4.397 -0.455,-0.759 -0.94,-1.302 -0.534,-2.12 0.625,-1.253 2.654,-1.474 3.476,-2.595 1.25,-1.707 0.718,-3.531 -0.295,-5.152 -0.038,-0.017 -0.081,-0.03 -0.119,-0.047 -0.159,-0.074 -0.206,-0.244 -0.174,-0.4 -0.525,-0.76 -1.133,-1.466 -1.68,-2.081 -2.374,-2.669 -5.31,-4.639 -8.063,-6.867 -0.403,0.217 -0.802,0.436 -1.221,0.619 z"
   id="path173" />
                        <path
   style="fill:#1e353f"
   d="m 379.424,127.587 c 1.423,1.32 3.78,1.129 5.464,2.075 3.492,1.958 -3.235,6.019 1.892,8.179 3.686,1.554 7.121,2.547 11.014,2.427 -3.16,-2.549 -5.521,-6.614 -6.967,-10.249 -1.698,-4.271 -2.481,-9.04 -0.261,-13.249 0.007,-0.016 0.02,-0.024 0.029,-0.036 -0.019,-0.966 -0.001,-1.936 0.019,-2.871 -0.156,-0.05 -0.31,-0.111 -0.465,-0.166 -2.962,2.195 -6.426,3.938 -8.94,6.633 -0.902,0.965 -1.681,2.061 -2.143,3.31 -0.554,1.497 -0.829,2.844 0.358,3.947 z"
   id="path175" />
                        <path
   style="fill:#101f23"
   d="m 362.022,136.866 c -0.056,-0.143 -0.121,-0.28 -0.171,-0.425 -0.907,2.251 -0.275,6.585 -3.791,5.971 -1.473,-0.257 -2.524,-1.572 -3.145,-3.149 -0.719,2.308 -1.365,4.638 -1.888,7.001 -0.061,0.278 -0.112,0.561 -0.169,0.842 3.645,3.049 7.493,5.705 11.629,7.884 -0.74,-2.782 -0.677,-6.013 -1.029,-8.831 -0.388,-3.113 -0.891,-6.207 -1.436,-9.293 z"
   id="path177" />
                        <path
   style="fill:#101f23"
   d="m 435.878,144.225 c -1.735,-0.188 -3.028,-1.56 -3.245,-3.272 -0.021,-0.161 -0.023,-0.313 -0.031,-0.467 -0.319,1.774 -0.589,3.558 -0.777,5.354 -0.246,2.337 -0.087,4.852 -0.368,7.214 3.267,-1.576 6.388,-3.365 9.408,-5.32 -0.058,-1.542 -0.11,-3.088 -0.242,-4.628 -1.438,0.854 -3.099,1.297 -4.745,1.119 z"
   id="path179" />
                        <path
   style="fill:#101f23"
   d="m 431.479,141.186 c -2.416,1.508 -5.228,2.581 -7.514,3.484 -7.365,2.915 -15.07,4.719 -22.979,5.245 0.003,0.007 0.009,0.013 0.012,0.02 0.494,1.18 -0.515,2.841 -1.611,3.327 -1.338,0.59 -2.577,-0.673 -2.768,-1.94 -0.063,-0.424 -0.003,-0.828 0.135,-1.196 -6.912,0.218 -14.064,-0.169 -20.59,-2.376 -4.396,-1.487 -9.811,-4.198 -12.742,-8.301 0.478,2.169 0.9,4.35 1.254,6.543 0.485,2.997 1.313,6.513 0.865,9.55 2.613,1.307 5.342,2.423 8.217,3.311 9.047,2.794 18.64,3.384 28.031,2.434 9.1,-0.919 18.126,-3.219 26.54,-6.809 0.651,-0.279 1.283,-0.582 1.923,-0.878 -0.401,-2.657 0.123,-5.725 0.476,-8.295 0.193,-1.386 0.451,-2.757 0.751,-4.119 z"
   id="path181" />
                        <path
   style="fill:#f4ae8c"
   d="m 409.333,108.031 c 3.105,-3.414 5.279,-7.72 6.326,-12.203 1.16,-4.97 0.934,-10.301 1.101,-15.375 0.171,-5.123 0.169,-10.292 0.684,-15.396 -2.824,2.323 -6.354,1.647 -8.755,-0.471 -1.594,2.055 -4.24,1.889 -6.384,0.633 -0.018,0.044 -0.043,0.087 -0.081,0.129 -1.515,1.68 -3.59,2.216 -5.452,1.02 -0.017,0.013 -0.027,0.029 -0.049,0.041 -1.413,0.847 -2.727,0.716 -3.892,0.078 -1.701,1.247 -3.228,1.435 -4.56,0.955 -1.215,1.094 -2.666,0.824 -4.004,-0.073 -0.009,0.078 -0.043,0.153 -0.114,0.21 -1.774,1.433 -3.397,1.419 -4.769,0.624 -0.611,0.03 -1.218,-0.014 -1.805,-0.146 -1.163,0.747 -2.375,0.836 -3.53,0.522 1.186,4.513 1.104,9.408 1.469,14.027 0.409,5.131 1.171,10.176 2.739,15.089 1.529,4.789 3.516,9.54 7.768,12.518 3.343,2.34 6.887,3 10.79,3.045 4.708,-0.851 9.09,-1.459 12.518,-5.227 z m 0,-24.49 c -0.069,0.658 -0.111,1.642 -0.648,2.113 -1.371,1.198 -2.191,-1.562 -2.149,-2.444 0.051,-1.074 0.075,-3.509 1.662,-3.24 0.087,0.015 0.133,0.065 0.157,0.124 0.339,0.106 0.608,0.388 0.757,0.727 0.35,0.8 0.308,1.875 0.221,2.72 z m -0.86,-12.943 c 1.839,-0.29 2.626,1.138 2.782,2.807 0.032,0.346 -0.464,0.53 -0.686,0.284 -0.377,-0.417 -0.539,-0.915 -0.855,-1.358 -0.441,-0.617 -0.999,-0.583 -1.651,-0.372 -1.048,0.337 -1.786,1.062 -2.475,1.886 -0.22,0.263 -0.605,-0.024 -0.538,-0.314 0.368,-1.591 1.858,-2.687 3.423,-2.933 z m -25.764,2.715 c -1.112,0.447 -1.833,1.502 -2.386,2.523 -0.185,0.339 -0.775,0.101 -0.632,-0.266 0.618,-1.583 1.225,-3.034 2.993,-3.577 1.605,-0.495 3.354,0.046 4.171,1.54 0.163,0.299 -0.177,0.684 -0.485,0.486 -1.122,-0.712 -2.352,-1.233 -3.661,-0.706 z m 4.218,10.228 c -0.067,0.658 -0.109,1.642 -0.648,2.113 -1.372,1.198 -2.191,-1.562 -2.148,-2.444 0.051,-1.074 0.074,-3.509 1.662,-3.24 0.086,0.015 0.131,0.065 0.155,0.124 0.34,0.106 0.61,0.388 0.758,0.727 0.35,0.8 0.307,1.875 0.221,2.72 z m 7.376,11.036 c 0.064,-0.504 0.134,-1.019 0.413,-1.453 0.126,-0.198 0.468,-0.131 0.459,0.125 -0.018,0.542 -0.165,1.064 -0.149,1.605 0.422,0.225 0.843,0.447 1.295,0.611 0.417,0.151 0.955,0.177 1.242,0.543 0.13,0.165 0.139,0.412 -0.067,0.527 -0.77,0.43 -2.117,-0.384 -2.753,-0.84 -0.499,-0.36 -0.515,-0.521 -0.44,-1.118 z m -1.745,7.85 c -0.063,-0.235 0.213,-0.439 0.411,-0.321 2.834,-0.108 5.965,-0.65 8.757,-0.292 0.256,0.033 0.323,0.316 0.141,0.455 -0.006,0.031 -0.009,0.065 -0.023,0.095 -1.663,3.537 -8.106,4.431 -9.286,0.063 z"
   id="path183" />
                        <path
   style="fill:#d87b66"
   d="m 391.796,117.381 c 2.497,2.478 5.655,3.195 9.479,1.83 0.702,-0.251 1.411,-0.555 2.109,-0.894 -0.066,-0.908 -0.053,-1.829 -0.035,-2.728 0.01,-0.506 -0.108,-1.686 0.076,-2.471 -1.594,0.573 -3.303,0.91 -5.134,0.937 -0.058,0.084 -0.144,0.153 -0.268,0.181 -2.278,0.496 -4.488,0.395 -6.57,-0.141 0.194,1.054 0.321,2.178 0.343,3.286 z"
   id="path185" />
                        <path
   style="fill:#d87b66"
   d="m 381.29,71.207 c 1.225,-0.746 2.868,-1.865 4.398,-1.732 2.384,0.209 4.563,1.931 6.981,1.7 1.82,-0.174 3.913,-1.022 5.763,-0.601 1.887,0.429 3.344,0.589 5.103,-0.374 0.536,-0.295 1.006,-0.237 1.585,-0.205 0.967,0.056 1.755,0.797 2.773,0.68 1.247,-0.144 2.358,-0.708 3.58,-0.941 1.928,-0.367 3.752,-0.004 5.64,-0.16 0.079,-1.509 0.179,-3.016 0.33,-4.517 -2.824,2.323 -6.354,1.647 -8.755,-0.471 -1.594,2.055 -4.24,1.889 -6.384,0.633 -0.018,0.044 -0.043,0.087 -0.081,0.129 -1.515,1.68 -3.59,2.216 -5.452,1.02 -0.017,0.013 -0.027,0.029 -0.049,0.041 -1.413,0.847 -2.727,0.716 -3.892,0.078 -1.701,1.247 -3.228,1.435 -4.56,0.955 -1.215,1.094 -2.666,0.824 -4.004,-0.073 -0.009,0.078 -0.043,0.153 -0.114,0.21 -1.774,1.433 -3.397,1.419 -4.769,0.624 -0.611,0.03 -1.218,-0.014 -1.805,-0.146 -1.163,0.747 -2.375,0.836 -3.53,0.522 0.411,1.563 0.663,3.172 0.841,4.799 2.037,0.492 4.987,-1.31 6.401,-2.171 z"
   id="path187" />
                        <path
   style="fill:#101f23"
   d="m 398.122,149.82 c -0.028,-0.001 -0.054,-0.019 -0.08,-0.027 -0.251,0.286 -0.414,0.641 -0.412,1.042 0.003,0.649 0.558,1.681 1.33,1.322 0.473,-0.22 1.21,-1.29 0.912,-1.827 -0.312,-0.559 -1.241,-0.477 -1.75,-0.51 z"
   id="path189" />
                        <path
   style="fill:#ffffff"
   d="m 400.62,102.652 c -2.221,0.483 -4.791,0.329 -7.023,0.123 1.038,1.128 2.042,1.79 3.851,1.58 1.32,-0.154 2.308,-0.812 3.172,-1.703 z"
   id="path191" />
                    </g>
                    <g
   id="g211">
                        <path
   d="m 386.855,73.532 c -0.816,-1.494 -2.565,-2.035 -4.171,-1.54 -1.769,0.543 -2.375,1.994 -2.993,3.577 -0.143,0.367 0.447,0.605 0.632,0.266 0.553,-1.021 1.273,-2.076 2.386,-2.523 1.309,-0.526 2.539,-0.006 3.661,0.706 0.309,0.198 0.649,-0.187 0.485,-0.486"
   id="path195" />
                        <path
   d="m 408.473,70.598 c -1.565,0.246 -3.055,1.342 -3.423,2.932 -0.067,0.29 0.318,0.577 0.538,0.314 0.689,-0.824 1.427,-1.548 2.475,-1.886 0.652,-0.211 1.211,-0.245 1.651,0.372 0.316,0.443 0.478,0.941 0.855,1.358 0.222,0.246 0.718,0.063 0.686,-0.284 -0.156,-1.668 -0.944,-3.096 -2.782,-2.806"
   id="path197" />
                        <path
   d="m 386.705,80.821 c -0.147,-0.339 -0.418,-0.621 -0.758,-0.727 -0.024,-0.059 -0.069,-0.109 -0.155,-0.124 -1.588,-0.27 -1.611,2.166 -1.662,3.24 -0.043,0.883 0.776,3.643 2.148,2.444 0.539,-0.471 0.581,-1.455 0.648,-2.113 0.087,-0.845 0.13,-1.92 -0.221,-2.72 m -1.304,0.32 c 0.501,-0.422 0.559,1.736 0.557,1.848 -0.004,0.104 -0.011,0.416 -0.041,0.747 -0.051,-0.048 -0.101,-0.095 -0.147,-0.148 -0.283,-0.314 -0.537,-0.687 -0.724,-1.07 0.024,-0.469 0.08,-0.933 0.178,-1.3 0.063,-0.011 0.124,-0.032 0.177,-0.077"
   id="path199" />
                        <path
   d="m 409.111,80.821 c -0.148,-0.339 -0.418,-0.621 -0.757,-0.727 -0.024,-0.059 -0.07,-0.109 -0.157,-0.124 -1.587,-0.27 -1.611,2.166 -1.662,3.24 -0.041,0.883 0.778,3.643 2.149,2.444 0.537,-0.471 0.579,-1.455 0.648,-2.113 0.088,-0.845 0.13,-1.92 -0.221,-2.72 m -1.303,0.32 c 0.5,-0.422 0.56,1.736 0.556,1.848 -0.003,0.104 -0.009,0.416 -0.041,0.747 -0.05,-0.048 -0.1,-0.095 -0.147,-0.148 -0.283,-0.314 -0.537,-0.687 -0.724,-1.07 0.023,-0.469 0.08,-0.933 0.178,-1.3 0.062,-0.011 0.124,-0.032 0.178,-0.077"
   id="path201" />
                        <path
   d="m 397.563,96.007 c -0.287,-0.365 -0.825,-0.392 -1.242,-0.543 -0.452,-0.164 -0.873,-0.386 -1.295,-0.611 -0.016,-0.54 0.132,-1.063 0.149,-1.605 0.009,-0.256 -0.333,-0.323 -0.459,-0.125 -0.279,0.434 -0.35,0.949 -0.413,1.453 -0.074,0.597 -0.059,0.759 0.44,1.118 0.636,0.457 1.983,1.27 2.753,0.84 0.205,-0.115 0.196,-0.362 0.067,-0.527"
   id="path203" />
                        <path
   d="m 401.726,101.814 c -2.792,-0.358 -5.923,0.184 -8.757,0.292 -0.198,-0.118 -0.474,0.085 -0.411,0.321 1.181,4.369 7.623,3.475 9.285,-0.063 0.015,-0.031 0.018,-0.064 0.023,-0.095 0.183,-0.139 0.115,-0.422 -0.14,-0.455 m -4.279,2.54 c -1.809,0.21 -2.813,-0.452 -3.851,-1.58 2.232,0.206 4.803,0.361 7.023,-0.123 -0.863,0.892 -1.851,1.55 -3.172,1.703"
   id="path205" />
                        <path
   d="m 442.544,148.19 -0.072,-1.506 c -0.146,-2.065 -0.448,-4.125 -0.735,-6.041 -0.622,-4.163 -1.482,-8.667 -3.222,-12.526 -1.684,-3.73 -5.731,-4.201 -9.349,-5.06 -4.131,-0.981 -8.275,-1.75 -12.493,-2.204 -2.408,-3.835 -6.331,-6.947 -10.276,-9.18 3.759,-2.287 6.663,-6.005 8.562,-10.223 1.11,0.95 4.509,0.51 5.43,0.192 2.235,-0.772 3.11,-3.036 2.52,-5.128 1.329,0.119 3.085,-0.879 3.861,-1.609 1.941,-1.828 1.022,-4.713 -0.293,-6.66 2.16,-0.71 4.064,-3.728 4.411,-5.81 0.429,-2.577 -0.433,-5.653 -1.948,-7.828 2.917,-0.627 3.551,-4.661 3.217,-7.173 -0.499,-3.779 -1.923,-7.945 -5.517,-9.681 1.581,-3.022 1.169,-7.154 -0.123,-10.173 -1.381,-3.223 -3.674,-4.656 -6.87,-4.033 1.108,-2.519 0.522,-5.939 -1.634,-7.661 -2.267,-1.812 -5.333,-0.915 -7.243,0.959 -0.435,-1.511 -1.091,-3.199 -2.986,-2.85 -0.824,0.152 -1.872,0.779 -2.511,1.599 -0.437,-1.277 -1.287,-2.418 -2.365,-3.256 -1.659,-1.288 -3.631,-0.861 -5.534,-0.387 -4.541,1.134 -9.16,4.116 -11.405,8.328 -5.853,-6.467 -17.595,-1.741 -18.1,6.651 -1.56,-1.112 -4.111,0.102 -5.196,1.392 -1.501,1.787 -1.702,4.365 -0.821,6.48 -2.527,0.382 -4.349,2.97 -4.883,5.333 -0.341,1.509 -0.329,3.51 0.577,4.824 -3.724,2.85 -0.705,9.168 3.184,10.621 -1.733,1.644 -1.692,4.377 -0.943,6.54 0.563,1.625 1.546,3.93 3.228,4.571 -1.379,3.987 1.576,7.669 5.203,9.238 -1.914,4.872 6.378,8.588 10.545,6.583 2.005,4.625 5.78,8.807 10.424,10.805 -3.366,1.791 -7.14,4.004 -9.507,7.023 -4.551,1.058 -9.224,0.692 -13.72,2.126 -3.623,1.156 -7.409,2.645 -8.817,6.403 -1.777,4.737 -3.457,9.546 -4.728,14.447 -0.243,0.938 -0.459,1.882 -0.665,2.829 l -0.224,1.032 1.11,1.117 c 9.224,8.983 22.427,13.477 35.071,14.477 14.532,1.151 29.66,-1.883 42.906,-7.919 0.199,0.13 0.517,0.07 0.58,-0.204 0.005,-0.02 0.008,-0.042 0.012,-0.061 3.332,-1.548 6.608,-3.316 9.728,-5.324 z m -28.866,-29.212 c 0.547,0.615 1.154,1.321 1.68,2.081 -0.032,0.157 0.015,0.327 0.174,0.4 0.038,0.017 0.081,0.03 0.119,0.047 1.013,1.621 1.545,3.445 0.295,5.152 -0.821,1.121 -2.851,1.341 -3.476,2.595 -0.406,0.818 0.079,1.361 0.534,2.12 0.967,1.618 1.736,2.843 -0.18,4.397 -0.75,0.608 -1.878,0.874 -2.764,1.23 -1.952,0.784 -3.901,1.575 -5.851,2.362 -1.505,0.608 -3.089,1.447 -4.723,1.762 0.101,-0.03 0.173,-0.092 0.228,-0.167 0.993,-0.293 2.029,-1.461 2.633,-2.061 2.056,-2.043 3.077,-4.924 3.727,-7.69 0.694,-2.961 0.854,-6.041 0.47,-9.058 -0.22,-1.747 -0.411,-4.743 -2.108,-5.813 -0.077,-1.2 -0.152,-2.4 -0.036,-3.582 0.001,-0.01 -0.006,-0.015 -0.006,-0.023 0.42,-0.184 0.818,-0.403 1.221,-0.619 2.752,2.228 5.689,4.198 8.063,6.867 m -22.224,-4.883 c 2.082,0.535 4.292,0.637 6.57,0.141 0.124,-0.028 0.21,-0.096 0.268,-0.181 1.831,-0.027 3.54,-0.364 5.134,-0.937 -0.185,0.786 -0.066,1.965 -0.076,2.471 -0.03,1.493 -0.076,3.044 0.299,4.499 0.124,0.482 0.768,0.33 0.815,-0.111 0.074,-0.7 0.076,-1.407 0.052,-2.114 0.71,1.514 0.824,3.914 0.938,5.207 0.137,1.533 0.12,3.082 -0.027,4.615 -0.018,0.001 -0.036,-0.01 -0.057,-0.007 -2.521,0.505 -4.695,1.895 -7.369,1.796 -1.803,-0.066 -4.788,-0.435 -6.607,-1.304 -1.039,-3.097 -1.498,-6.4 -0.701,-9.567 0.049,0.5 0.111,0.993 0.2,1.47 0.064,0.345 0.613,0.334 0.686,0 0.401,-1.867 0.23,-4.042 -0.125,-5.978 m 5.709,16.439 c 2.426,0.329 6.174,-0.311 8.16,-2.008 -0.049,0.374 -0.095,0.747 -0.161,1.117 -0.371,2.067 -0.953,4.258 -1.959,6.106 -0.45,0.831 -2.793,4.302 -4.129,4.257 -2.767,-3.311 -5.464,-6.194 -7.118,-10.299 -0.053,-0.13 -0.097,-0.263 -0.147,-0.394 1.583,0.829 3.865,1.019 5.354,1.221 m -25.422,-29.828 c -2.25,-1.239 -2.879,-3.299 -2.366,-5.727 0.068,-0.323 -0.332,-0.479 -0.518,-0.218 -0.046,0.063 -0.081,0.126 -0.123,0.19 -1.288,-1.051 -2.772,-1.874 -3.859,-3.163 -1.232,-1.463 -0.995,-3.197 -1.143,-4.934 0.257,0.02 0.525,0.01 0.811,-0.051 0.398,-0.084 0.333,-0.626 0,-0.742 -2.102,-0.73 -3.205,-2.947 -3.757,-5.006 -0.527,-1.97 -0.104,-3.542 0.84,-5.237 0.445,0.031 0.648,-0.505 0.27,-0.782 -1.492,-1.098 -3.076,-1.955 -3.964,-3.67 -0.436,-0.843 -0.685,-1.815 -0.668,-2.767 0.004,-0.208 0.442,-2.636 0.938,-2.932 0.217,0.165 0.457,0.305 0.732,0.412 0.411,0.159 0.693,-0.428 0.414,-0.709 -1.561,-1.563 -1.552,-4.107 -0.761,-6.041 0.75,-1.831 2.203,-2.707 3.595,-3.956 0.261,0.129 0.67,-0.032 0.629,-0.367 -0.229,-1.936 -0.561,-3.982 0.703,-5.659 0.584,-0.775 1.377,-1.334 2.346,-1.497 0.754,-0.129 1.46,0.109 2.177,-0.104 0.189,0.094 0.458,0.037 0.522,-0.217 0.878,-3.451 2.642,-6.563 6.015,-8.107 3.853,-1.764 7.607,-0.531 10.978,1.582 0.155,0.096 0.305,0.076 0.417,-0.004 0.094,0.043 0.206,0.036 0.298,-0.07 2.371,-2.763 4.777,-5.196 8.14,-6.745 1.695,-0.78 3.966,-1.639 5.857,-1.593 2.555,0.063 4.039,2.775 4.444,5.002 0.093,0.51 0.88,0.375 0.884,-0.12 0.001,-0.152 -0.017,-0.303 -0.027,-0.455 0.128,-0.235 0.247,-0.479 0.412,-0.699 0.434,-0.579 1.033,-1.051 1.741,-1.24 1.85,-0.492 1.642,1.9 2.48,2.842 0.253,0.283 0.677,0.08 0.748,-0.236 2.037,-1.286 4.608,-2.641 6.666,-0.569 2.118,2.133 1.018,4.82 0.701,7.363 -0.053,0.41 0.498,0.434 0.686,0.186 0.035,-0.044 0.056,-0.098 0.088,-0.143 1.578,-0.151 3.045,-0.228 4.409,0.752 1.346,0.968 2.077,2.957 2.481,4.504 0.698,2.692 0.204,5.089 -0.257,7.704 -0.315,0.127 -0.441,0.659 -0.077,0.86 0.003,0.002 0.005,0.003 0.007,0.004 0.063,0.123 0.186,0.198 0.315,0.202 2.645,1.609 3.881,4.219 4.563,7.203 0.793,3.47 0.564,6.091 -2.452,8.183 -0.007,0.005 -0.009,0.015 -0.014,0.02 -0.144,0.082 -0.242,0.242 -0.177,0.412 0.826,2.162 1.856,4.239 1.851,6.618 -0.006,2.661 -1.836,5.05 -3.941,6.59 -0.157,0.115 -0.207,0.282 -0.183,0.433 -0.036,0.074 -0.054,0.162 -0.036,0.265 0.301,1.693 1.705,3.435 0.686,5.141 -0.669,1.12 -2.517,2.047 -3.923,1.809 -0.109,-0.125 -0.298,-0.157 -0.451,-0.103 -0.281,-0.086 -0.475,0.263 -0.358,0.493 0.061,0.117 0.128,0.218 0.201,0.31 0.214,1.648 0.478,3.449 -1.319,4.345 -1.357,0.675 -3.673,0.832 -4.897,-0.133 0.174,-0.441 0.34,-0.883 0.491,-1.33 0.858,-2.522 1.267,-5.117 1.485,-7.739 1.07,0.727 2.54,0.423 3.588,-0.517 2.058,-1.846 2.767,-5.495 3.032,-8.072 0.235,-2.305 0.33,-5.517 -1.833,-7.027 -1.642,-1.147 -3.176,-0.534 -4.2,0.789 0.128,-3.676 0.197,-7.358 0.01,-11.013 1.35,0.637 2.82,0.905 4.378,0.529 0.39,-0.095 0.26,-0.615 -0.089,-0.653 -4.034,-0.447 -6.715,-2.228 -9.386,-5.217 -0.198,-0.222 -0.6,0.077 -0.419,0.324 1.107,1.515 2.55,3.155 4.235,4.289 -2.191,0.742 -4.523,1.082 -6.656,-0.138 -2.273,-1.299 -3.491,-3.755 -3.59,-6.313 -0.016,-0.372 -0.528,-0.356 -0.566,0 -0.253,2.304 0.681,4.495 2.202,6.073 -3.407,2.363 -8.388,-0.506 -8.827,-4.482 -0.034,-0.296 -0.431,-0.297 -0.463,0 -0.211,1.959 1.018,3.898 2.728,5.148 -0.807,0.448 -1.574,1.025 -2.511,1.131 -1.252,0.14 -2.257,-0.679 -3.002,-1.586 -1.272,-1.547 -1.923,-3.51 -2.057,-5.491 -0.025,-0.374 -0.575,-0.381 -0.586,0 -0.071,2.43 0.643,5.093 2.432,6.837 -3.418,0.303 -5.318,-2.324 -6.979,-5.064 -0.206,-0.342 -0.692,-0.043 -0.527,0.309 0.728,1.566 2.001,3.764 3.642,5.046 -2.016,0.784 -3.679,1.093 -5.479,-0.771 -1.311,-1.357 -2.306,-3.192 -3.063,-4.907 -0.136,-0.308 -0.662,-0.088 -0.548,0.23 0.864,2.392 2.262,4.964 4.121,6.283 -2.863,0.249 -5.266,-2.556 -6.273,-5.159 -0.129,-0.333 -0.611,-0.209 -0.541,0.149 0.286,1.434 1.714,3.745 3.439,5.155 -0.857,0.346 -1.662,0.79 -2.603,0.76 -1.357,-0.043 -2.239,-1.067 -3.028,-2.072 -1.257,-1.602 -2.076,-3.438 -2.589,-5.401 -0.064,-0.248 -0.491,-0.205 -0.459,0.063 0.255,2.167 1.363,5.061 3.041,6.838 -2.76,-0.883 -5.057,-2.275 -6.588,-5.032 -0.15,-0.271 -0.517,-0.032 -0.402,0.236 0.964,2.271 2.942,4.381 5.313,5.341 -2.764,0.492 -5.146,-1.238 -6.875,-3.488 -0.211,-0.272 -0.678,-0.03 -0.479,0.28 1,1.559 2.584,3.164 4.356,3.887 0.066,2.649 0.212,5.328 0.398,8.007 -0.672,-0.591 -1.605,-0.939 -2.497,-0.862 -2.699,0.231 -2.666,4.3 -2.554,6.234 0.163,2.861 0.733,7.018 2.56,9.364 1.008,1.296 2.891,2.151 4.352,1.403 0.643,3.062 1.535,6.064 2.693,8.984 -2.244,0.868 -4.511,0.368 -6.601,-0.784 m 47.847,-22.15 c -0.609,0.114 -1.196,0.567 -1.634,1.144 0.028,-0.755 0.055,-1.509 0.084,-2.266 1.014,-1.394 2.715,-1.907 4.045,-0.72 0.674,0.6 0.93,2.018 0.999,2.876 0.117,1.466 -0.05,3.014 -0.345,4.44 -0.477,2.314 -1.982,7.442 -5.179,6.062 0.149,-2.251 0.189,-4.517 0.261,-6.771 0.014,-0.429 0.032,-0.861 0.049,-1.291 0.01,-0.009 0.027,-0.01 0.035,-0.021 0.448,-0.535 0.668,-1.199 1.179,-1.698 0.339,-0.331 0.72,-0.629 1.208,-0.436 0.543,0.215 0.988,0.705 1.054,1.291 0.026,0.244 0.367,0.322 0.446,0.061 0.393,-1.307 -0.767,-2.941 -2.202,-2.671 m -48.987,4.196 c 0.058,0.16 0.223,0.194 0.353,0.094 0.31,-0.244 0.39,-0.599 0.559,-0.946 0.085,-0.175 0.174,-0.352 0.291,-0.51 0.264,-0.362 0.748,-0.34 1.069,-0.049 0.669,0.608 0.845,1.678 1.378,2.393 0.045,0.06 0.108,0.094 0.175,0.116 0.065,0.677 0.127,1.358 0.197,2.03 0.19,1.866 0.465,3.717 0.816,5.552 -3.495,1.231 -4.547,-3.771 -5.107,-6.308 -0.309,-1.397 -0.559,-2.834 -0.539,-4.267 0.01,-0.743 -0.053,-1.786 0.259,-2.475 0.686,-1.515 2.772,-2.162 3.847,-0.547 0.082,1.081 0.176,2.16 0.271,3.237 -0.374,-0.54 -0.868,-0.963 -1.429,-1.086 -0.68,-0.151 -1.254,0.165 -1.626,0.729 -0.348,0.528 -0.743,1.412 -0.514,2.037 m 15.425,27.464 c -4.252,-2.978 -6.238,-7.729 -7.768,-12.518 -1.568,-4.913 -2.33,-9.958 -2.739,-15.089 -0.365,-4.619 -0.283,-9.514 -1.469,-14.027 1.155,0.314 2.367,0.225 3.53,-0.522 0.587,0.132 1.193,0.175 1.805,0.146 1.372,0.795 2.994,0.809 4.769,-0.624 0.071,-0.057 0.105,-0.132 0.114,-0.21 1.338,0.896 2.789,1.167 4.004,0.073 1.332,0.48 2.858,0.292 4.56,-0.955 1.164,0.638 2.478,0.769 3.892,-0.078 0.022,-0.012 0.032,-0.029 0.049,-0.041 1.862,1.196 3.938,0.66 5.452,-1.02 0.038,-0.042 0.064,-0.085 0.081,-0.129 2.143,1.255 4.79,1.422 6.384,-0.633 2.4,2.118 5.931,2.794 8.755,0.471 -0.516,5.104 -0.514,10.273 -0.684,15.396 -0.167,5.074 0.059,10.404 -1.101,15.375 -1.047,4.483 -3.221,8.79 -6.326,12.203 -3.428,3.767 -7.81,4.375 -12.517,5.23 -3.904,-0.049 -7.448,-0.708 -10.791,-3.048 m -4.818,10.112 c 2.515,-2.695 5.978,-4.438 8.94,-6.633 0.155,0.055 0.309,0.116 0.465,0.166 -0.02,0.935 -0.037,1.905 -0.019,2.871 -0.009,0.012 -0.022,0.021 -0.029,0.036 -2.221,4.209 -1.438,8.979 0.261,13.249 1.446,3.636 3.807,7.701 6.967,10.249 -3.893,0.121 -7.327,-0.873 -11.014,-2.427 -5.127,-2.16 1.601,-6.221 -1.892,-8.179 -1.684,-0.946 -4.041,-0.755 -5.464,-2.075 -1.187,-1.103 -0.912,-2.45 -0.358,-3.949 0.462,-1.247 1.241,-2.343 2.143,-3.308 m 50.248,32.726 c 0.281,-2.362 0.122,-4.877 0.368,-7.214 0.364,-3.46 1.011,-6.876 1.793,-10.263 0.081,-0.354 -0.425,-0.489 -0.541,-0.148 -1.101,3.22 -1.883,6.508 -2.348,9.878 -0.352,2.57 -0.877,5.638 -0.476,8.295 -0.64,0.295 -1.272,0.599 -1.923,0.878 -8.414,3.59 -17.44,5.89 -26.54,6.809 -9.392,0.95 -18.984,0.36 -28.031,-2.434 -2.875,-0.888 -5.604,-2.004 -8.217,-3.311 0.447,-3.037 -0.38,-6.553 -0.865,-9.55 -0.608,-3.773 -1.398,-7.511 -2.374,-11.206 -0.104,-0.398 -0.682,-0.227 -0.609,0.168 0.682,3.72 1.296,7.449 1.766,11.203 0.352,2.818 0.289,6.049 1.029,8.831 -4.136,-2.178 -7.984,-4.834 -11.629,-7.884 0.057,-0.281 0.108,-0.564 0.169,-0.842 1.027,-4.66 2.54,-9.194 4.138,-13.685 0.994,-2.795 1.626,-5.322 4.402,-6.851 2.103,-1.158 4.368,-2.017 6.701,-2.578 3.364,-0.807 7.26,-0.295 10.526,-1.522 -0.035,0.059 -0.081,0.112 -0.114,0.17 -0.856,1.491 -1.49,3.436 -1.146,5.169 0.359,1.811 1.756,2.168 3.381,2.598 1.202,0.317 3.668,0.636 3.532,2.408 -0.059,0.766 -0.789,1.807 -0.916,2.614 -0.253,1.606 -0.006,2.925 1.463,3.768 3.449,1.981 8.396,3.604 12.607,3.137 -0.012,0.099 0.014,0.203 0.117,0.251 1.905,0.904 3.699,-0.058 5.544,-0.765 2.797,-1.074 5.619,-2.109 8.39,-3.256 1.283,-0.532 2.698,-1.135 3.348,-2.45 0.342,-0.691 0.381,-1.435 0.228,-2.188 -0.204,-1.017 -1.447,-2.132 -1.277,-3.091 0.233,-1.321 3.07,-2.144 3.745,-3.692 0.601,-1.375 0.299,-2.844 -0.306,-4.156 3.054,0.937 6.527,1.137 9.568,1.836 1.822,0.42 3.662,0.814 5.463,1.32 2.784,0.785 4.313,1.907 5.273,4.602 1.275,3.581 2.126,7.355 2.689,11.111 0.334,2.226 0.396,4.477 0.479,6.719 -3.019,1.956 -6.14,3.745 -9.407,5.321"
   id="path207" />
                        <path
   d="m 400.999,149.936 c -0.281,-0.671 -1.189,-1.219 -2.014,-1.262 -0.079,-0.12 -0.22,-0.197 -0.408,-0.15 -1.261,0.316 -2.153,1.477 -1.957,2.798 0.19,1.267 1.43,2.53 2.768,1.94 1.096,-0.485 2.105,-2.145 1.611,-3.326 m -2.039,2.222 c -0.772,0.359 -1.327,-0.673 -1.33,-1.322 -0.002,-0.401 0.161,-0.756 0.412,-1.042 0.026,0.008 0.052,0.025 0.08,0.027 0.509,0.033 1.438,-0.049 1.75,0.511 0.298,0.535 -0.439,1.606 -0.912,1.826"
   id="path209" />
                    </g>
                </g>
            </g>
        </g></g>
</g>
</svg>
