<?xml version="1.0" encoding="UTF-8" standalone="no"?>
<!-- Generator: Adobe Illustrator 27.5.0, SVG Export Plug-In . SVG Version: 6.00 Build 0)  -->

<svg
   version="1.1"
   x="0px"
   y="0px"
   viewBox="0 0 500 500"
   style="enable-background:new 0 0 500 500;"
   xml:space="preserve"
   id="svg507"
   sodipodi:docname="person3.svg"
   inkscape:version="1.2.2 (b0a8486541, 2022-12-01)"
   xmlns:inkscape="http://www.inkscape.org/namespaces/inkscape"
   xmlns:sodipodi="http://sodipodi.sourceforge.net/DTD/sodipodi-0.dtd"
   xmlns:xlink="http://www.w3.org/1999/xlink"
   xmlns="http://www.w3.org/2000/svg"
   xmlns:svg="http://www.w3.org/2000/svg"><defs
   id="defs511" /><sodipodi:namedview
   id="namedview509"
   pagecolor="#ffffff"
   bordercolor="#000000"
   borderopacity="0.25"
   inkscape:showpageshadow="2"
   inkscape:pageopacity="0.0"
   inkscape:pagecheckerboard="0"
   inkscape:deskcolor="#d1d1d1"
   showgrid="false"
   inkscape:zoom="1.542"
   inkscape:cx="250.64851"
   inkscape:cy="354.73411"
   inkscape:window-width="1920"
   inkscape:window-height="972"
   inkscape:window-x="0"
   inkscape:window-y="0"
   inkscape:window-maximized="1"
   inkscape:current-layer="svg507" />
<g
   id="Background">
</g>
<g
   id="Objects"
   transform="matrix(3.6133154,0,0,3.6133154,-654.65052,-614.85845)">
    <g
   id="g504"><g
     id="g502">
            <path
   style="fill:#ea4256"
   d="m 319.555,239.552 c 0,38.173 -30.945,69.122 -69.12,69.122 -38.175,0 -69.121,-30.948 -69.121,-69.122 0,-38.173 30.946,-69.12 69.121,-69.12 38.174,0.001 69.12,30.947 69.12,69.12 z"
   id="path391" />
            <g
   id="g500">
                <defs
   id="defs394">
                    <path
   id="SVGID_00000066495268511498018650000013053654329197578394_"
   d="m 319.555,239.552 c 0,38.173 -30.945,69.122 -69.12,69.122 -38.175,0 -69.121,-30.948 -69.121,-69.122 0,-38.173 30.946,-69.12 69.121,-69.12 38.174,0.001 69.12,30.947 69.12,69.12 z" />
                </defs>
                <clipPath
   id="SVGID_00000135662002641581206880000010563163072226234243_">
                    <use
   xlink:href="#SVGID_00000066495268511498018650000013053654329197578394_"
   style="overflow:visible"
   id="use396" />
                </clipPath>
                <g
   clip-path="url(#SVGID_00000135662002641581206880000010563163072226234243_)"
   id="g498">
                    <g
   id="g475">
                        <path
   style="fill:#26404c"
   d="m 251.604,275.704 c -0.041,0.059 -0.098,0.109 -0.183,0.143 -1.089,0.429 -2.072,0.342 -2.939,-0.092 -0.819,0.086 -1.608,0.332 -2.36,0.692 0.005,1.091 -0.274,2.16 -0.14,3.259 0.149,1.223 0.754,1.896 1.563,2.673 0.003,0.002 0.005,0.004 0.008,0.006 0.988,-0.34 2.162,-0.376 3.184,-0.332 0.452,0.019 0.872,0.075 1.203,0.275 0.642,-0.387 1.188,-0.814 1.493,-1.605 0.306,-0.797 0.292,-1.646 0.412,-2.474 -0.712,-0.807 -1.428,-1.602 -2.167,-2.39 -0.045,-0.049 -0.061,-0.104 -0.074,-0.155 z"
   id="path399" />
                        <path
   style="fill:#f7ab81"
   d="m 250.886,274.969 c 1.404,-1.355 2.791,-2.598 3.899,-4.276 1.115,-1.688 1.84,-3.619 2.911,-5.32 -0.224,-0.017 -0.452,-0.03 -0.677,-0.051 l -1.171,-0.124 -0.096,-0.915 c -0.107,-1.514 0.023,-3.158 0.346,-4.591 -0.656,0.094 -1.305,0.139 -1.905,0.097 -0.222,-0.015 -0.363,-0.349 -0.125,-0.461 0.547,-0.256 1.166,-0.45 1.811,-0.604 2.132,-1.014 4.647,-1.203 6.873,-2.038 2.662,-0.995 5.161,-2.504 6.907,-4.784 3.227,-4.212 3.35,-10.038 4.715,-15.015 -0.061,-0.1 -0.122,-0.205 -0.174,-0.326 -0.127,-0.295 0.134,-0.59 0.441,-0.441 0.027,0.013 0.053,0.017 0.081,0.031 0.137,-0.045 0.283,0.003 0.35,0.131 3.736,1.325 5.315,-4.789 5.633,-7.445 0.167,-1.385 0.457,-4.613 -0.845,-5.601 -0.772,-0.587 -2.931,-0.342 -3.616,0.256 -0.741,0.648 -1.263,2.055 -1.621,2.921 -0.114,0.275 -0.63,0.28 -0.589,-0.078 0.042,-0.371 0.104,-0.783 0.237,-1.208 -1.398,-3.576 -1.614,-8.079 -1.906,-11.873 -0.278,-3.615 -0.184,-7.55 -0.184,-11.188 v -0.001 c 0,-3.227 -6.57,-3.333 -8.598,-3.53 -2.447,-0.237 -4.801,-0.301 -7.258,-0.202 -2.845,0.114 -5.677,0.455 -8.466,1.023 -2.009,0.408 -4.108,1.29 -6.159,1.333 -0.036,0.097 -0.069,0.194 -0.104,0.292 -0.217,0.602 -1.045,0.357 -0.945,-0.261 0.298,-1.86 1.167,-3.639 2.015,-5.308 0.178,-0.351 0.365,-0.79 0.578,-1.231 -0.681,0.471 -1.343,0.971 -1.939,1.6 -1.113,1.173 -1.857,2.496 -2.646,3.861 -0.357,0.358 -0.704,0.723 -1.049,1.092 -0.024,-0.022 -0.055,-0.032 -0.073,-0.067 -0.632,-1.16 -0.888,-2.61 -1.084,-4.05 -0.09,0.589 -0.18,1.178 -0.255,1.769 -0.066,0.525 -0.083,1.063 -0.15,1.588 0.017,0.273 0.024,0.545 0.017,0.823 -0.009,0.333 0.017,0.692 -0.098,1.004 -0.012,0.058 -0.035,0.109 -0.074,0.153 -0.014,0.023 -0.019,0.048 -0.034,0.07 -0.087,0.119 -0.233,0.177 -0.368,0.164 -1.186,0.497 -2.592,-0.281 -3.654,-0.853 -0.506,-0.272 -1.266,-0.687 -1.925,-1.189 -0.354,0.372 -0.724,0.727 -1.06,1.119 -0.155,0.183 -0.3,0.403 -0.445,0.631 -1.552,3.714 -1.708,8.012 -2.006,11.984 -0.304,4.071 -0.011,8.167 -0.31,12.221 -0.002,0.032 -0.024,0.052 -0.038,0.079 0.032,0.174 -0.198,0.273 -0.319,0.155 -0.071,-0.021 -0.135,-0.064 -0.153,-0.165 -0.011,-0.056 -0.018,-0.112 -0.028,-0.168 -0.712,-1.511 -1.395,-3.807 -2.971,-4.497 -3.537,-1.549 -4.045,3.377 -4.097,5.321 -0.105,4.028 1.499,11.308 7.118,8.506 0.338,-0.168 0.627,0.227 0.391,0.507 -0.101,0.121 -0.208,0.227 -0.316,0.329 0.605,3.007 0.727,6.067 1.638,9.03 0.929,3.02 2.383,5.88 4.426,8.299 1.967,2.332 4.539,4.125 7.421,5.132 2.961,1.035 5.711,0.709 8.731,0.931 0.442,0.031 0.495,0.589 0.101,0.741 -0.692,0.271 -1.413,0.449 -2.153,0.547 0.128,0.765 0.126,1.56 0.124,2.331 -0.001,0.281 0.002,0.566 0.001,0.852 l -0.044,1.033 -1.046,0.18 c -0.03,0.004 -0.058,0.01 -0.088,0.016 1.088,3.769 1.513,9.026 6.097,9.709 z m 24.92,-46.834 c 0.267,-0.858 0.557,-2.166 1.335,-2.743 1.463,-1.083 2.734,1.221 2.054,2.433 -0.091,0.161 -0.291,0.127 -0.388,0 -0.373,-0.49 -0.428,-1.556 -1.306,-0.917 -0.424,0.308 -0.676,1.466 -0.847,1.926 -0.418,1.131 -0.639,2.301 -0.98,3.453 -0.099,0.329 -0.59,0.261 -0.596,-0.081 -0.019,-1.369 0.321,-2.769 0.728,-4.071 z m -12.747,-3.481 c -0.141,0.802 -0.425,1.738 -1,2.345 -0.414,0.438 -1.051,0.657 -1.528,0.188 -0.556,-0.544 -0.398,-1.752 -0.354,-2.439 0.041,-0.627 0.153,-1.89 0.599,-2.643 0.182,-1.025 1.917,-1.251 2.369,-0.227 0.321,0.732 0.047,2.015 -0.086,2.776 z m -4.244,-9.492 c 1.24,-1.305 3.318,-3.146 5.264,-3.077 1.558,0.057 2.939,1.74 2.756,3.261 -0.028,0.229 -0.283,0.471 -0.522,0.298 -1.188,-0.864 -1.373,-2.422 -3.194,-2.065 -1.434,0.28 -2.845,1.11 -4.035,1.929 -0.215,0.149 -0.434,-0.171 -0.269,-0.346 z m -35.18,15.414 c -0.323,-1.183 -0.665,-2.333 -1.272,-3.41 -0.258,-0.458 -0.603,-1.415 -1.229,-1.054 -0.457,0.263 -0.687,0.933 -0.81,1.403 -0.092,0.352 -0.53,0.283 -0.647,0 -0.564,-1.36 0.945,-3.629 2.504,-2.763 0.791,0.439 1.065,1.73 1.289,2.523 0.298,1.055 0.495,2.157 0.488,3.256 -0.001,0.187 -0.275,0.225 -0.323,0.045 z m 15.385,-5.922 c -0.142,0.802 -0.425,1.738 -0.999,2.345 -0.414,0.438 -1.05,0.657 -1.528,0.188 -0.555,-0.544 -0.398,-1.752 -0.354,-2.439 0.042,-0.627 0.154,-1.89 0.598,-2.643 0.182,-1.025 1.918,-1.251 2.369,-0.227 0.323,0.732 0.049,2.015 -0.086,2.776 z m 0.337,-9.864 c -1.163,-1.335 -1.997,-2.989 -4.026,-1.948 -0.993,0.507 -2.155,1.203 -2.953,1.985 -0.159,0.157 -0.481,0.101 -0.528,-0.139 -0.315,-1.602 2.211,-3.001 3.479,-3.426 2.479,-0.831 3.482,1.399 4.314,3.308 0.075,0.175 -0.139,0.388 -0.286,0.22 z m 6.084,21.957 c 0.383,-2.588 0.93,-5.143 1.753,-7.628 0.073,-0.222 0.401,-0.132 0.35,0.097 -0.559,2.53 -1.088,5.052 -1.341,7.635 -0.135,1.379 -0.522,2.635 0.682,3.742 1.291,1.19 3.27,0.912 4.44,-0.24 0.24,-0.237 0.635,0.068 0.466,0.359 -0.673,1.155 -1.701,1.821 -3.09,1.648 -0.889,-0.11 -2.902,-0.724 -3.414,-1.431 -0.714,-0.985 -0.009,-3.077 0.154,-4.182 z m -0.081,14.3 c -0.881,-0.374 -1.355,-1.328 -1.689,-2.311 l -0.239,-0.758 0.645,-0.089 c 2.073,-0.291 4.16,-0.513 6.228,-0.786 2.302,-0.304 4.608,-0.675 6.92,-0.965 l 0.833,-0.106 -0.186,0.83 c -0.812,2.525 -3.333,3.579 -6.528,4.106 -1.721,0.282 -4.322,0.782 -5.984,0.079 z"
   id="path401" />
                        <path
   style="fill:#d87760"
   d="m 229.73,206.237 c 0.492,0 0.725,0.306 1.135,0.48 1.685,0.719 2.443,-0.252 3.633,-0.997 0.932,-0.583 1.807,-1.085 2.88,-1.338 1.63,-0.386 3.522,-0.14 5.175,-0.151 2.284,-0.015 4.569,-0.038 6.854,-0.078 3.762,-0.064 7.508,-0.158 11.264,-0.356 1.874,-0.099 4.981,-0.508 6.575,0.828 1.003,0.84 0.954,2.097 1.196,3.294 0.397,1.971 0.868,3.943 1.392,5.885 0.546,2.026 0.972,4.094 1.564,6.105 0.627,2.12 1.637,3.752 2.789,5.562 0.028,-0.115 0.049,-0.228 0.085,-0.345 -1.398,-3.576 -1.614,-8.079 -1.906,-11.873 -0.278,-3.615 -0.184,-7.55 -0.184,-11.188 v -0.001 c 0,-3.227 -6.57,-3.333 -8.598,-3.53 -2.447,-0.237 -4.801,-0.301 -7.258,-0.202 -2.845,0.114 -5.677,0.455 -8.466,1.023 -2.009,0.408 -4.108,1.29 -6.159,1.333 -0.036,0.097 -0.069,0.194 -0.104,0.292 -0.217,0.602 -1.045,0.357 -0.945,-0.261 0.298,-1.86 1.167,-3.639 2.015,-5.308 0.178,-0.351 0.365,-0.79 0.578,-1.231 -0.681,0.471 -1.343,0.971 -1.939,1.6 -1.113,1.173 -1.857,2.496 -2.646,3.861 -0.357,0.358 -0.704,0.723 -1.049,1.092 -0.024,-0.022 -0.055,-0.032 -0.073,-0.067 -0.632,-1.16 -0.888,-2.61 -1.084,-4.05 -0.09,0.589 -0.18,1.178 -0.255,1.769 -0.066,0.525 -0.083,1.063 -0.15,1.588 0.017,0.273 0.024,0.545 0.017,0.823 -0.009,0.333 0.017,0.692 -0.098,1.004 -0.012,0.058 -0.035,0.109 -0.074,0.153 -0.014,0.023 -0.019,0.048 -0.034,0.07 -0.087,0.119 -0.233,0.177 -0.368,0.164 -1.186,0.497 -2.592,-0.281 -3.654,-0.853 -0.506,-0.272 -1.266,-0.687 -1.925,-1.189 -0.354,0.372 -0.724,0.727 -1.06,1.119 -0.155,0.183 -0.3,0.403 -0.445,0.631 -0.793,1.898 -1.22,3.949 -1.488,6.029 0.773,-1.011 1.711,-1.687 2.81,-1.687 z"
   id="path403" />
                        <path
   style="fill:#f49c76"
   d="m 255.849,265.197 -0.01,-0.088 c -3.442,1.021 -7.196,1.263 -10.862,0.829 0.965,3.692 1.595,8.39 5.909,9.03 1.404,-1.355 2.791,-2.598 3.899,-4.276 1.115,-1.688 1.84,-3.619 2.911,-5.32 -0.224,-0.017 -0.452,-0.03 -0.677,-0.051 z"
   id="path405" />
                        <path
   style="fill:#d87760"
   d="m 246.844,260.656 c -0.33,0.079 -0.663,0.146 -1.001,0.19 0.128,0.765 0.126,1.56 0.124,2.331 -0.001,0.281 0.002,0.566 10e-4,0.852 l -0.034,0.797 c 3.33,0.302 6.709,0.021 9.807,-0.939 -0.058,-1.306 0.051,-2.675 0.306,-3.917 -3.041,0.54 -6.134,0.785 -9.203,0.686 z"
   id="path407" />
                        <path
   style="fill:#d87760"
   d="m 247.093,243.616 c 1.376,0.706 2.612,-0.211 3.121,-1.444 -0.446,0.184 -0.948,0.259 -1.513,0.188 -0.706,-0.087 -2.108,-0.494 -2.918,-1.01 0.182,0.97 0.536,1.869 1.31,2.266 z"
   id="path409" />
                        <path
   style="fill:#d87760"
   d="m 222.363,227.166 c -0.258,-0.458 -0.603,-1.415 -1.229,-1.054 -0.357,0.206 -0.573,0.659 -0.71,1.072 0.927,0.662 1.382,1.655 1.808,2.824 0.17,0.471 -0.312,0.785 -0.715,0.745 0.02,0.012 0.03,0.019 0.053,0.034 0.078,0.024 0.155,0.049 0.234,0.074 0.295,0.042 0.559,-0.074 0.754,-0.293 0.272,-0.309 0.435,-0.646 0.548,-1.04 0.031,-0.105 0.082,-0.185 0.145,-0.25 -0.233,-0.725 -0.506,-1.434 -0.888,-2.112 z"
   id="path411" />
                        <path
   style="fill:#d87760"
   d="m 278.34,226.941 c -0.169,-0.246 -0.401,-0.35 -0.839,-0.032 -0.424,0.308 -0.676,1.466 -0.847,1.926 -0.324,0.878 -0.532,1.778 -0.767,2.676 0.07,0.032 0.14,0.08 0.203,0.151 0.274,0.373 0.547,0.399 0.82,0.081 0.2,-0.126 0.287,-0.295 0.263,-0.509 -0.093,-0.151 -0.198,-0.302 -0.253,-0.473 -0.104,-0.319 -0.091,-0.654 0.1,-0.944 0.466,-0.713 1.345,-1.401 1.181,-2.368 -0.035,-0.207 0.03,-0.378 0.139,-0.508 z"
   id="path413" />
                        <path
   style="fill:#ffffff"
   d="m 256.892,247.231 c 0.031,-0.071 0.046,-0.146 0.074,-0.217 -1.913,0.312 -3.839,0.556 -5.752,0.811 -2.22,0.296 -4.465,0.613 -6.71,0.83 0.516,0.828 1.16,1.426 2.442,1.614 1.322,0.191 2.888,-0.069 4.205,-0.259 2.041,-0.292 4.794,-0.684 5.741,-2.779 z"
   id="path415" />
                        <path
   style="fill:#7cd1f2"
   d="m 252.038,275.325 c 1.527,0.24 2.584,1.986 3.517,3.059 0.986,1.135 2.347,2.248 3.164,3.565 1.276,-2.353 2.296,-4.774 3.146,-7.34 0.486,-1.464 0.913,-2.956 1.154,-4.482 0.244,-1.533 0.103,-3.045 0.275,-4.563 -1.571,-0.02 -3.147,-0.036 -4.703,-0.126 -0.842,3.41 -3.318,7.956 -6.553,9.887 z"
   id="path417" />
                        <path
   style="fill:#5b3b23"
   d="m 225.25,223.915 c -0.433,-3.894 -0.16,-8.025 0.153,-11.841 0.265,-3.248 0.111,-8.328 2.366,-10.94 0.041,-0.046 0.084,-0.077 0.127,-0.102 0.086,-0.108 0.168,-0.213 0.242,-0.308 0.333,-0.426 0.703,-0.828 1.122,-1.16 -0.341,-0.352 -0.602,-0.727 -0.677,-1.119 -0.023,-0.12 0.039,-0.219 0.123,-0.293 0.013,0.009 0.018,0.02 0.031,0.027 0.429,0.273 0.868,0.533 1.316,0.769 0.035,0.027 0.064,0.057 0.102,0.082 0.009,-0.004 0.018,-0.008 0.025,-0.012 0.13,0.065 0.264,0.123 0.395,0.182 0.01,0.036 0.012,0.075 0.002,0.111 0.554,0.35 1.137,0.66 1.632,0.933 0.935,0.514 1.889,0.851 2.901,1.084 0.005,-0.091 0.012,-0.183 0.024,-0.276 -0.291,-1.125 0.021,-2.434 0.161,-3.565 0.169,-1.347 0.417,-2.67 0.731,-3.992 0.103,-0.427 0.814,-0.458 0.896,0 0.301,1.676 0.982,3.602 1.167,5.407 1.137,-3.024 4.185,-6.305 7.189,-6.976 0.418,-0.093 0.581,0.413 0.274,0.65 -0.047,0.037 -0.096,0.067 -0.145,0.104 -0.922,1.026 -1.477,2.578 -2.069,3.805 -0.557,1.157 -0.98,2.339 -1.403,3.535 2.618,-1.616 6.566,-1.963 9.488,-2.353 3.205,-0.43 6.446,-0.578 9.676,-0.429 3.146,0.145 6.673,0.384 9.68,1.367 1.607,0.525 2.877,1.616 2.458,3.346 0.337,3.731 0.086,7.562 0.37,11.305 0.261,3.433 1.127,6.911 1.363,10.351 0.669,-1.229 1.665,-2.297 2.879,-2.559 -0.048,-7.455 1.166,-15.16 -0.645,-22.501 -0.909,-3.681 -2.938,-6.936 -6.481,-8.534 -2.939,-1.324 -6.088,-1.234 -9.175,-1.896 -0.027,0.042 -0.047,0.089 -0.072,0.131 -0.16,0.246 -0.515,0.138 -0.535,-0.145 -0.166,-2.357 1.529,-5.287 3.43,-7.165 -0.631,0.171 -1.267,0.325 -1.895,0.51 -1.548,0.455 -3.06,1.311 -4.646,1.311 h -0.006 c -0.177,0 -0.358,0.15 -0.554,0.153 -0.259,0.003 -0.362,-0.244 -0.202,-0.422 0.508,-0.563 1.149,-0.959 1.702,-1.478 0.521,-0.491 0.991,-1.033 1.522,-1.514 0.392,-0.352 0.859,-0.769 1.364,-1.136 -2.614,0.321 -5.327,0.189 -7.927,0.345 -3.833,0.229 -6.916,1.238 -10.386,2.779 -0.277,0.122 -0.594,-0.209 -0.344,-0.446 0.016,-0.015 0.036,-0.027 0.054,-0.042 0.133,-1.565 1.341,-3.165 2.185,-4.41 0.538,-0.795 1.142,-1.649 1.872,-2.33 -5.424,0.873 -10.531,2.941 -14.933,6.297 -2.439,1.861 -4.645,4.069 -6.44,6.563 -1.062,1.475 -1.556,2.58 -0.968,4.449 0.529,1.675 1.57,3.167 2.454,4.672 0.034,0.037 0.059,0.081 0.077,0.126 0.02,0.035 0.041,0.068 0.061,0.103 0.209,0.362 -0.252,0.756 -0.563,0.52 -4.703,1.618 -5.344,6.148 -5.415,10.632 -0.067,4.255 0.171,8.435 0.795,12.643 1.543,0.443 2.438,2.041 3.072,3.652 z"
   id="path419" />
                        <path
   style="fill:#49241a"
   d="m 276.114,195.494 c -1.479,0.133 -2.972,0.191 -4.454,0.197 -3.445,0.016 -6.885,-0.185 -10.329,-0.203 -4.314,-0.022 -8.602,0.652 -12.915,0.356 -0.375,-0.025 -0.709,-0.369 -0.584,-0.765 0.777,-2.434 1.929,-4.682 3.347,-6.788 -4.41,1.054 -8.24,4.408 -11.579,7.256 -0.328,0.281 -0.898,0.206 -1.011,-0.266 -0.504,-2.113 -0.865,-4.222 -1.019,-6.374 -2.411,2.88 -6.065,8.372 -9.614,6.242 -2.397,-1.438 -2.857,-4.547 -2.436,-7.715 -0.903,1.322 -1.295,2.402 -0.75,4.134 0.529,1.675 1.57,3.167 2.454,4.672 0.034,0.037 0.059,0.081 0.077,0.126 0.02,0.035 0.041,0.068 0.061,0.103 0.209,0.362 -0.252,0.756 -0.563,0.52 -4.703,1.618 -5.344,6.148 -5.415,10.632 -0.067,4.255 0.171,8.435 0.795,12.643 1.541,0.442 2.437,2.04 3.07,3.651 -0.433,-3.894 -0.16,-8.025 0.153,-11.841 0.265,-3.248 0.111,-8.328 2.366,-10.94 0.041,-0.046 0.084,-0.077 0.127,-0.102 0.086,-0.108 0.168,-0.213 0.242,-0.308 0.333,-0.426 0.703,-0.828 1.122,-1.16 -0.341,-0.352 -0.602,-0.727 -0.677,-1.119 -0.023,-0.12 0.039,-0.219 0.123,-0.293 0.013,0.009 0.018,0.02 0.031,0.027 0.429,0.273 0.868,0.533 1.316,0.769 0.035,0.027 0.064,0.057 0.102,0.082 0.009,-0.004 0.018,-0.008 0.025,-0.012 0.13,0.065 0.264,0.123 0.395,0.182 0.01,0.036 0.012,0.075 0.002,0.111 0.554,0.35 1.137,0.66 1.632,0.933 0.935,0.514 1.889,0.851 2.901,1.084 0.005,-0.091 0.012,-0.183 0.024,-0.276 -0.291,-1.125 0.021,-2.434 0.161,-3.565 0.169,-1.347 0.417,-2.67 0.731,-3.992 0.103,-0.427 0.814,-0.458 0.896,0 0.301,1.676 0.982,3.602 1.167,5.407 1.137,-3.024 4.185,-6.305 7.189,-6.976 0.418,-0.093 0.581,0.413 0.274,0.65 -0.047,0.037 -0.096,0.067 -0.145,0.104 -0.922,1.026 -1.477,2.578 -2.069,3.805 -0.557,1.157 -0.98,2.339 -1.403,3.535 2.618,-1.616 6.566,-1.963 9.488,-2.353 3.205,-0.43 6.446,-0.578 9.676,-0.429 3.146,0.145 6.673,0.384 9.68,1.367 1.607,0.525 2.877,1.616 2.458,3.346 0.337,3.731 0.086,7.562 0.37,11.305 0.261,3.433 1.127,6.911 1.363,10.351 0.669,-1.229 1.665,-2.297 2.879,-2.559 -0.048,-7.455 1.166,-15.16 -0.645,-22.501 -0.259,-1.068 -0.628,-2.089 -1.089,-3.053 z"
   id="path421" />
                        <path
   style="fill:#ffffff"
   d="m 261.647,222.265 c -0.183,0.257 -0.289,0.735 -0.353,1.206 0.136,0.198 0.279,0.39 0.474,0.538 0.106,0.081 0.211,0.142 0.304,0.212 0.015,-0.112 0.034,-0.223 0.045,-0.335 0.03,-0.301 0.073,-0.656 0.053,-0.959 0.058,-0.188 0.026,-0.352 -0.097,-0.492 -0.081,-0.23 -0.226,-0.278 -0.426,-0.17 z"
   id="path423" />
                        <path
   style="fill:#ffffff"
   d="m 237.61,222.265 c -0.183,0.257 -0.29,0.735 -0.353,1.206 0.136,0.198 0.279,0.39 0.473,0.538 0.107,0.081 0.211,0.142 0.302,0.212 0.017,-0.112 0.036,-0.223 0.045,-0.335 0.032,-0.301 0.075,-0.656 0.054,-0.959 0.058,-0.188 0.026,-0.352 -0.098,-0.492 -0.078,-0.23 -0.224,-0.278 -0.423,-0.17 z"
   id="path425" />
                        <path
   style="fill:#7cd1f2"
   d="m 285.228,269.194 c -4.689,-2.533 -11.012,-2.991 -16.218,-3.427 -1.6,-0.133 -3.239,-0.167 -4.89,-0.19 1.072,3.201 -0.476,7.541 -1.546,10.533 -0.631,1.759 -1.521,5.599 -3.449,6.669 0.04,0.259 -0.285,0.407 -0.495,0.314 -0.061,-0.026 -0.114,-0.065 -0.171,-0.095 -0.013,-0.003 -0.022,-0.01 -0.033,-0.016 -1.419,-0.737 -2.525,-2.369 -3.54,-3.549 -0.008,-0.008 -0.015,-0.018 -0.022,-0.026 -0.007,0.87 -0.221,1.746 -0.648,2.455 -0.397,0.66 -0.998,1.239 -1.693,1.451 1.563,4.152 1.792,9.152 2.467,13.526 0.635,4.117 1.53,8.339 1.772,12.506 6.554,-0.357 13.059,-1.536 19.28,-3.653 1.983,-0.678 3.889,-1.461 5.739,-2.33 -0.008,-0.031 -0.021,-0.06 -0.023,-0.093 -0.203,-3.802 0.233,-7.726 0.575,-11.513 0.319,-3.548 0.604,-7.114 1.153,-10.635 0.04,-0.258 0.452,-0.19 0.446,0.06 -0.105,3.833 -0.423,7.665 -0.612,11.494 -0.17,3.404 -0.207,6.884 -0.659,10.265 3.154,-1.543 6.147,-3.342 9.059,-5.343 0.023,-4.49 0.432,-8.938 -0.072,-13.462 -0.558,-5.008 -1.511,-12.289 -6.42,-14.941 z"
   id="path427" />
                        <path
   style="fill:#26404c"
   d="m 251.9,283.508 c -0.027,-0.009 -0.057,-0.013 -0.084,-0.027 -0.098,-0.059 -0.206,-0.097 -0.31,-0.141 -0.086,-0.023 -0.17,-0.038 -0.256,-0.075 -0.015,-0.008 -0.02,-0.023 -0.033,-0.03 -1.035,-0.299 -2.286,-0.059 -3.378,-0.104 -0.047,0.097 -0.13,0.158 -0.227,0.196 -0.834,4.362 -1.888,8.643 -2.41,13.072 -0.498,4.219 -0.192,8.527 -0.684,12.722 2.942,0.243 5.887,0.377 8.82,0.345 0.794,-0.008 1.587,-0.035 2.38,-0.067 -0.974,-4.299 -1.347,-8.808 -2.025,-13.158 -0.636,-4.1 -1.883,-8.568 -1.793,-12.733 z"
   id="path429" />
                        <path
   style="fill:#101f23"
   d="m 252.364,276.614 c -0.23,-0.25 -0.451,-0.505 -0.685,-0.755 -0.047,-0.05 -0.063,-0.104 -0.075,-0.155 -0.041,0.059 -0.098,0.109 -0.183,0.143 -1.089,0.429 -2.072,0.342 -2.939,-0.092 -0.819,0.086 -1.608,0.332 -2.36,0.692 0.005,1.078 -0.265,2.136 -0.142,3.224 2.093,-1.107 4.21,-2.153 6.384,-3.057 z"
   id="path431" />
                        <path
   style="fill:#101f23"
   d="m 247.554,282.385 c 0.197,-0.067 0.405,-0.114 0.614,-0.162 0.266,-0.137 0.53,-0.277 0.795,-0.414 1.569,-0.807 3.152,-1.753 4.777,-2.604 0.031,-0.319 0.06,-0.639 0.105,-0.955 -0.204,-0.23 -0.415,-0.454 -0.619,-0.683 -2.354,0.953 -4.637,2.083 -6.892,3.28 0.285,0.576 0.699,1.041 1.211,1.532 0.004,0.002 0.006,0.004 0.009,0.006 z"
   id="path433" />
                        <path
   style="fill:#101f23"
   d="m 251.916,284.483 c -0.008,-0.327 -0.022,-0.652 -0.016,-0.976 -0.027,-0.009 -0.057,-0.013 -0.084,-0.027 -0.098,-0.059 -0.206,-0.097 -0.31,-0.141 -0.086,-0.023 -0.17,-0.038 -0.256,-0.075 -0.015,-0.008 -0.02,-0.023 -0.033,-0.03 -0.7,-0.203 -1.499,-0.158 -2.282,-0.122 -0.486,0.279 -0.968,0.548 -1.443,0.811 -0.196,1.003 -0.403,2.001 -0.609,2.999 1.693,-0.788 3.387,-1.57 5.033,-2.439 z"
   id="path435" />
                        <path
   style="fill:#101f23"
   d="m 252.345,288.76 c -0.156,-0.994 -0.287,-1.986 -0.362,-2.969 -1.77,0.901 -3.587,1.718 -5.389,2.56 -0.274,1.333 -0.542,2.669 -0.781,4.01 2.198,-1.16 4.37,-2.371 6.532,-3.601 z"
   id="path437" />
                        <path
   style="fill:#101f23"
   d="m 253.088,292.85 c -0.181,-0.936 -0.364,-1.879 -0.533,-2.826 -2.31,1.307 -4.633,2.592 -6.988,3.813 -0.136,0.85 -0.263,1.703 -0.364,2.563 -0.009,0.066 -0.013,0.134 -0.02,0.201 2.554,-1.444 5.165,-2.767 7.905,-3.751 z"
   id="path439" />
                        <path
   style="fill:#101f23"
   d="m 253.773,296.772 c -0.026,-0.178 -0.052,-0.357 -0.079,-0.532 -0.11,-0.713 -0.251,-1.448 -0.388,-2.18 -2.869,1.05 -5.592,2.475 -8.261,4.008 -0.081,1.082 -0.121,2.17 -0.15,3.258 2.962,-1.511 5.894,-3.09 8.878,-4.554 z"
   id="path441" />
                        <path
   style="fill:#101f23"
   d="m 248.71,304.275 c 1.862,-1.053 3.77,-2.014 5.683,-2.967 -0.144,-1.105 -0.287,-2.205 -0.439,-3.301 -3.056,1.504 -6.056,3.122 -9.093,4.66 -0.029,1.331 -0.063,2.662 -0.14,3.983 1.319,-0.8 2.638,-1.611 3.989,-2.375 z"
   id="path443" />
                        <path
   style="fill:#101f23"
   d="m 252.698,307.897 c 0.817,-0.482 1.631,-0.959 2.452,-1.42 -0.221,-1.294 -0.411,-2.6 -0.588,-3.909 -2.349,1.177 -4.684,2.378 -6.929,3.751 -1.009,0.617 -2.013,1.24 -3.025,1.85 -0.028,0.317 -0.052,0.634 -0.089,0.951 1.903,0.157 3.809,0.262 5.712,0.314 0.837,-0.539 1.661,-1.061 2.467,-1.537 z"
   id="path445" />
                        <path
   style="fill:#101f23"
   d="m 252.434,309.463 c 0.302,0 0.604,0.006 0.905,0.002 0.794,-0.008 1.587,-0.035 2.38,-0.067 -0.125,-0.553 -0.239,-1.108 -0.347,-1.666 -0.987,0.56 -1.962,1.146 -2.938,1.731 z"
   id="path447" />
                        <path
   style="fill:#7cd1f2"
   d="m 238.213,273.439 c 0.608,2.337 1.658,4.537 2.347,6.84 0.628,-1.287 1.643,-2.349 2.775,-3.268 1.138,-0.922 2.423,-1.865 3.851,-2.235 -2.174,-2.248 -3.292,-6.767 -3.089,-9.401 -2.248,0.382 -4.489,0.764 -6.72,1.168 0.107,0.868 0.033,1.733 0.105,2.654 0.111,1.432 0.37,2.85 0.731,4.242 z"
   id="path449" />
                        <path
   style="fill:#7cd1f2"
   d="m 246.889,283.228 c -2.269,-0.758 -2.465,-4.116 -1.657,-6.292 -1.765,1.092 -3.282,2.767 -4.417,4.379 -0.015,0.129 -0.095,0.229 -0.199,0.291 -0.043,0.063 -0.088,0.127 -0.129,0.188 -0.141,0.212 -0.469,0.079 -0.41,-0.172 0.008,-0.03 0.02,-0.058 0.027,-0.088 -0.017,-0.02 -0.036,-0.034 -0.049,-0.057 -1.514,-2.572 -2.498,-5.713 -3.146,-8.612 -0.411,-1.851 -0.957,-4.228 -0.431,-6.155 -5.816,1.084 -11.563,2.402 -17.171,4.61 -2.531,0.998 -4.853,2.38 -6.136,4.876 -1.095,2.135 -1.79,4.544 -2.419,6.852 -1.286,4.715 -1.719,9.458 -2.152,14.287 2.77,2.347 5.641,4.299 8.734,5.849 -0.315,-7.203 -0.564,-14.431 -0.401,-21.64 0.005,-0.319 0.463,-0.31 0.487,0 0.563,7.26 0.71,14.564 0.792,21.842 0,0.069 -0.013,0.133 -0.036,0.186 2.869,1.352 5.923,2.382 9.276,3.044 5.325,1.054 10.757,1.943 16.208,2.438 -0.706,-4.209 -0.075,-8.935 0.443,-13.106 0.531,-4.279 1.284,-8.659 2.786,-12.72 z"
   id="path451" />
                        <path
   style="fill:#5199ce"
   d="m 262.629,271.996 c 0.154,-0.618 0.291,-1.24 0.39,-1.868 0.244,-1.533 0.103,-3.045 0.275,-4.563 -1.571,-0.02 -3.147,-0.036 -4.703,-0.126 -0.59,2.388 -1.984,5.332 -3.879,7.547 2.634,-0.144 5.296,-0.461 7.917,-0.99 z"
   id="path453" />
                        <path
   style="fill:#5199ce"
   d="m 263.974,271.701 c 4.41,-1.023 8.655,-2.678 12.385,-5.151 -2.51,-0.381 -5.039,-0.589 -7.348,-0.782 -1.6,-0.133 -3.239,-0.167 -4.89,-0.19 0.61,1.825 0.37,4.02 -0.147,6.123 z"
   id="path455" />
                        <path
   style="fill:#5199ce"
   d="m 282.596,288.829 c -5.112,6.013 -12.382,10.32 -19.789,12.661 -2.216,0.7 -4.482,1.255 -6.772,1.658 0.327,2.066 0.607,4.14 0.728,6.198 6.554,-0.357 13.059,-1.536 19.28,-3.653 1.983,-0.678 3.889,-1.461 5.739,-2.33 -0.008,-0.031 -0.021,-0.06 -0.023,-0.093 -0.203,-3.802 0.233,-7.726 0.575,-11.513 0.086,-0.974 0.173,-1.95 0.262,-2.928 z"
   id="path457" />
                        <path
   style="fill:#5199ce"
   d="m 291.647,284.137 c -0.363,-3.268 -0.903,-7.493 -2.591,-10.779 -0.227,3.536 -1.066,7.015 -2.777,10.158 -0.775,1.421 -1.675,2.769 -2.661,4.049 -0.105,1.705 -0.213,3.41 -0.298,5.112 -0.17,3.404 -0.207,6.884 -0.659,10.265 3.154,-1.543 6.147,-3.342 9.059,-5.343 0.023,-4.491 0.431,-8.939 -0.073,-13.462 z"
   id="path459" />
                        <path
   style="fill:#5199ce"
   d="m 237.713,271.065 c 0.611,0.158 1.212,0.303 1.796,0.438 2.059,0.476 4.127,0.862 6.208,1.137 -1.193,-2.331 -1.77,-5.313 -1.62,-7.266 -2.248,0.382 -4.489,0.764 -6.72,1.168 0.107,0.868 0.033,1.733 0.105,2.654 0.049,0.626 0.13,1.251 0.231,1.869 z"
   id="path461" />
                        <path
   style="fill:#5199ce"
   d="m 230.125,268.029 c 1.896,1.24 4.143,2.073 6.35,2.701 -0.228,-1.353 -0.335,-2.777 0.003,-4.02 -2.127,0.398 -4.246,0.828 -6.353,1.319 z"
   id="path463" />
                        <path
   style="fill:#5199ce"
   d="m 243.376,303.643 c -3.507,-0.374 -6.968,-1.197 -10.29,-2.567 -6.961,-2.865 -13.399,-8.409 -15.415,-15.632 0.349,5.972 0.475,11.966 0.542,17.943 0,0.069 -0.013,0.133 -0.036,0.186 2.869,1.352 5.923,2.382 9.276,3.044 5.325,1.054 10.757,1.943 16.208,2.438 -0.292,-1.741 -0.348,-3.57 -0.285,-5.412 z"
   id="path465" />
                        <path
   style="fill:#5199ce"
   d="m 216.916,283.401 c -1.809,3.588 -3.022,7.836 -7.706,7.918 -0.244,1.994 -0.429,3.997 -0.61,6.017 2.77,2.347 5.641,4.299 8.734,5.849 -0.286,-6.583 -0.504,-13.192 -0.418,-19.784 z"
   id="path467" />
                        <path
   style="fill:#ffffff"
   d="m 238.963,178.487 c 0.058,-0.034 0.02,-0.132 -0.046,-0.109 -3.213,1.059 -7.445,3.962 -7.854,7.62 -0.043,0.392 0.339,0.627 0.667,0.667 1.733,0.208 2.964,-1.027 4.337,-1.88 -0.126,0.254 -0.229,0.522 -0.268,0.831 -0.096,0.779 0.893,1.044 1.44,0.892 0.247,-0.068 0.382,-0.372 0.242,-0.595 -0.402,-0.641 0.601,-1.608 0.823,-2.278 0.136,-0.409 -0.311,-0.888 -0.73,-0.731 -1.493,0.559 -3.319,2.315 -5,2.476 0.905,-2.821 4.03,-5.504 6.389,-6.893 z"
   id="path469" />
                        <path
   style="fill:#ffffff"
   d="m 240.734,185.277 c -0.741,-0.023 -1.64,0.754 -1.504,1.525 0.027,0.155 0.238,0.28 0.388,0.22 0.287,-0.116 0.512,-0.304 0.724,-0.53 0.229,-0.246 0.516,-0.383 0.703,-0.672 0.154,-0.239 -0.05,-0.534 -0.311,-0.543 z"
   id="path471" />
                        <path
   style="fill:#ffffff"
   d="m 248.31,182.815 c -1.11,0.585 -2.236,1.15 -3.32,1.782 -0.885,0.515 -2.25,1.195 -2.543,2.237 -0.093,0.33 0.23,0.684 0.572,0.573 0.904,-0.296 1.503,-1.26 2.206,-1.886 1.016,-0.904 2.138,-1.644 3.297,-2.343 0.233,-0.14 0.027,-0.489 -0.212,-0.363 z"
   id="path473" />
                    </g>
                    <g
   id="Supri">
                        <polygon
   points="207.845,297.971 207.845,297.986 207.846,297.971 "
   id="polygon477" />
                        <path
   d="m 292.7,283.097 c -0.6,-4.644 -1.508,-10.767 -5.377,-13.941 -3.813,-3.127 -10.05,-3.649 -14.743,-4.214 -3.123,-0.376 -6.263,-0.565 -9.406,-0.64 -2.004,-0.052 -4.096,-0.188 -6.145,-0.105 -0.01,-0.509 -0.027,-1.017 -0.024,-1.523 0.006,-1.048 0.035,-2.092 -0.035,-3.134 0.281,-0.058 0.559,-0.127 0.834,-0.2 2.237,-0.252 4.595,-1.129 6.521,-1.968 2.403,-1.047 4.651,-2.561 6.269,-4.653 1.511,-1.957 2.28,-4.337 2.878,-6.703 0.703,-2.771 1.296,-5.644 1.548,-8.508 1.256,0.678 3.201,-0.49 4.139,-1.502 2.103,-2.269 2.912,-6.041 2.893,-9.046 -0.014,-1.983 -0.74,-5.436 -3.082,-5.922 0.59,-4.232 0.447,-8.702 0.351,-12.942 -0.096,-4.148 -0.159,-8.524 -1.758,-12.421 -2.572,-6.267 -9.179,-8.921 -15.66,-8.205 0.57,-1.132 0.954,-2.378 1.601,-3.479 0.786,-1.334 1.808,-2.456 2.74,-3.678 0.105,-0.044 0.215,-0.077 0.319,-0.127 0.257,-0.119 0.107,-0.467 -0.135,-0.479 -0.104,-0.005 -0.212,-0.002 -0.319,-0.003 -0.063,-0.021 -0.13,-0.023 -0.193,-0.002 -1.77,0.009 -3.779,0.497 -5.575,1.245 1.076,-1.066 2.373,-1.904 3.425,-2.971 0.079,-0.02 0.159,-0.029 0.238,-0.05 0.282,-0.074 0.22,-0.499 -0.069,-0.503 -4.112,-0.052 -8.463,-0.032 -12.548,0.474 -2.408,0.298 -5.055,0.845 -7.146,2.198 0.587,-0.924 1.134,-1.874 1.75,-2.779 0.891,-1.307 2.066,-2.316 3,-3.56 0.055,-0.071 0.053,-0.154 0.03,-0.236 0.043,-0.302 -0.118,-0.616 -0.512,-0.579 -6.923,0.642 -13.538,3.573 -18.764,8.143 -2.193,1.917 -4.954,4.526 -6.105,7.292 -1.045,2.508 0.723,5.678 2.425,7.781 -3.472,0.462 -5.25,4.455 -5.622,7.614 -0.623,5.299 -0.317,11.119 0.725,16.38 -0.079,0.003 -0.148,-0.011 -0.229,-0.001 -2.363,0.259 -3.237,2.999 -3.488,4.982 -0.398,3.124 -0.203,7.292 1.864,9.875 1.36,1.698 3.848,2.706 5.718,1.637 -0.472,6.308 2.203,13.649 6.418,18.216 3.035,3.288 8.567,6.292 13.487,6.063 -0.053,0.748 -0.014,1.508 -0.016,2.256 -0.001,0.306 -0.014,0.615 -0.026,0.922 -4.43,0.301 -8.888,1.212 -13.158,2.219 -5.069,1.195 -10.661,2.492 -15.244,5.052 -4.023,2.246 -5.343,6.327 -6.524,10.542 -1.327,4.734 -2.265,9.902 -2.043,14.865 l -0.079,1.193 c 0,0 0.019,-0.004 0.032,-0.006 0.044,0.045 0.088,0.091 0.131,0.139 0.008,0.043 0.017,0.084 0.021,0.127 0.017,0.176 0.166,0.239 0.298,0.208 4.795,4.852 11.332,7.737 17.955,9.133 8.664,1.822 17.749,3.122 26.613,3.061 13.192,-0.091 27.904,-3.435 38.835,-11.469 l 0.965,-0.751 0.249,-1.672 c 0.573,-4.499 0.311,-9.316 -0.247,-13.645 M 258.591,265.44 c 1.556,0.09 3.132,0.106 4.703,0.126 -0.173,1.518 -0.031,3.029 -0.275,4.563 -0.241,1.525 -0.668,3.018 -1.154,4.482 -0.85,2.565 -1.869,4.986 -3.146,7.34 -0.817,-1.317 -2.178,-2.431 -3.164,-3.565 -0.933,-1.072 -1.989,-2.818 -3.517,-3.059 3.235,-1.933 5.711,-6.479 6.553,-9.887 m -4.744,12.809 c -0.12,0.827 -0.107,1.677 -0.412,2.474 -0.305,0.791 -0.852,1.219 -1.493,1.605 -0.331,-0.2 -0.751,-0.257 -1.203,-0.275 -1.023,-0.044 -2.196,-0.008 -3.184,0.332 -0.003,-0.002 -0.005,-0.004 -0.008,-0.006 -0.809,-0.776 -1.413,-1.45 -1.563,-2.673 -0.135,-1.099 0.145,-2.168 0.14,-3.259 0.752,-0.36 1.541,-0.607 2.36,-0.692 0.867,0.434 1.85,0.52 2.939,0.092 0.085,-0.033 0.142,-0.084 0.183,-0.143 0.013,0.051 0.028,0.105 0.075,0.155 0.738,0.788 1.454,1.583 2.166,2.39 M 226.8,196.989 c 0.31,0.236 0.771,-0.158 0.563,-0.52 -0.02,-0.035 -0.042,-0.068 -0.061,-0.103 -0.018,-0.046 -0.043,-0.089 -0.077,-0.126 -0.884,-1.505 -1.924,-2.997 -2.454,-4.672 -0.588,-1.869 -0.094,-2.975 0.968,-4.449 1.795,-2.494 4.001,-4.702 6.44,-6.563 4.402,-3.357 9.509,-5.425 14.933,-6.297 -0.73,0.68 -1.333,1.534 -1.872,2.33 -0.844,1.245 -2.052,2.845 -2.185,4.41 -0.018,0.015 -0.038,0.027 -0.054,0.042 -0.25,0.237 0.067,0.568 0.344,0.446 3.47,-1.542 6.553,-2.551 10.386,-2.779 2.6,-0.156 5.313,-0.024 7.927,-0.345 -0.505,0.367 -0.973,0.784 -1.364,1.136 -0.531,0.48 -1.001,1.023 -1.522,1.514 -0.553,0.519 -1.194,0.915 -1.702,1.478 -0.16,0.178 -0.057,0.425 0.202,0.422 0.195,-0.003 0.377,-0.153 0.554,-0.153 h 0.006 c 1.586,0 3.099,-0.855 4.646,-1.311 0.627,-0.185 1.264,-0.339 1.895,-0.51 -1.9,1.878 -3.596,4.808 -3.43,7.165 0.021,0.283 0.375,0.391 0.535,0.145 0.025,-0.042 0.045,-0.089 0.072,-0.131 3.087,0.661 6.236,0.571 9.175,1.896 3.544,1.599 5.572,4.854 6.481,8.534 1.811,7.342 0.597,15.047 0.645,22.501 -1.214,0.262 -2.21,1.33 -2.879,2.559 -0.236,-3.44 -1.103,-6.918 -1.363,-10.351 -0.284,-3.743 -0.033,-7.573 -0.37,-11.305 0.419,-1.73 -0.851,-2.821 -2.458,-3.346 -3.007,-0.982 -6.534,-1.221 -9.68,-1.367 -3.229,-0.149 -6.471,-0.001 -9.676,0.429 -2.921,0.389 -6.87,0.737 -9.488,2.353 0.423,-1.195 0.846,-2.378 1.403,-3.535 0.592,-1.227 1.147,-2.779 2.069,-3.805 0.049,-0.036 0.097,-0.067 0.145,-0.104 0.308,-0.237 0.144,-0.743 -0.274,-0.65 -3.004,0.67 -6.052,3.951 -7.189,6.976 -0.185,-1.806 -0.866,-3.732 -1.167,-5.407 -0.082,-0.458 -0.793,-0.427 -0.896,0 -0.315,1.321 -0.563,2.645 -0.731,3.992 -0.141,1.131 -0.452,2.44 -0.161,3.565 -0.012,0.093 -0.019,0.186 -0.024,0.276 -1.013,-0.233 -1.966,-0.57 -2.901,-1.084 -0.495,-0.273 -1.078,-0.583 -1.632,-0.933 0.01,-0.037 0.008,-0.075 -0.002,-0.111 -0.132,-0.059 -0.265,-0.117 -0.395,-0.182 -0.007,0.004 -0.017,0.008 -0.025,0.012 -0.038,-0.025 -0.067,-0.055 -0.102,-0.082 -0.449,-0.236 -0.887,-0.496 -1.316,-0.769 -0.013,-0.007 -0.018,-0.019 -0.031,-0.027 -0.084,0.074 -0.146,0.174 -0.123,0.293 0.075,0.392 0.336,0.768 0.677,1.119 -0.419,0.332 -0.789,0.734 -1.122,1.16 -0.073,0.094 -0.155,0.199 -0.242,0.308 -0.043,0.025 -0.087,0.056 -0.127,0.102 -2.255,2.612 -2.101,7.691 -2.366,10.94 -0.313,3.816 -0.586,7.948 -0.153,11.841 -0.634,-1.61 -1.529,-3.208 -3.07,-3.651 -0.623,-4.208 -0.862,-8.387 -0.795,-12.643 0.069,-4.484 0.71,-9.015 5.413,-10.633 m 18.079,68.253 1.046,-0.18 0.044,-1.033 c 0.001,-0.285 -0.003,-0.57 -0.001,-0.852 0.001,-0.771 0.004,-1.566 -0.124,-2.331 0.741,-0.098 1.461,-0.275 2.153,-0.547 0.393,-0.152 0.341,-0.71 -0.101,-0.741 -3.02,-0.222 -5.77,0.104 -8.731,-0.931 -2.881,-1.007 -5.454,-2.8 -7.421,-5.132 -2.043,-2.419 -3.497,-5.279 -4.426,-8.299 -0.911,-2.962 -1.032,-6.023 -1.638,-9.03 0.108,-0.102 0.215,-0.208 0.316,-0.329 0.235,-0.28 -0.053,-0.676 -0.391,-0.507 -5.619,2.801 -7.223,-4.479 -7.118,-8.506 0.051,-1.944 0.56,-6.87 4.097,-5.321 1.576,0.69 2.259,2.986 2.971,4.497 0.01,0.056 0.017,0.112 0.028,0.168 0.019,0.1 0.082,0.144 0.153,0.165 0.121,0.118 0.351,0.019 0.319,-0.155 0.013,-0.027 0.036,-0.047 0.038,-0.079 0.298,-4.054 0.006,-8.15 0.31,-12.221 0.298,-3.972 0.454,-8.27 2.006,-11.984 0.145,-0.228 0.29,-0.449 0.445,-0.631 0.336,-0.392 0.707,-0.747 1.06,-1.119 0.66,0.503 1.419,0.917 1.925,1.189 1.062,0.572 2.469,1.35 3.654,0.853 0.135,0.013 0.281,-0.045 0.368,-0.164 0.015,-0.022 0.02,-0.047 0.034,-0.07 0.04,-0.044 0.063,-0.096 0.074,-0.153 0.115,-0.312 0.089,-0.671 0.098,-1.004 0.007,-0.278 0,-0.55 -0.017,-0.823 0.067,-0.525 0.084,-1.063 0.15,-1.588 0.075,-0.591 0.165,-1.18 0.255,-1.769 0.196,1.44 0.452,2.89 1.084,4.05 0.019,0.035 0.049,0.045 0.073,0.067 0.345,-0.369 0.692,-0.733 1.049,-1.092 0.788,-1.365 1.533,-2.688 2.646,-3.861 0.596,-0.628 1.259,-1.129 1.939,-1.6 -0.212,0.441 -0.399,0.88 -0.578,1.231 -0.848,1.668 -1.716,3.447 -2.015,5.308 -0.1,0.618 0.728,0.863 0.945,0.261 0.035,-0.098 0.068,-0.195 0.104,-0.292 2.051,-0.044 4.15,-0.925 6.159,-1.333 2.789,-0.568 5.621,-0.91 8.466,-1.023 2.457,-0.099 4.811,-0.035 7.258,0.202 2.027,0.197 8.598,0.303 8.598,3.53 v 0.001 c 0,3.638 -0.095,7.573 0.184,11.188 0.292,3.794 0.508,8.297 1.906,11.873 -0.133,0.425 -0.195,0.837 -0.237,1.208 -0.041,0.358 0.475,0.352 0.589,0.078 0.358,-0.866 0.88,-2.274 1.621,-2.921 0.686,-0.599 2.844,-0.844 3.616,-0.256 1.302,0.987 1.012,4.216 0.845,5.601 -0.318,2.656 -1.896,8.771 -5.633,7.445 -0.066,-0.128 -0.213,-0.176 -0.35,-0.131 -0.028,-0.014 -0.054,-0.018 -0.081,-0.031 -0.308,-0.15 -0.568,0.146 -0.441,0.441 0.052,0.121 0.113,0.227 0.174,0.326 -1.364,4.977 -1.488,10.803 -4.715,15.015 -1.746,2.28 -4.245,3.789 -6.907,4.784 -2.226,0.835 -4.741,1.024 -6.873,2.038 -0.645,0.154 -1.265,0.349 -1.811,0.604 -0.238,0.112 -0.097,0.446 0.125,0.461 0.6,0.042 1.249,-0.003 1.905,-0.097 -0.323,1.433 -0.453,3.077 -0.346,4.591 l 0.096,0.915 1.171,0.124 c 0.225,0.021 0.453,0.034 0.677,0.051 -1.071,1.701 -1.796,3.633 -2.911,5.32 -1.108,1.679 -2.495,2.921 -3.899,4.276 -4.584,-0.683 -5.008,-5.94 -6.095,-9.711 0.028,-0.004 0.056,-0.01 0.086,-0.014 m -0.782,0.132 c -0.203,2.635 0.915,7.153 3.089,9.401 -1.428,0.37 -2.712,1.314 -3.851,2.235 -1.132,0.919 -2.147,1.98 -2.775,3.268 -0.688,-2.303 -1.739,-4.503 -2.347,-6.84 -0.362,-1.392 -0.62,-2.81 -0.732,-4.242 -0.072,-0.921 0.003,-1.786 -0.105,-2.654 2.232,-0.404 4.473,-0.786 6.721,-1.168 m -0.435,43.681 c -5.451,-0.495 -10.883,-1.385 -16.208,-2.438 -3.354,-0.662 -6.408,-1.692 -9.276,-3.044 0.023,-0.053 0.036,-0.116 0.036,-0.186 -0.082,-7.278 -0.229,-14.582 -0.792,-21.842 -0.024,-0.31 -0.482,-0.319 -0.487,0 -0.163,7.209 0.086,14.437 0.401,21.64 -3.094,-1.55 -5.964,-3.502 -8.734,-5.849 0.434,-4.829 0.867,-9.572 2.152,-14.287 0.629,-2.308 1.323,-4.717 2.419,-6.852 1.283,-2.496 3.605,-3.878 6.136,-4.876 5.607,-2.208 11.355,-3.526 17.171,-4.61 -0.526,1.928 0.021,4.305 0.431,6.155 0.648,2.899 1.632,6.04 3.146,8.612 0.013,0.023 0.032,0.037 0.049,0.057 -0.008,0.03 -0.02,0.058 -0.027,0.088 -0.059,0.251 0.27,0.384 0.41,0.172 0.04,-0.061 0.086,-0.125 0.129,-0.188 0.104,-0.062 0.184,-0.162 0.199,-0.291 1.135,-1.612 2.652,-3.287 4.417,-4.379 -0.808,2.176 -0.611,5.534 1.657,6.292 -1.501,4.061 -2.254,8.44 -2.784,12.72 -0.52,4.171 -1.152,8.897 -0.445,13.106 m 9.677,0.41 c -2.933,0.032 -5.877,-0.102 -8.82,-0.345 0.491,-4.194 0.186,-8.503 0.684,-12.722 0.522,-4.429 1.576,-8.71 2.41,-13.072 0.096,-0.038 0.179,-0.1 0.227,-0.196 1.093,0.046 2.344,-0.194 3.378,0.104 0.014,0.007 0.018,0.022 0.033,0.03 0.086,0.037 0.17,0.052 0.256,0.075 0.104,0.044 0.212,0.082 0.31,0.141 0.027,0.015 0.057,0.018 0.084,0.027 -0.09,4.165 1.156,8.633 1.794,12.731 0.678,4.351 1.051,8.859 2.025,13.158 -0.794,0.034 -1.587,0.061 -2.381,0.069 m 38.381,-11.866 c -2.911,2.001 -5.904,3.8 -9.059,5.343 0.452,-3.381 0.489,-6.86 0.659,-10.265 0.19,-3.829 0.507,-7.661 0.612,-11.494 0.006,-0.25 -0.406,-0.317 -0.446,-0.06 -0.549,3.521 -0.834,7.087 -1.153,10.635 -0.342,3.787 -0.778,7.711 -0.575,11.513 0.002,0.033 0.016,0.061 0.023,0.093 -1.851,0.869 -3.756,1.652 -5.739,2.33 -6.222,2.117 -12.727,3.297 -19.28,3.653 -0.242,-4.167 -1.138,-8.389 -1.772,-12.506 -0.675,-4.374 -0.904,-9.374 -2.467,-13.526 0.695,-0.212 1.296,-0.791 1.693,-1.451 0.428,-0.709 0.642,-1.585 0.648,-2.455 0.008,0.009 0.015,0.019 0.022,0.026 1.016,1.18 2.121,2.811 3.54,3.549 0.012,0.006 0.021,0.013 0.033,0.016 0.057,0.03 0.11,0.068 0.171,0.095 0.21,0.094 0.535,-0.055 0.495,-0.314 1.929,-1.07 2.818,-4.91 3.449,-6.669 1.07,-2.992 2.618,-7.332 1.546,-10.533 1.65,0.022 3.29,0.057 4.89,0.19 5.206,0.435 11.528,0.893 16.218,3.427 4.908,2.651 5.861,9.933 6.419,14.942 0.504,4.522 0.096,8.97 0.073,13.461"
   id="path479" />
                        <path
   d="m 223.47,227.276 c -0.223,-0.793 -0.497,-2.084 -1.289,-2.523 -1.559,-0.866 -3.068,1.403 -2.504,2.763 0.117,0.283 0.555,0.352 0.647,0 0.123,-0.47 0.353,-1.14 0.81,-1.403 0.626,-0.361 0.971,0.595 1.229,1.054 0.608,1.077 0.95,2.227 1.272,3.41 0.048,0.18 0.322,0.143 0.323,-0.044 0.007,-1.1 -0.19,-2.202 -0.488,-3.257"
   id="path481" />
                        <path
   d="m 277.141,225.393 c -0.778,0.577 -1.067,1.884 -1.335,2.743 -0.406,1.302 -0.747,2.702 -0.728,4.073 0.006,0.342 0.497,0.41 0.596,0.081 0.342,-1.152 0.563,-2.322 0.98,-3.453 0.171,-0.46 0.423,-1.618 0.847,-1.926 0.878,-0.64 0.933,0.426 1.306,0.917 0.097,0.127 0.297,0.161 0.388,0 0.68,-1.215 -0.592,-3.518 -2.054,-2.435"
   id="path483" />
                        <path
   d="m 239.643,214.57 c -0.831,-1.909 -1.835,-4.139 -4.314,-3.308 -1.268,0.425 -3.794,1.824 -3.479,3.426 0.046,0.24 0.369,0.296 0.528,0.139 0.798,-0.783 1.961,-1.478 2.953,-1.985 2.029,-1.041 2.864,0.613 4.026,1.948 0.147,0.168 0.361,-0.045 0.286,-0.22"
   id="path485" />
                        <path
   d="m 264.079,212.085 c -1.945,-0.07 -4.023,1.771 -5.264,3.077 -0.165,0.175 0.054,0.495 0.269,0.347 1.19,-0.819 2.601,-1.649 4.035,-1.929 1.821,-0.357 2.006,1.201 3.194,2.065 0.238,0.173 0.493,-0.069 0.522,-0.298 0.184,-1.522 -1.198,-3.205 -2.756,-3.262"
   id="path487" />
                        <path
   d="m 239.106,221.879 c -0.451,-1.025 -2.187,-0.798 -2.369,0.227 -0.444,0.753 -0.557,2.015 -0.598,2.643 -0.044,0.687 -0.202,1.895 0.354,2.439 0.479,0.469 1.115,0.249 1.528,-0.188 0.575,-0.607 0.858,-1.543 0.999,-2.345 0.135,-0.762 0.409,-2.045 0.086,-2.776 m -1.848,1.592 c 0.063,-0.471 0.17,-0.949 0.353,-1.206 0.199,-0.108 0.344,-0.06 0.425,0.17 0.124,0.14 0.156,0.304 0.098,0.492 0.02,0.303 -0.022,0.658 -0.054,0.959 -0.01,0.113 -0.028,0.224 -0.045,0.335 -0.091,-0.07 -0.195,-0.131 -0.302,-0.212 -0.196,-0.149 -0.339,-0.34 -0.475,-0.538"
   id="path489" />
                        <path
   d="m 263.145,221.879 c -0.452,-1.025 -2.188,-0.798 -2.369,0.227 -0.445,0.753 -0.558,2.015 -0.599,2.643 -0.044,0.687 -0.202,1.895 0.354,2.439 0.477,0.469 1.114,0.249 1.528,-0.188 0.575,-0.607 0.859,-1.543 1,-2.345 0.133,-0.762 0.407,-2.045 0.086,-2.776 m -1.85,1.592 c 0.064,-0.471 0.17,-0.949 0.353,-1.206 0.199,-0.108 0.345,-0.06 0.426,0.17 0.123,0.14 0.154,0.304 0.097,0.492 0.021,0.303 -0.022,0.658 -0.053,0.959 -0.011,0.113 -0.03,0.224 -0.045,0.335 -0.093,-0.07 -0.197,-0.131 -0.304,-0.212 -0.195,-0.149 -0.338,-0.34 -0.474,-0.538"
   id="path491" />
                        <path
   d="m 251.325,240.353 c -1.17,1.152 -3.149,1.43 -4.44,0.24 -1.204,-1.107 -0.816,-2.363 -0.682,-3.742 0.253,-2.583 0.782,-5.105 1.341,-7.635 0.051,-0.229 -0.276,-0.319 -0.35,-0.097 -0.823,2.485 -1.371,5.04 -1.753,7.628 -0.163,1.105 -0.868,3.197 -0.154,4.183 0.512,0.706 2.525,1.321 3.414,1.431 1.389,0.172 2.417,-0.493 3.09,-1.648 0.169,-0.292 -0.226,-0.597 -0.466,-0.36"
   id="path493" />
                        <path
   d="m 257.226,246.138 c -2.313,0.29 -4.618,0.661 -6.92,0.965 -2.068,0.273 -4.155,0.495 -6.228,0.786 l -0.645,0.089 0.239,0.758 c 0.335,0.983 0.808,1.938 1.689,2.311 1.662,0.703 4.263,0.203 5.983,-0.079 3.195,-0.527 5.717,-1.581 6.528,-4.106 l 0.186,-0.83 z m -0.334,1.093 c -0.946,2.095 -3.699,2.487 -5.741,2.779 -1.316,0.189 -2.883,0.45 -4.205,0.259 -1.283,-0.188 -1.926,-0.786 -2.442,-1.614 2.246,-0.217 4.49,-0.534 6.71,-0.83 1.913,-0.255 3.839,-0.499 5.752,-0.811 -0.028,0.071 -0.043,0.146 -0.074,0.217"
   id="path495" />
                    </g>
                </g>
            </g>
        </g></g>
    </g>
    </svg>
