<?xml version="1.0" encoding="UTF-8" standalone="no"?>
<!-- Generator: Adobe Illustrator 27.5.0, SVG Export Plug-In . SVG Version: 6.00 Build 0)  -->

<svg
   version="1.1"
   x="0px"
   y="0px"
   viewBox="0 0 500 500"
   style="enable-background:new 0 0 500 500;"
   xml:space="preserve"
   id="svg128"
   sodipodi:docname="person2.svg"
   inkscape:version="1.2.2 (b0a8486541, 2022-12-01)"
   xmlns:inkscape="http://www.inkscape.org/namespaces/inkscape"
   xmlns:sodipodi="http://sodipodi.sourceforge.net/DTD/sodipodi-0.dtd"
   xmlns:xlink="http://www.w3.org/1999/xlink"
   xmlns="http://www.w3.org/2000/svg"
   xmlns:svg="http://www.w3.org/2000/svg"><defs
   id="defs132" /><sodipodi:namedview
   id="namedview130"
   pagecolor="#ffffff"
   bordercolor="#000000"
   borderopacity="0.25"
   inkscape:showpageshadow="2"
   inkscape:pageopacity="0.0"
   inkscape:pagecheckerboard="0"
   inkscape:deskcolor="#d1d1d1"
   showgrid="false"
   inkscape:zoom="1.542"
   inkscape:cx="250.64851"
   inkscape:cy="198.44358"
   inkscape:window-width="1920"
   inkscape:window-height="972"
   inkscape:window-x="0"
   inkscape:window-y="0"
   inkscape:window-maximized="1"
   inkscape:current-layer="svg128" />
<g
   id="Background">
</g>
<g
   id="Objects"
   transform="matrix(3.6071033,0,0,3.6071033,-122.10499,-70.92393)">
    <g
   id="g125"><g
     id="g123">
            <path
   style="fill:#f9da55"
   d="m 172.199,89.229 c 0,38.175 -30.946,69.121 -69.12,69.121 -38.175,0 -69.121,-30.946 -69.121,-69.121 0,-38.174 30.946,-69.12 69.121,-69.12 38.174,0 69.12,30.946 69.12,69.12 z"
   id="path3" />
            <g
   id="g121">
                <defs
   id="defs6">
                    <path
   id="SVGID_00000000941233820754225300000017452832062705836447_"
   d="m 172.199,89.229 c 0,38.175 -30.946,69.121 -69.12,69.121 -38.175,0 -69.121,-30.946 -69.121,-69.121 0,-38.174 30.946,-69.12 69.121,-69.12 38.174,0 69.12,30.946 69.12,69.12 z" />
                </defs>
                <clipPath
   id="SVGID_00000113321611784114216870000013912409115802730685_">
                    <use
   xlink:href="#SVGID_00000000941233820754225300000017452832062705836447_"
   style="overflow:visible"
   id="use8" />
                </clipPath>
                <g
   clip-path="url(#SVGID_00000113321611784114216870000013912409115802730685_)"
   id="g119">
                    <g
   id="g59">
                        <path
   style="fill:#5199ce"
   d="m 114.24,126.652 c 0.563,-0.658 1.088,-1.355 1.508,-2.114 0.695,-1.26 0.532,-2.158 -0.185,-3.458 -0.654,-1.188 -1.875,-2.327 -2.743,-3.369 -1.319,-1.582 -2.62,-3.196 -3.998,-4.727 -0.085,1.247 -0.233,2.494 -0.349,3.73 -0.15,1.626 -0.173,3.337 -0.594,4.924 0.002,0.173 0.005,0.349 0.009,0.526 0.656,-1.323 1.3,-2.65 1.957,-3.972 0.224,-0.448 0.987,-0.126 0.812,0.343 -1.181,3.155 -2.729,6.164 -4.388,9.092 -0.847,1.493 -1.705,3.05 -2.714,4.441 -0.341,0.471 -0.542,0.812 -0.992,0.928 -0.152,0.253 -0.291,0.511 -0.39,0.778 -0.219,0.581 -0.216,1.18 -0.298,1.771 0.017,0.005 0.031,0.013 0.047,0.018 4.455,-2.54 8.904,-4.923 12.318,-8.911 z"
   id="path11" />
                        <path
   style="fill:#ffffff"
   d="m 100.181,103.796 c 1.619,0.409 2.3,-0.125 2.962,-1.002 -1.6,0.554 -3.575,0.279 -5.191,-0.299 0.08,0.091 0.163,0.182 0.254,0.272 0.555,0.549 1.227,0.84 1.975,1.029 z"
   id="path13" />
                        <path
   style="fill:#ffffff"
   d="m 111.64,82.987 c -0.187,0.335 -0.3,0.714 -0.368,1.101 0.238,0.187 0.52,0.22 0.769,0.36 0.046,-0.164 0.084,-0.33 0.098,-0.493 0.011,-0.14 0.005,-1.243 -0.499,-0.968 z"
   id="path15" />
                        <path
   style="fill:#de953d"
   d="m 94.595,112.39 c 0.013,-0.008 0.026,-0.01 0.039,-0.017 0.01,-0.068 0.009,-0.138 0.022,-0.206 -1.532,-0.122 -3.069,-0.073 -4.506,-0.698 -1.658,-0.722 -3.17,-2.127 -4.369,-3.447 -2.559,-2.82 -4.116,-6.341 -5.086,-9.988 -1.112,-4.174 -1.597,-8.533 -2.092,-12.816 -0.541,-4.677 -1.407,-9.725 -1.142,-14.462 -0.858,-1.986 -1.216,-4.173 -0.924,-6.339 0.041,-0.307 0.461,-0.182 0.492,0.067 0.336,2.695 0.936,5.326 2.447,7.625 1.108,1.685 2.234,2.471 4.289,2.625 0.811,0.062 1.633,0.042 2.456,0.028 -3.486,-2.859 -4.163,-7.479 -3.124,-11.866 0.082,-0.345 0.543,-0.292 0.648,0 0.816,2.275 1.703,4.527 2.73,6.715 1.287,2.739 2.834,4.484 5.783,5.445 2.478,0.808 5.102,0.985 7.728,0.862 -1.631,-0.883 -2.908,-2.625 -3.95,-4.057 -2.091,-2.875 -3.956,-5.825 -4.438,-9.408 -0.036,-0.264 0.403,-0.314 0.459,-0.062 1.155,5.152 5.369,11.106 10.208,13.357 1.172,-0.124 2.337,-0.29 3.481,-0.477 -3.634,-2.482 -6.437,-6.488 -6.459,-10.981 -0.524,-1.118 -0.775,-2.314 -0.548,-3.57 0.038,-0.21 0.401,-0.217 0.432,0 0.96,6.695 8.772,10.858 14.781,13.093 -2.031,-3.313 -3.325,-7.078 -3.067,-11.014 0.031,-0.458 0.679,-0.456 0.711,0 0.033,0.465 0.078,0.923 0.127,1.38 0.489,3.005 3.104,5.032 5.596,6.488 2.137,1.249 5.577,3.076 8.112,2.458 0.325,-0.079 0.636,0.355 0.35,0.6 -0.424,0.361 -0.931,0.56 -1.483,0.645 0.784,7.751 -0.464,16.338 -2.488,23.795 -1.794,6.618 -5.934,11.501 -12.926,12.66 0.012,0.426 0.002,0.853 -0.014,1.279 1.075,0.328 1.781,1.306 2.521,2.131 1.185,1.321 2.322,2.687 3.445,4.06 0.062,-0.129 0.18,-0.233 0.369,-0.273 3.019,-0.637 4.209,-2.15 4.994,-5.078 0.572,-2.138 1.164,-4.27 1.875,-6.365 0.101,-0.295 0.507,-0.172 0.457,0.126 -0.352,2.172 -0.634,4.73 -1.3,7.006 2.197,-2.82 4.059,-5.562 5.261,-9.159 0.101,-0.298 0.515,-0.174 0.464,0.128 -0.398,2.353 -1.293,4.835 -2.627,7.005 4.842,-0.896 6.698,-5.984 7.168,-10.49 0.455,-4.358 0.631,-8.783 0.739,-13.162 0.353,-14.391 -1.712,-30.411 -12.494,-41.01 -3.023,-2.972 -6.519,-5.012 -10.741,-5.631 -4,-0.587 -8.217,-0.26 -12.193,0.355 -7.336,1.134 -13.835,4.24 -18.857,9.72 -0.01,0.024 -0.016,0.048 -0.034,0.07 -1.488,1.981 -2.936,3.832 -3.944,6.116 -1.165,2.638 -1.966,5.46 -2.736,8.234 -1.642,5.91 -2.821,11.966 -3.172,18.097 -0.34,5.935 0.094,11.931 1.573,17.698 1.156,4.511 3.773,14.524 9.979,13.803 -0.698,-0.44 -1.35,-0.99 -1.938,-1.693 -2.114,-2.53 -3.46,-5.881 -3.19,-9.205 0.019,-0.237 0.39,-0.323 0.439,-0.06 0.588,3.092 1.461,6.013 3.56,8.456 2.051,2.385 4.461,2.333 7.171,3.064 -0.475,-0.399 -0.912,-0.823 -1.288,-1.229 -1.609,-1.731 -2.689,-3.788 -3.517,-5.983 -0.101,-0.266 0.339,-0.448 0.458,-0.193 0.854,1.849 2.036,3.524 3.448,4.989 1.562,1.622 3.087,2.458 5.13,3.177 1.423,-1.658 2.961,-3.235 4.705,-4.418 z m 33.89,-42.666 c 0.006,-0.382 0.585,-0.381 0.593,0 0.023,1.182 0.132,2.417 -0.045,3.59 -0.039,0.249 -0.465,0.247 -0.503,0 -0.178,-1.173 -0.068,-2.407 -0.045,-3.59 z m -0.092,8.644 c 0.694,6.813 0.26,14.113 -2.203,20.564 -0.126,0.327 -0.619,0.205 -0.534,-0.147 1.644,-6.803 2.706,-13.394 2.184,-20.417 -0.028,-0.358 0.517,-0.349 0.553,0 z M 119.8,62.531 c 1.444,1.969 2.88,3.94 4.139,6.034 0.123,0.206 -0.181,0.45 -0.335,0.26 -1.568,-1.907 -2.957,-3.937 -4.344,-5.979 -0.231,-0.337 0.306,-0.634 0.54,-0.315 z m -7.56,-6.914 c 2.098,4.757 5.092,8.704 8.477,12.609 0.276,0.319 -0.135,0.713 -0.456,0.456 -4.077,-3.268 -6.837,-7.966 -8.514,-12.857 -0.099,-0.288 0.37,-0.486 0.493,-0.208 z m -6.022,0.997 c 0.901,2.464 2.318,4.461 3.754,6.621 0.194,0.292 -0.234,0.593 -0.471,0.363 -1.877,-1.822 -3.028,-4.381 -3.806,-6.841 -0.105,-0.336 0.405,-0.465 0.523,-0.143 z m -3.477,1.433 c 0.894,3.874 2.884,6.972 5.615,9.812 0.219,0.227 -0.077,0.646 -0.347,0.45 -3.269,-2.38 -5.253,-6.145 -5.859,-10.099 -0.057,-0.38 0.501,-0.555 0.591,-0.163 z m -6.815,3.838 c 0.276,1.611 0.793,3.137 1.274,4.694 0.079,0.252 -0.294,0.403 -0.422,0.178 -0.829,-1.481 -1.21,-3.122 -1.434,-4.793 -0.044,-0.332 0.527,-0.405 0.582,-0.079 z m -7.049,-0.414 c -0.225,4.447 2.193,7.653 5.034,10.766 0.236,0.257 -0.109,0.575 -0.372,0.372 -3.442,-2.664 -5.716,-6.717 -5.222,-11.138 0.039,-0.35 0.578,-0.366 0.56,0 z M 88.032,52.61 c 0.044,-0.432 0.087,-0.861 0.13,-1.293 0.034,-0.335 0.546,-0.348 0.534,0 -0.017,0.462 -0.035,0.923 -0.051,1.385 -0.015,0.392 0.035,0.796 -0.158,1.145 -0.117,0.209 -0.395,0.133 -0.471,-0.061 -0.141,-0.365 -0.021,-0.792 0.016,-1.176 z m -2.897,-1.611 c 0.143,-0.324 0.7,-0.086 0.572,0.241 -0.341,0.875 -0.623,1.764 -0.828,2.681 -0.201,0.902 -0.207,1.884 -0.533,2.745 -0.081,0.215 -0.439,0.271 -0.496,0 -0.375,-1.817 0.569,-4.031 1.285,-5.667 z M 81.56,69.982 c -1.062,-1.782 -1.505,-3.927 -1.591,-5.979 -0.01,-0.244 0.363,-0.242 0.377,0 0.112,2.096 0.722,3.874 1.557,5.779 0.098,0.228 -0.21,0.424 -0.343,0.2 z M 80.877,50.947 c 0.208,-0.392 0.766,-0.047 0.586,0.342 -1.152,2.511 -1.43,5.017 -2.185,7.618 -0.082,0.279 -0.441,0.19 -0.472,-0.064 -0.328,-2.66 0.853,-5.585 2.071,-7.896 z m -7.953,23.418 c 0.009,-0.403 0.589,-0.393 0.62,0 0.213,2.76 0.129,5.575 -0.175,8.324 -0.035,0.313 -0.501,0.33 -0.501,0 0.005,-2.773 0,-5.553 0.056,-8.324 z m 2.364,27.488 C 72.8,96.979 72.229,91.264 72.934,85.89 c 0.055,-0.404 0.688,-0.425 0.653,0 -0.46,5.49 0.525,10.553 2.182,15.76 0.091,0.285 -0.346,0.468 -0.481,0.203 z m 2.365,-3.418 c -0.76,-1.804 -1.114,-3.838 -1.431,-5.762 -0.052,-0.322 0.435,-0.462 0.496,-0.136 0.364,1.958 0.984,3.829 1.43,5.761 0.077,0.333 -0.37,0.433 -0.495,0.137 z"
   id="path17" />
                        <path
   style="fill:#b2642f"
   d="m 85.781,108.022 c -2.559,-2.82 -4.116,-6.341 -5.086,-9.988 -1.112,-4.174 -1.597,-8.533 -2.092,-12.816 -0.541,-4.677 -1.407,-9.725 -1.142,-14.462 -0.858,-1.986 -1.216,-4.173 -0.924,-6.339 10e-4,-0.011 0.011,-0.012 0.012,-0.021 -0.173,-0.85 -0.344,-1.699 -0.527,-2.546 -1.715,2.514 -2.624,5.488 -4.399,7.979 -0.208,0.291 -0.728,0.391 -0.912,0 -0.117,-0.25 -0.205,-0.505 -0.299,-0.759 -1.203,4.896 -2.057,9.88 -2.345,14.917 -0.34,5.935 0.094,11.931 1.573,17.698 1.156,4.511 3.773,14.524 9.979,13.803 -0.698,-0.44 -1.35,-0.99 -1.938,-1.693 -2.114,-2.53 -3.46,-5.881 -3.19,-9.205 0.019,-0.237 0.39,-0.323 0.439,-0.06 0.588,3.092 1.461,6.013 3.56,8.456 2.051,2.385 4.461,2.333 7.171,3.064 -0.475,-0.399 -0.912,-0.823 -1.288,-1.229 -1.609,-1.731 -2.689,-3.788 -3.517,-5.983 -0.101,-0.266 0.339,-0.448 0.458,-0.193 0.854,1.849 2.036,3.524 3.448,4.989 1.562,1.622 3.087,2.458 5.13,3.177 1.421,-1.659 2.958,-3.237 4.703,-4.42 0.013,-0.008 0.026,-0.01 0.039,-0.017 0.01,-0.068 0.009,-0.138 0.022,-0.206 -1.532,-0.122 -3.069,-0.073 -4.506,-0.698 -1.659,-0.723 -3.171,-2.128 -4.369,-3.448 z M 72.924,74.365 c 0.009,-0.403 0.589,-0.393 0.62,0 0.213,2.76 0.129,5.575 -0.175,8.324 -0.035,0.313 -0.501,0.33 -0.501,0 0.005,-2.773 0,-5.553 0.056,-8.324 z m 2.364,27.488 C 72.8,96.979 72.229,91.264 72.934,85.89 c 0.055,-0.404 0.688,-0.425 0.653,0 -0.46,5.49 0.525,10.553 2.182,15.76 0.091,0.285 -0.346,0.468 -0.481,0.203 z m 2.365,-3.418 c -0.76,-1.804 -1.114,-3.838 -1.431,-5.762 -0.052,-0.322 0.435,-0.462 0.496,-0.136 0.364,1.958 0.984,3.829 1.43,5.761 0.077,0.333 -0.37,0.433 -0.495,0.137 z"
   id="path19" />
                        <path
   style="fill:#b2642f"
   d="m 129.453,63.59 c -0.236,0.379 -0.491,0.74 -0.777,1.064 -0.203,0.232 -0.536,0.173 -0.747,0 -1.194,-0.974 -1.805,-2.385 -2.831,-3.492 -0.438,1.135 -0.344,2.417 -0.768,3.579 -0.165,0.454 -0.686,0.498 -0.965,0.126 -0.914,-1.22 -1.248,-2.749 -2.137,-3.952 -0.272,0.717 -0.378,1.467 -0.579,2.226 -0.035,0.132 -0.108,0.22 -0.198,0.281 1.221,1.675 2.419,3.364 3.488,5.142 0.123,0.206 -0.181,0.45 -0.335,0.26 -1.568,-1.907 -2.957,-3.937 -4.344,-5.979 -0.06,-0.088 -0.065,-0.172 -0.04,-0.245 -0.594,-0.858 -1.178,-1.686 -2.015,-2.313 -0.286,0.885 -0.405,1.803 -0.673,2.696 1.293,1.797 2.698,3.526 4.186,5.242 0.276,0.319 -0.135,0.713 -0.456,0.456 -1.953,-1.565 -3.596,-3.465 -4.97,-5.55 -1.231,-1.035 -1.818,-2.545 -2.595,-3.943 -0.461,1.289 -0.607,2.666 -1.067,3.963 0.028,0.345 0.057,0.688 0.095,1.029 0.489,3.005 3.104,5.032 5.596,6.488 2.137,1.249 5.577,3.076 8.112,2.458 0.325,-0.079 0.636,0.355 0.35,0.6 -0.424,0.361 -0.931,0.56 -1.483,0.645 0.784,7.751 -0.464,16.338 -2.488,23.795 -1.794,6.618 -5.934,11.501 -12.926,12.66 0.012,0.426 0.002,0.853 -0.014,1.279 1.075,0.328 1.781,1.306 2.521,2.131 1.185,1.321 2.322,2.687 3.445,4.06 0.062,-0.129 0.18,-0.233 0.369,-0.273 3.019,-0.637 4.209,-2.15 4.994,-5.078 0.572,-2.138 1.164,-4.27 1.875,-6.365 0.101,-0.295 0.507,-0.172 0.457,0.126 -0.352,2.172 -0.634,4.73 -1.3,7.006 2.197,-2.82 4.059,-5.562 5.261,-9.159 0.101,-0.298 0.515,-0.174 0.464,0.128 -0.398,2.353 -1.293,4.835 -2.627,7.005 4.842,-0.896 6.698,-5.984 7.168,-10.49 0.455,-4.358 0.631,-8.783 0.739,-13.162 0.196,-8.049 -0.366,-16.608 -2.785,-24.444 z m -3.263,35.342 c -0.126,0.327 -0.619,0.205 -0.534,-0.147 1.644,-6.803 2.706,-13.394 2.184,-20.417 -0.027,-0.358 0.518,-0.349 0.553,0 0.694,6.813 0.26,14.113 -2.203,20.564 z m 2.843,-25.618 c -0.039,0.249 -0.465,0.247 -0.503,0 -0.177,-1.173 -0.067,-2.407 -0.045,-3.59 0.006,-0.382 0.585,-0.381 0.593,0 0.023,1.182 0.132,2.417 -0.045,3.59 z"
   id="path21" />
                        <path
   style="fill:#b2642f"
   d="m 108.009,68.309 c -2.226,-1.62 -3.839,-3.889 -4.845,-6.414 -0.355,1.107 -0.644,2.239 -1.081,3.328 -0.134,0.334 -0.596,0.565 -0.882,0.233 -0.087,-0.101 -0.163,-0.207 -0.243,-0.311 2.857,4.171 8.44,6.976 12.994,8.67 -1.852,-3.021 -3.077,-6.421 -3.085,-9.98 -0.08,-0.022 -0.157,-0.063 -0.223,-0.14 -0.961,-1.11 -1.596,-2.467 -2.572,-3.546 -0.011,0.041 -0.019,0.083 -0.03,0.124 0.608,0.994 1.265,1.962 1.931,2.963 0.194,0.292 -0.234,0.593 -0.471,0.363 -0.664,-0.644 -1.233,-1.385 -1.732,-2.177 -0.23,1.106 -0.404,2.225 -0.725,3.321 -0.117,0.397 -0.586,0.495 -0.883,0.233 -1.405,-1.245 -1.553,-3.093 -2.431,-4.619 -0.055,0.126 -0.096,0.257 -0.147,0.384 1.064,2.67 2.705,4.969 4.772,7.118 0.219,0.226 -0.077,0.646 -0.347,0.45 z"
   id="path23" />
                        <path
   style="fill:#b2642f"
   d="m 99.288,64.291 c -0.505,-1.077 -0.746,-2.227 -0.561,-3.433 -0.121,-0.281 -0.242,-0.561 -0.37,-0.839 -1.068,1.049 -1.429,2.707 -1.859,4.275 0.222,0.763 0.465,1.521 0.702,2.285 0.079,0.252 -0.294,0.403 -0.422,0.178 -0.247,-0.44 -0.443,-0.897 -0.618,-1.361 -0.151,0.438 -0.316,0.86 -0.532,1.233 -0.183,0.317 -0.745,0.371 -0.911,0 -0.929,-2.063 -1.346,-4.308 -2.403,-6.305 -1.685,1.684 -1.778,4.458 -2.056,6.679 -0.009,0.077 -0.042,0.148 -0.082,0.215 0.935,1.8 2.277,3.422 3.734,5.019 0.236,0.257 -0.109,0.575 -0.372,0.372 -2.135,-1.652 -3.819,-3.84 -4.674,-6.318 -0.176,-0.443 -0.349,-0.888 -0.533,-1.329 -0.196,-0.474 -2.006,-5.018 -3.064,-2.774 -0.396,0.838 -0.591,1.746 -0.788,2.651 0.615,1.611 1.26,3.212 1.994,4.773 1.287,2.739 2.834,4.484 5.783,5.445 2.478,0.808 5.102,0.985 7.728,0.862 -1.631,-0.883 -2.908,-2.625 -3.95,-4.057 -2.091,-2.875 -3.956,-5.825 -4.438,-9.408 -0.036,-0.264 0.403,-0.314 0.459,-0.062 1.155,5.152 5.369,11.106 10.208,13.357 1.172,-0.124 2.337,-0.29 3.481,-0.477 -3.631,-2.482 -6.434,-6.488 -6.456,-10.981 z"
   id="path25" />
                        <path
   style="fill:#b2642f"
   d="m 77.979,68.957 c 0.366,1.098 0.842,2.157 1.496,3.152 1.108,1.685 2.234,2.471 4.289,2.625 0.811,0.062 1.633,0.042 2.456,0.028 -2.262,-1.855 -3.335,-4.453 -3.531,-7.247 -0.009,-0.018 -0.022,-0.034 -0.029,-0.053 -0.745,-1.951 -1.098,-4.011 -1.808,-5.965 -0.345,0.746 -0.56,1.537 -0.745,2.338 0.105,-0.022 0.229,0.027 0.238,0.167 0.112,2.096 0.722,3.874 1.557,5.779 0.099,0.228 -0.209,0.424 -0.343,0.2 -1.004,-1.685 -1.45,-3.692 -1.569,-5.642 -0.33,1.514 -0.616,3.042 -1.486,4.369 -0.124,0.19 -0.331,0.271 -0.525,0.249 z"
   id="path27" />
                        <path
   style="fill:#ffffff"
   d="m 90.193,82.987 c -0.186,0.335 -0.299,0.714 -0.367,1.101 0.238,0.187 0.52,0.22 0.768,0.36 0.046,-0.164 0.084,-0.33 0.098,-0.493 0.013,-0.14 0.006,-1.243 -0.499,-0.968 z"
   id="path29" />
                        <path
   style="fill:#f7bf74"
   d="m 97.595,125.965 c 0.677,1.131 1.422,2.215 2.223,3.263 0.394,0.514 0.793,1.017 1.215,1.508 0.547,0.637 0.512,0.871 1.28,0.644 0.952,-0.282 1.804,-2.355 2.312,-3.205 0.669,-1.117 1.315,-2.247 1.93,-3.393 0.21,-0.392 0.402,-0.793 0.605,-1.189 -0.002,-0.005 -0.007,-0.007 -0.009,-0.014 -0.17,-0.585 -0.1,-1.236 -0.065,-1.853 -0.192,-1.813 0.129,-3.669 0.309,-5.478 0.202,-2.044 0.312,-4.142 0.886,-6.121 0.077,-0.265 0.374,-0.266 0.516,-0.1 3.054,-1.427 6.07,-2.256 8.314,-5.005 2.191,-2.685 3.194,-6.081 3.931,-9.406 1.555,-7.02 1.816,-14.087 2.555,-21.194 -2.479,-0.031 -5.63,-1.912 -7.254,-2.907 -1.38,-0.845 -2.804,-1.881 -3.815,-3.15 0.618,2.16 1.569,4.201 3.05,6.078 0.312,0.398 0.031,0.975 -0.502,0.861 -4.009,-0.86 -7.792,-2.911 -10.939,-5.508 -1.245,-1.028 -2.689,-2.305 -3.784,-3.763 0.96,3.832 3.026,7.156 6.751,9.111 0.311,0.163 0.248,0.692 -0.101,0.765 -5.399,1.124 -11.319,1.995 -16.546,-0.334 -4.156,-1.853 -5.87,-6.669 -6.97,-10.941 -0.472,4.01 0.675,8.094 4.448,10.196 0.433,0.241 0.204,0.844 -0.237,0.875 -3.459,0.253 -6.476,0.691 -8.736,-2.334 -0.134,-0.179 -0.252,-0.37 -0.377,-0.556 0.5,3.158 0.601,6.442 0.963,9.575 0.472,4.077 0.912,8.175 1.686,12.207 0.68,3.538 1.683,7.089 3.639,10.151 1.177,1.843 2.761,3.652 4.576,4.905 1.764,1.217 3.625,1.238 5.57,1.945 0.213,0.078 0.256,0.363 0.135,0.505 0.535,1.657 0.547,3.425 0.664,5.154 0.129,1.891 0.406,3.854 0.219,5.746 0.48,1.005 0.982,1.999 1.558,2.962 z m 14.441,-39.362 c -1.181,0.692 -1.882,-0.55 -1.791,-1.578 0.084,-0.934 0.312,-1.849 0.869,-2.562 0.095,-0.2 0.243,-0.354 0.432,-0.444 0.064,-0.056 0.124,-0.113 0.195,-0.166 0.158,-0.115 0.332,-0.029 0.424,0.11 0.567,0.143 0.91,0.664 1.039,1.209 0.241,1.016 -0.201,2.863 -1.168,3.431 z m -2.608,-8.89 c 0.812,-1.413 2.359,-2.679 4.081,-2.108 1.5,0.497 2.438,2.099 2.323,3.636 -0.03,0.386 -0.512,0.535 -0.729,0.198 -0.517,-0.8 -0.821,-1.925 -1.696,-2.426 -1.285,-0.735 -2.435,0.397 -3.332,1.198 -0.345,0.307 -0.885,-0.082 -0.647,-0.498 z m -23.482,1.656 c -0.297,0.146 -0.719,-0.101 -0.599,-0.461 0.374,-1.122 1.529,-2.619 2.856,-2.596 1.25,0.022 2.768,0.957 3.372,2.024 0.195,0.346 -0.185,0.668 -0.512,0.513 -0.766,-0.36 -1.67,-0.854 -2.504,-1.021 -1.103,-0.22 -1.726,1.1 -2.613,1.541 z m 4.643,7.234 c -1.18,0.692 -1.882,-0.55 -1.791,-1.578 0.083,-0.934 0.311,-1.849 0.87,-2.562 0.094,-0.2 0.243,-0.354 0.432,-0.444 0.064,-0.056 0.123,-0.113 0.195,-0.166 0.159,-0.115 0.332,-0.029 0.423,0.11 0.568,0.143 0.909,0.664 1.039,1.209 0.242,1.016 -0.2,2.863 -1.168,3.431 z m 8.341,7.234 c 0.407,-0.758 0.681,-1.569 1.083,-2.327 0.148,-0.277 0.523,-0.121 0.546,0.148 0.049,0.553 -0.048,1.014 -0.235,1.535 -0.13,0.357 -0.49,0.786 -0.537,1.146 -0.126,0.994 2.104,1.479 2.729,1.937 0.246,0.18 0.15,0.521 -0.149,0.552 -1.097,0.118 -2.986,-0.648 -3.544,-1.653 -0.27,-0.484 -0.141,-0.877 0.107,-1.338 z m -2.001,7.671 c 1.335,0.119 2.633,0.532 3.982,0.536 1.34,0.004 2.416,-0.428 3.568,-1.08 0.402,-0.228 0.734,0.28 0.467,0.604 -0.12,0.146 -0.249,0.28 -0.384,0.403 0.007,1.711 -1.72,3.165 -3.397,3.076 -1.822,-0.096 -4.048,-1.091 -4.386,-3.059 -0.201,-0.13 -0.106,-0.503 0.15,-0.48 z"
   id="path31" />
                        <path
   style="fill:#d88666"
   d="m 84.868,77.382 c 0.375,0.106 0.752,0.206 1.131,0.301 0.551,-0.752 1.338,-1.386 2.204,-1.371 1.158,0.02 2.538,0.827 3.215,1.794 0.459,0.016 0.811,0.069 0.844,0.2 -0.101,-0.405 0.256,-0.733 0.65,-0.649 5.499,1.171 10.985,0.922 16.465,0.287 -0.006,-0.073 0.005,-0.15 0.05,-0.23 0.812,-1.413 2.359,-2.679 4.081,-2.108 0.791,0.263 1.42,0.836 1.827,1.542 0.931,-0.134 1.863,-0.268 2.794,-0.397 2.071,-0.288 3.913,0.668 5.046,2.179 0.13,-1.5 0.264,-3.002 0.42,-4.505 -2.479,-0.031 -5.63,-1.912 -7.254,-2.907 -1.38,-0.845 -2.804,-1.881 -3.815,-3.15 0.618,2.16 1.569,4.201 3.05,6.078 0.312,0.398 0.031,0.975 -0.502,0.861 -4.009,-0.86 -7.792,-2.911 -10.939,-5.508 -1.245,-1.028 -2.689,-2.305 -3.784,-3.763 0.96,3.832 3.026,7.156 6.751,9.111 0.311,0.163 0.248,0.692 -0.101,0.765 -5.399,1.124 -11.319,1.995 -16.546,-0.334 -4.156,-1.853 -5.87,-6.669 -6.97,-10.941 -0.472,4.01 0.675,8.094 4.448,10.196 0.433,0.241 0.204,0.844 -0.237,0.875 -3.459,0.253 -6.476,0.691 -8.736,-2.334 -0.134,-0.179 -0.252,-0.37 -0.377,-0.556 0.099,0.623 0.173,1.254 0.245,1.885 1.921,1.09 3.919,2.084 6.04,2.679 z"
   id="path33" />
                        <path
   style="fill:#f7bf74"
   d="m 110.534,77.805 c 1.103,-0.139 2.203,-0.289 3.305,-0.444 -0.129,-0.132 -0.268,-0.253 -0.432,-0.347 -1.076,-0.616 -2.055,0.078 -2.873,0.791 z"
   id="path35" />
                        <path
   style="fill:#d88666"
   d="m 101.822,112.365 c -2.19,0.305 -4.369,0.453 -6.54,0.274 0.386,1.501 0.427,3.075 0.533,4.621 0.036,0.519 0.081,1.044 0.126,1.571 1.255,0.768 2.67,1.266 4.225,1.369 2.222,0.149 5.053,-0.174 6.969,-1.547 0.078,-0.805 0.18,-1.609 0.259,-2.403 0.157,-1.578 0.263,-3.186 0.564,-4.748 -0.047,0.003 -0.087,0 -0.137,0.005 -2.006,0.233 -3.999,0.579 -5.999,0.858 z"
   id="path37" />
                        <path
   style="fill:#5199ce"
   d="m 88.138,127.437 c 3.08,3.833 7.26,5.985 11.856,7.48 0.134,0.043 0.211,0.152 0.244,0.272 0.17,0.085 0.342,0.167 0.527,0.213 0.057,0.015 0.116,0.018 0.174,0.027 -0.116,-0.717 0.119,-1.517 0.396,-2.157 0.06,-0.138 0.135,-0.257 0.205,-0.383 -1.63,-0.73 -3.285,-3.773 -4.066,-4.99 -1.584,-2.468 -3.014,-5.279 -3.556,-8.184 -0.047,-0.256 0.315,-0.448 0.446,-0.187 0.178,0.351 0.346,0.706 0.516,1.061 -0.071,-0.965 -0.096,-1.938 -0.161,-2.895 -0.09,-1.358 -0.252,-2.731 -0.204,-4.09 -1.378,1.744 -3.007,3.308 -4.446,5 -0.927,1.091 -2.32,2.398 -2.95,3.657 -0.919,1.833 -0.2,3.66 1.019,5.176 z"
   id="path39" />
                        <path
   style="fill:#316baa"
   d="m 102.991,145.501 c -0.135,0.016 -0.221,-0.041 -0.287,-0.12 -0.736,0.08 -1.144,0.457 -1.104,1.309 0.034,0.724 0.547,1.444 1.342,1.289 0.638,-0.124 1.349,-0.843 1.538,-1.459 0.253,-0.816 -0.9,-1.093 -1.489,-1.019 z"
   id="path41" />
                        <path
   style="fill:#5199ce"
   d="m 141.497,135.548 c -0.322,-2.087 -0.237,-5.204 -1.404,-7.032 -1.323,-2.074 -4.913,-2.843 -7.102,-3.555 -2.174,-0.707 -4.383,-1.299 -6.593,-1.882 -3.302,-0.87 -6.882,-1.579 -10.068,-2.981 1.06,1.302 1.698,2.429 0.819,4.352 -1.343,2.94 -3.974,5.159 -6.441,7.134 -2.487,1.994 -5.397,4.233 -8.603,4.815 -0.131,0.023 -0.239,-0.024 -0.329,-0.092 -0.67,0.197 -1.671,-0.167 -2.219,-0.692 -5.448,-0.765 -10.457,-4.346 -13.461,-8.899 -1.796,-2.719 -0.727,-4.275 1.115,-6.614 0.34,-0.432 0.688,-0.872 1.04,-1.314 -3.496,1.364 -7.3,2.163 -10.886,3.165 -3.792,1.061 -9.799,1.703 -12.236,5.096 -2.302,3.203 -2.441,8.401 -3.042,12.199 -0.5,3.156 -0.819,6.315 -1.093,9.482 3.115,2.079 6.361,3.899 9.71,5.476 -0.688,-2.641 -0.729,-5.555 -1.07,-8.216 -0.442,-3.45 -0.934,-6.89 -1.342,-10.343 -0.044,-0.366 0.557,-0.434 0.634,-0.086 0.784,3.56 1.37,7.143 1.888,10.749 0.387,2.693 1.037,5.588 0.853,8.335 10.137,4.599 21.193,6.946 32.515,7.146 10.235,0.181 20.05,-1.747 29.137,-5.642 -0.652,-6.404 0.459,-13.392 1.927,-19.617 0.096,-0.408 0.665,-0.222 0.609,0.167 -0.472,3.369 -0.879,6.756 -1.163,10.146 -0.248,2.963 -0.192,5.948 -0.44,8.905 3.181,-1.418 6.27,-3.08 9.252,-4.982 -0.276,-2.641 -0.564,-5.281 -0.929,-7.915 -0.337,-2.439 -0.702,-4.873 -1.078,-7.305 z m -38.406,13.516 c -1.418,0.224 -2.505,-1.025 -2.513,-2.374 -0.003,-0.611 0.176,-1.345 0.675,-1.744 0.447,-0.36 1.008,-0.327 1.543,-0.249 0.878,-0.869 2.66,0.25 2.828,1.293 0.22,1.365 -1.252,2.874 -2.533,3.074 z"
   id="path43" />
                        <path
   style="fill:#5199ce"
   d="m 114.24,126.652 c 0.563,-0.658 1.088,-1.355 1.508,-2.114 0.695,-1.26 0.532,-2.158 -0.185,-3.458 -0.654,-1.188 -1.875,-2.327 -2.743,-3.369 -1.319,-1.582 -2.62,-3.196 -3.998,-4.727 -0.085,1.247 -0.233,2.494 -0.349,3.73 -0.15,1.626 -0.173,3.337 -0.594,4.924 0.002,0.173 0.005,0.349 0.009,0.526 0.656,-1.323 1.3,-2.65 1.957,-3.972 0.224,-0.448 0.987,-0.126 0.812,0.343 -1.181,3.155 -2.729,6.164 -4.388,9.092 -0.847,1.493 -1.705,3.05 -2.714,4.441 -0.341,0.471 -0.542,0.812 -0.992,0.928 -0.152,0.253 -0.291,0.511 -0.39,0.778 -0.219,0.581 -0.216,1.18 -0.298,1.771 0.017,0.005 0.031,0.013 0.047,0.018 4.455,-2.54 8.904,-4.923 12.318,-8.911 z"
   id="path45" />
                        <path
   style="fill:#5199ce"
   d="m 88.138,127.437 c 3.08,3.833 7.26,5.985 11.856,7.48 0.134,0.043 0.211,0.152 0.244,0.272 0.17,0.085 0.342,0.167 0.527,0.213 0.057,0.015 0.116,0.018 0.174,0.027 -0.116,-0.717 0.119,-1.517 0.396,-2.157 0.06,-0.138 0.135,-0.257 0.205,-0.383 -1.63,-0.73 -3.285,-3.773 -4.066,-4.99 -1.584,-2.468 -3.014,-5.279 -3.556,-8.184 -0.047,-0.256 0.315,-0.448 0.446,-0.187 0.178,0.351 0.346,0.706 0.516,1.061 -0.071,-0.965 -0.096,-1.938 -0.161,-2.895 -0.09,-1.358 -0.252,-2.731 -0.204,-4.09 -1.378,1.744 -3.007,3.308 -4.446,5 -0.927,1.091 -2.32,2.398 -2.95,3.657 -0.919,1.833 -0.2,3.66 1.019,5.176 z"
   id="path47" />
                        <path
   style="fill:#316baa"
   d="m 109.844,118.193 c 0.224,-0.448 0.987,-0.126 0.812,0.343 -0.429,1.146 -0.92,2.269 -1.434,3.38 2.485,-0.87 5.088,-0.898 6.916,0.611 -0.087,-0.45 -0.281,-0.914 -0.575,-1.447 -0.654,-1.188 -1.875,-2.327 -2.743,-3.369 -1.319,-1.582 -2.62,-3.196 -3.998,-4.727 -0.085,1.247 -0.233,2.494 -0.349,3.73 -0.15,1.626 -0.173,3.337 -0.594,4.924 0.002,0.173 0.005,0.349 0.009,0.526 0.655,-1.321 1.299,-2.648 1.956,-3.971 z"
   id="path49" />
                        <path
   style="fill:#316baa"
   d="m 92.092,121.601 c 1.153,1.211 2.361,2.421 3.717,3.418 -0.86,-1.689 -1.551,-3.478 -1.892,-5.303 -0.047,-0.256 0.315,-0.448 0.446,-0.187 0.178,0.351 0.346,0.706 0.516,1.061 -0.071,-0.965 -0.096,-1.938 -0.161,-2.895 -0.09,-1.358 -0.252,-2.731 -0.204,-4.09 -1.378,1.744 -3.007,3.308 -4.446,5 -0.216,0.253 -0.457,0.52 -0.708,0.793 0.871,0.375 1.771,1.194 2.732,2.203 z"
   id="path51" />
                        <path
   style="fill:#316baa"
   d="m 68.694,138.806 c -1.079,1.589 -2.83,2.793 -4.625,2.902 -1.017,0.061 -1.71,-0.339 -2.194,-0.981 -0.377,2.664 -0.648,5.33 -0.879,8.003 3.115,2.079 6.361,3.899 9.71,5.476 -0.688,-2.641 -0.729,-5.555 -1.07,-8.216 -0.309,-2.396 -0.632,-4.789 -0.942,-7.184 z"
   id="path53" />
                        <path
   style="fill:#316baa"
   d="m 142.575,142.852 c -0.337,-2.438 -0.702,-4.872 -1.078,-7.304 -0.113,-0.734 -0.177,-1.599 -0.262,-2.487 -1.093,3.088 -3.235,5.748 -5.942,8.004 -0.23,1.924 -0.439,3.85 -0.601,5.778 -0.248,2.963 -0.192,5.948 -0.44,8.905 3.181,-1.418 6.27,-3.08 9.252,-4.982 -0.277,-2.64 -0.565,-5.28 -0.929,-7.914 z"
   id="path55" />
                        <path
   style="fill:#316baa"
   d="m 134.12,141.995 c -5.823,4.365 -13.703,7.059 -19.539,8.242 -8.47,1.717 -17.933,1.533 -26.301,-0.66 -6.528,-1.711 -15.755,-5.403 -18.863,-12.126 -0.02,0.052 -0.049,0.1 -0.07,0.151 0.577,2.887 1.047,5.789 1.466,8.707 0.387,2.693 1.037,5.588 0.853,8.335 10.137,4.599 21.193,6.946 32.515,7.146 10.235,0.181 20.05,-1.747 29.137,-5.642 -0.465,-4.585 -0.022,-9.464 0.802,-14.153 z"
   id="path57" />
                    </g>
                    <path
   style="fill:#ffffff"
   d="m 119.007,52.089 c -0.471,-1.872 -1.306,-3.594 -2.514,-5.107 -0.825,-1.034 -2.401,-3.027 -3.876,-2.976 -0.159,0.006 -0.254,0.12 -0.27,0.27 -0.125,1.179 1.076,2.317 1.692,3.233 0.032,0.048 0.063,0.095 0.095,0.144 -1.327,-0.581 -1.77,0.539 -1.861,1.754 -1.621,-0.524 -3.611,-0.865 -4.443,0.518 -0.193,0.321 0.004,0.673 0.323,0.793 0.715,0.271 0.87,0.256 1.587,-0.035 0.992,-0.401 2.369,0.75 3.12,1.267 0.832,0.572 1.711,-0.306 1.625,-1.145 0.077,0.097 0.156,0.195 0.232,0.291 0.734,0.919 1.37,1.81 2.357,2.478 0.999,0.676 2.197,-0.43 1.933,-1.485 z"
   id="path61" />
                    <path
   style="fill:#ffffff"
   d="m 106.488,50.312 c -0.095,0.119 -0.181,0.257 -0.332,0.31 -0.224,0.079 -0.208,0.472 0.06,0.442 0.281,-0.032 0.466,-0.167 0.688,-0.339 0.296,-0.231 -0.174,-0.711 -0.416,-0.413 z"
   id="path63" />
                    <path
   style="fill:#ffffff"
   d="m 104.251,50.809 c -0.224,0.102 -0.562,0.115 -0.81,0.154 -0.123,0.02 -0.192,0.198 -0.122,0.297 0.322,0.453 0.733,0.482 1.244,0.289 0.548,-0.207 0.223,-0.985 -0.312,-0.74 z"
   id="path65" />
                    <path
   style="fill:#ffffff"
   d="m 102.25,50.192 c -0.207,0.147 -0.377,0.206 -0.624,0.256 -0.385,0.076 -0.39,0.707 0,0.781 0.372,0.07 0.688,0.081 1.058,-0.008 0.826,-0.199 0.226,-1.497 -0.434,-1.029 z"
   id="path67" />
                    <path
   style="fill:#ffffff"
   d="m 99.636,51.574 c -0.134,0.032 -2.041,0.373 -2.102,0.141 -0.1,-0.394 -0.46,-0.627 -0.849,-0.648 -0.719,-0.038 -2.134,-0.058 -2.762,-0.51 -0.259,-0.186 -0.629,-0.088 -0.844,0.109 -0.09,0.083 -0.216,0.166 -0.36,0.249 -0.036,-0.208 -0.073,-0.425 -0.105,-0.661 -0.087,-0.646 -0.971,-0.901 -1.468,-0.597 -0.143,0.088 -0.275,0.184 -0.403,0.281 0.203,-0.845 0.433,-1.685 0.681,-2.506 0.144,-0.476 -0.529,-0.731 -0.782,-0.329 -1.382,2.196 -2.442,4.15 -2.628,6.778 -0.078,1.089 1.499,1.443 2.006,0.544 0.306,-0.543 0.571,-1.128 0.897,-1.667 0.212,0.55 0.825,0.967 1.394,0.538 0.479,-0.361 0.902,-0.753 1.309,-1.176 0.872,0.614 1.897,0.661 3.066,0.711 0.39,0.016 0.748,-0.282 0.849,-0.647 0.022,-0.077 1.951,-0.409 2.138,-0.479 0.079,-0.032 0.049,-0.152 -0.037,-0.131 z"
   id="path69" />
                    <g
   id="g117">
                        <path
   d="m 93.912,72.236 c -2.841,-3.112 -5.259,-6.319 -5.034,-10.766 0.018,-0.366 -0.521,-0.35 -0.56,0 -0.494,4.421 1.78,8.474 5.222,11.138 0.262,0.203 0.607,-0.115 0.372,-0.372"
   id="path71" />
                        <path
   d="m 95.926,61.885 c -0.055,-0.326 -0.626,-0.253 -0.582,0.079 0.223,1.671 0.604,3.313 1.434,4.793 0.128,0.225 0.501,0.075 0.422,-0.178 -0.48,-1.557 -0.997,-3.083 -1.274,-4.694"
   id="path73" />
                        <path
   d="m 81.902,69.782 c -0.835,-1.905 -1.444,-3.684 -1.557,-5.779 -0.014,-0.242 -0.387,-0.244 -0.377,0 0.086,2.052 0.529,4.197 1.591,5.979 0.134,0.224 0.442,0.028 0.343,-0.2"
   id="path75" />
                        <path
   d="m 108.356,67.859 c -2.731,-2.84 -4.721,-5.938 -5.615,-9.812 -0.09,-0.392 -0.648,-0.217 -0.591,0.163 0.606,3.954 2.59,7.719 5.859,10.099 0.27,0.196 0.566,-0.224 0.347,-0.45"
   id="path77" />
                        <path
   d="m 109.973,63.235 c -1.437,-2.16 -2.854,-4.157 -3.754,-6.621 -0.119,-0.322 -0.628,-0.193 -0.522,0.143 0.778,2.46 1.929,5.019 3.806,6.841 0.236,0.23 0.664,-0.071 0.47,-0.363"
   id="path79" />
                        <path
   d="m 120.717,68.226 c -3.384,-3.905 -6.379,-7.852 -8.477,-12.609 -0.123,-0.278 -0.592,-0.08 -0.494,0.208 1.677,4.891 4.437,9.589 8.514,12.857 0.321,0.257 0.733,-0.137 0.457,-0.456"
   id="path81" />
                        <path
   d="m 123.938,68.565 c -1.258,-2.094 -2.695,-4.064 -4.139,-6.034 -0.234,-0.319 -0.77,-0.022 -0.54,0.315 1.387,2.042 2.776,4.072 4.344,5.979 0.155,0.19 0.458,-0.054 0.335,-0.26"
   id="path83" />
                        <path
   d="m 105.624,145.991 c -0.168,-1.043 -1.95,-2.163 -2.828,-1.293 -0.535,-0.078 -1.096,-0.111 -1.543,0.249 -0.498,0.399 -0.678,1.133 -0.675,1.744 0.008,1.349 1.095,2.597 2.513,2.374 1.281,-0.201 2.753,-1.71 2.533,-3.074 m -1.144,0.53 c -0.189,0.616 -0.9,1.335 -1.538,1.459 -0.795,0.156 -1.308,-0.565 -1.342,-1.289 -0.04,-0.853 0.368,-1.23 1.104,-1.309 0.066,0.079 0.152,0.136 0.287,0.12 0.589,-0.075 1.742,0.202 1.489,1.019"
   id="path85" />
                        <path
   d="m 91.757,83.173 c -0.13,-0.545 -0.471,-1.066 -1.039,-1.209 -0.091,-0.139 -0.265,-0.225 -0.423,-0.11 -0.071,0.052 -0.13,0.11 -0.195,0.166 -0.19,0.09 -0.338,0.244 -0.432,0.444 -0.559,0.713 -0.786,1.628 -0.87,2.562 -0.091,1.027 0.611,2.27 1.791,1.578 0.968,-0.569 1.41,-2.416 1.168,-3.431 m -1.065,0.783 c -0.015,0.162 -0.052,0.328 -0.098,0.493 -0.248,-0.14 -0.53,-0.174 -0.768,-0.36 0.068,-0.387 0.181,-0.766 0.367,-1.101 0.505,-0.276 0.512,0.827 0.499,0.968"
   id="path87" />
                        <path
   d="m 113.204,83.173 c -0.129,-0.545 -0.472,-1.066 -1.039,-1.209 -0.092,-0.139 -0.266,-0.225 -0.424,-0.11 -0.071,0.052 -0.131,0.11 -0.195,0.166 -0.188,0.09 -0.336,0.244 -0.432,0.444 -0.558,0.713 -0.786,1.628 -0.869,2.562 -0.091,1.027 0.61,2.27 1.791,1.578 0.967,-0.569 1.409,-2.416 1.168,-3.431 m -1.066,0.783 c -0.014,0.162 -0.052,0.328 -0.098,0.493 -0.249,-0.14 -0.531,-0.174 -0.769,-0.36 0.068,-0.387 0.181,-0.766 0.368,-1.101 0.505,-0.276 0.511,0.827 0.499,0.968"
   id="path89" />
                        <path
   d="m 91.575,78.336 c -0.604,-1.068 -2.122,-2.002 -3.372,-2.024 -1.327,-0.022 -2.482,1.475 -2.856,2.596 -0.12,0.36 0.302,0.607 0.599,0.461 0.887,-0.441 1.51,-1.761 2.613,-1.541 0.835,0.167 1.738,0.661 2.504,1.021 0.328,0.156 0.707,-0.166 0.512,-0.513"
   id="path91" />
                        <path
   d="m 113.509,75.605 c -1.722,-0.571 -3.27,0.695 -4.081,2.108 -0.238,0.415 0.302,0.804 0.646,0.498 0.898,-0.801 2.048,-1.933 3.332,-1.198 0.875,0.501 1.179,1.626 1.696,2.426 0.217,0.336 0.699,0.188 0.729,-0.198 0.116,-1.536 -0.822,-3.138 -2.322,-3.636"
   id="path93" />
                        <path
   d="m 102.516,96.275 c -0.625,-0.458 -2.855,-0.943 -2.729,-1.937 0.046,-0.359 0.406,-0.789 0.537,-1.146 0.188,-0.521 0.285,-0.982 0.235,-1.535 -0.023,-0.269 -0.397,-0.425 -0.546,-0.148 -0.402,0.758 -0.676,1.569 -1.083,2.327 -0.248,0.461 -0.377,0.854 -0.107,1.337 0.558,1.004 2.447,1.771 3.544,1.653 0.299,-0.03 0.394,-0.371 0.149,-0.551"
   id="path95" />
                        <path
   d="m 104.946,101.567 c 0.268,-0.324 -0.065,-0.832 -0.467,-0.604 -1.152,0.652 -2.228,1.084 -3.568,1.08 -1.349,-0.004 -2.647,-0.417 -3.982,-0.536 -0.255,-0.022 -0.351,0.351 -0.15,0.48 0.338,1.968 2.564,2.963 4.386,3.059 1.678,0.089 3.405,-1.366 3.397,-3.076 0.136,-0.122 0.265,-0.257 0.384,-0.403 m -4.765,2.229 c -0.748,-0.189 -1.42,-0.48 -1.976,-1.028 -0.091,-0.09 -0.174,-0.181 -0.254,-0.272 1.617,0.578 3.591,0.853 5.191,0.299 -0.661,0.876 -1.343,1.41 -2.961,1.001"
   id="path97" />
                        <path
   d="m 144.823,149.9 c -0.257,-2.328 -0.572,-4.649 -0.887,-6.949 -0.395,-2.895 -0.83,-5.786 -1.28,-8.673 -0.328,-2.109 -0.333,-4.874 -1.63,-6.672 -0.889,-1.234 -2.313,-1.854 -3.675,-2.424 -2.503,-1.045 -5.098,-1.85 -7.708,-2.575 -4.368,-1.214 -8.926,-2.15 -13.218,-3.683 1.64,-0.472 3.115,-1.3 3.927,-2.914 0.003,-0.004 0.004,-0.009 0.006,-0.014 1.271,-0.861 2.371,-1.987 3.297,-3.272 8.122,0.499 9.08,-10.051 9.452,-15.864 0.596,-9.322 0.912,-18.792 -0.961,-27.999 -1.536,-7.548 -4.6,-14.884 -9.682,-20.743 -2.503,-2.885 -5.529,-5.542 -9.147,-6.906 -4.038,-1.521 -8.51,-1.478 -12.748,-1.122 -8.514,0.716 -17.863,3.546 -22.954,10.892 -0.07,-0.007 -0.144,0.003 -0.208,0.045 -4.757,3.037 -6.283,10.347 -7.644,15.397 -1.856,6.885 -3.066,13.992 -3.089,21.137 -0.022,6.892 1.063,13.847 3.612,20.269 1.645,4.143 4.82,10.602 10.374,8.432 0.084,-0.033 0.144,-0.082 0.195,-0.137 1.658,0.704 3.523,0.938 5.492,1 0.214,0.006 0.342,-0.122 0.389,-0.281 0.589,0.38 1.213,0.682 1.86,0.849 -4.502,0.675 -8.985,2.28 -13.344,3.495 -3.684,1.028 -8.755,1.708 -11.171,5.052 -2.381,3.298 -2.548,8.335 -3.169,12.205 -0.5,3.115 -0.974,6.278 -1.129,9.444 l -0.031,1.09 1.137,0.96 c 5.292,4.207 11.802,6.968 18.175,8.958 8.25,2.574 16.928,4.003 25.573,4.105 13.481,0.159 27.752,-3.161 39.008,-10.895 l 1.316,-0.912 z M 78.491,112.985 c -2.099,-2.442 -2.972,-5.363 -3.56,-8.456 -0.049,-0.263 -0.421,-0.177 -0.439,0.06 -0.27,3.324 1.077,6.675 3.19,9.205 0.588,0.703 1.24,1.253 1.938,1.693 -6.206,0.721 -8.823,-9.292 -9.979,-13.803 -1.479,-5.767 -1.913,-11.763 -1.573,-17.698 0.351,-6.131 1.53,-12.187 3.172,-18.097 0.77,-2.774 1.57,-5.597 2.736,-8.234 1.009,-2.284 2.457,-4.134 3.944,-6.116 0.018,-0.022 0.024,-0.046 0.034,-0.07 5.021,-5.479 11.521,-8.585 18.857,-9.72 3.976,-0.616 8.193,-0.943 12.193,-0.355 4.223,0.62 7.718,2.659 10.741,5.631 10.781,10.599 12.847,26.619 12.494,41.01 -0.107,4.378 -0.284,8.803 -0.739,13.162 -0.47,4.505 -2.327,9.593 -7.168,10.49 1.334,-2.171 2.229,-4.652 2.627,-7.005 0.05,-0.302 -0.364,-0.426 -0.464,-0.128 -1.202,3.597 -3.064,6.338 -5.261,9.159 0.667,-2.276 0.949,-4.834 1.3,-7.006 0.049,-0.298 -0.357,-0.421 -0.457,-0.126 -0.711,2.095 -1.303,4.228 -1.875,6.365 -0.784,2.928 -1.974,4.441 -4.994,5.078 -0.189,0.04 -0.307,0.144 -0.369,0.273 -1.123,-1.374 -2.26,-2.739 -3.445,-4.06 -0.74,-0.826 -1.446,-1.804 -2.521,-2.131 0.016,-0.426 0.026,-0.854 0.014,-1.279 6.992,-1.159 11.132,-6.042 12.926,-12.66 2.023,-7.457 3.271,-16.044 2.488,-23.795 0.552,-0.085 1.059,-0.284 1.483,-0.645 0.286,-0.245 -0.025,-0.679 -0.35,-0.6 -2.536,0.618 -5.976,-1.209 -8.112,-2.458 -2.492,-1.457 -5.107,-3.483 -5.596,-6.488 -0.049,-0.458 -0.095,-0.916 -0.127,-1.38 -0.032,-0.456 -0.68,-0.458 -0.711,0 -0.258,3.935 1.037,7.701 3.067,11.014 -6.009,-2.235 -13.82,-6.398 -14.781,-13.093 -0.031,-0.217 -0.395,-0.21 -0.432,0 -0.227,1.256 0.024,2.452 0.548,3.57 0.022,4.493 2.825,8.499 6.459,10.981 -1.144,0.187 -2.309,0.353 -3.481,0.477 -4.839,-2.251 -9.053,-8.205 -10.208,-13.357 -0.056,-0.252 -0.495,-0.202 -0.459,0.062 0.481,3.583 2.346,6.533 4.438,9.408 1.041,1.432 2.319,3.173 3.95,4.057 -2.626,0.123 -5.25,-0.055 -7.728,-0.862 -2.949,-0.96 -4.497,-2.706 -5.783,-5.445 -1.027,-2.188 -1.914,-4.44 -2.73,-6.715 -0.105,-0.292 -0.566,-0.345 -0.648,0 -1.039,4.387 -0.362,9.007 3.124,11.866 -0.823,0.013 -1.645,0.033 -2.456,-0.028 -2.056,-0.154 -3.181,-0.94 -4.289,-2.625 -1.511,-2.299 -2.112,-4.93 -2.447,-7.625 -0.031,-0.249 -0.45,-0.374 -0.492,-0.067 -0.292,2.166 0.066,4.353 0.924,6.339 -0.265,4.736 0.601,9.784 1.142,14.462 0.495,4.283 0.98,8.642 2.092,12.816 0.971,3.647 2.527,7.168 5.086,9.988 1.198,1.32 2.71,2.725 4.369,3.447 1.437,0.625 2.975,0.576 4.506,0.698 -0.013,0.068 -0.012,0.138 -0.022,0.206 -0.013,0.007 -0.026,0.008 -0.039,0.017 -1.744,1.183 -3.281,2.761 -4.703,4.42 -2.044,-0.719 -3.568,-1.555 -5.13,-3.177 -1.412,-1.464 -2.593,-3.14 -3.448,-4.989 -0.118,-0.255 -0.559,-0.073 -0.458,0.193 0.828,2.195 1.908,4.252 3.517,5.983 0.377,0.407 0.813,0.83 1.288,1.229 -2.712,-0.733 -5.123,-0.68 -7.173,-3.066 m 22.447,22.444 c -0.058,-0.008 -0.118,-0.012 -0.174,-0.027 -0.185,-0.046 -0.356,-0.128 -0.527,-0.213 -0.033,-0.121 -0.11,-0.229 -0.244,-0.272 -4.596,-1.494 -8.776,-3.647 -11.856,-7.48 -1.218,-1.516 -1.938,-3.343 -1.02,-5.175 0.63,-1.259 2.023,-2.566 2.95,-3.657 1.438,-1.692 3.068,-3.256 4.446,-5 -0.048,1.359 0.113,2.732 0.204,4.09 0.064,0.957 0.089,1.93 0.161,2.895 -0.17,-0.354 -0.338,-0.71 -0.516,-1.061 -0.131,-0.262 -0.493,-0.07 -0.446,0.187 0.542,2.905 1.972,5.716 3.556,8.184 0.781,1.217 2.436,4.26 4.066,4.99 -0.07,0.126 -0.146,0.245 -0.205,0.383 -0.275,0.639 -0.51,1.439 -0.395,2.156 m 0.095,-4.693 c -0.422,-0.491 -0.822,-0.994 -1.215,-1.508 -0.8,-1.048 -1.546,-2.132 -2.223,-3.263 -0.576,-0.963 -1.078,-1.956 -1.561,-2.959 0.188,-1.892 -0.09,-3.855 -0.219,-5.746 -0.118,-1.729 -0.129,-3.498 -0.664,-5.154 0.122,-0.143 0.079,-0.427 -0.135,-0.505 -1.944,-0.707 -3.806,-0.729 -5.57,-1.945 -1.815,-1.253 -3.399,-3.062 -4.576,-4.905 -1.955,-3.062 -2.959,-6.613 -3.639,-10.151 -0.774,-4.032 -1.214,-8.13 -1.686,-12.207 -0.362,-3.133 -0.463,-6.417 -0.963,-9.575 0.125,0.186 0.243,0.376 0.377,0.556 2.26,3.026 5.277,2.588 8.736,2.334 0.441,-0.031 0.669,-0.634 0.237,-0.875 -3.773,-2.102 -4.92,-6.186 -4.448,-10.196 1.1,4.272 2.814,9.088 6.97,10.941 5.227,2.329 11.147,1.458 16.546,0.334 0.35,-0.073 0.412,-0.602 0.101,-0.765 -3.725,-1.955 -5.79,-5.279 -6.751,-9.111 1.094,1.459 2.538,2.735 3.784,3.763 3.147,2.597 6.93,4.648 10.939,5.508 0.533,0.114 0.814,-0.463 0.502,-0.861 -1.481,-1.877 -2.432,-3.918 -3.05,-6.078 1.012,1.269 2.436,2.305 3.815,3.15 1.623,0.995 4.774,2.876 7.254,2.907 -0.738,7.106 -1,14.174 -2.555,21.194 -0.737,3.325 -1.739,6.722 -3.931,9.406 -2.245,2.75 -5.261,3.579 -8.314,5.005 -0.142,-0.167 -0.439,-0.165 -0.516,0.1 -0.574,1.979 -0.684,4.076 -0.886,6.121 -0.179,1.808 -0.501,3.665 -0.309,5.478 -0.035,0.616 -0.105,1.268 0.065,1.853 0.002,0.006 0.007,0.008 0.009,0.014 -0.203,0.396 -0.395,0.797 -0.605,1.189 -0.616,1.146 -1.261,2.276 -1.93,3.393 -0.508,0.849 -1.36,2.922 -2.312,3.205 -0.765,0.224 -0.73,-0.01 -1.277,-0.647 m 1.138,3.039 c 0.099,-0.267 0.238,-0.525 0.39,-0.778 0.45,-0.116 0.651,-0.457 0.992,-0.928 1.009,-1.392 1.867,-2.948 2.714,-4.441 1.659,-2.928 3.207,-5.937 4.388,-9.092 0.176,-0.469 -0.588,-0.791 -0.812,-0.343 -0.657,1.322 -1.301,2.649 -1.957,3.972 -0.004,-0.178 -0.007,-0.354 -0.009,-0.526 0.421,-1.587 0.444,-3.299 0.594,-4.924 0.115,-1.237 0.264,-2.483 0.349,-3.73 1.378,1.531 2.679,3.146 3.998,4.727 0.868,1.042 2.089,2.181 2.743,3.369 0.717,1.299 0.88,2.197 0.185,3.458 -0.42,0.759 -0.945,1.456 -1.508,2.114 -3.413,3.988 -7.862,6.372 -12.32,8.913 -0.016,-0.005 -0.03,-0.013 -0.047,-0.018 0.084,-0.593 0.081,-1.192 0.3,-1.773 m 32.081,21.974 c 0.247,-2.957 0.192,-5.942 0.44,-8.905 0.284,-3.39 0.691,-6.777 1.163,-10.146 0.055,-0.389 -0.513,-0.575 -0.609,-0.167 -1.468,6.225 -2.579,13.213 -1.927,19.617 -9.086,3.895 -18.902,5.823 -29.137,5.642 -11.321,-0.2 -22.377,-2.547 -32.515,-7.146 0.184,-2.747 -0.466,-5.642 -0.853,-8.335 -0.518,-3.606 -1.105,-7.189 -1.888,-10.749 -0.077,-0.347 -0.677,-0.279 -0.634,0.086 0.409,3.453 0.9,6.894 1.342,10.343 0.342,2.661 0.383,5.575 1.07,8.216 -3.349,-1.576 -6.594,-3.397 -9.71,-5.476 0.274,-3.168 0.594,-6.326 1.093,-9.482 0.6,-3.798 0.74,-8.996 3.042,-12.199 2.437,-3.393 8.444,-4.036 12.236,-5.096 3.586,-1.002 7.39,-1.801 10.886,-3.165 -0.353,0.443 -0.7,0.883 -1.04,1.314 -1.842,2.339 -2.911,3.895 -1.115,6.614 3.003,4.553 8.013,8.134 13.461,8.899 0.548,0.525 1.549,0.889 2.219,0.692 0.09,0.068 0.198,0.115 0.329,0.092 3.206,-0.582 6.116,-2.822 8.603,-4.815 2.467,-1.976 5.099,-4.194 6.441,-7.134 0.878,-1.923 0.24,-3.05 -0.819,-4.352 3.187,1.403 6.767,2.112 10.068,2.981 2.21,0.583 4.419,1.176 6.593,1.882 2.189,0.712 5.779,1.481 7.102,3.555 1.167,1.827 1.082,4.944 1.404,7.032 0.376,2.432 0.741,4.866 1.078,7.304 0.365,2.634 0.653,5.273 0.929,7.915 -2.982,1.903 -6.071,3.565 -9.252,4.983"
   id="path99" />
                        <path
   d="m 73.544,74.365 c -0.031,-0.393 -0.611,-0.403 -0.62,0 -0.056,2.771 -0.05,5.551 -0.056,8.324 0,0.33 0.466,0.313 0.501,0 0.303,-2.75 0.388,-5.565 0.175,-8.324"
   id="path101" />
                        <path
   d="m 73.587,85.89 c 0.035,-0.425 -0.598,-0.404 -0.653,0 -0.705,5.374 -0.134,11.089 2.354,15.963 0.135,0.265 0.572,0.082 0.481,-0.203 -1.657,-5.207 -2.642,-10.271 -2.182,-15.76"
   id="path103" />
                        <path
   d="m 76.718,92.537 c -0.061,-0.326 -0.548,-0.186 -0.496,0.136 0.317,1.924 0.671,3.958 1.431,5.762 0.125,0.296 0.572,0.196 0.495,-0.137 -0.446,-1.932 -1.066,-3.803 -1.43,-5.761"
   id="path105" />
                        <path
   d="m 128.393,78.368 c -0.036,-0.349 -0.581,-0.358 -0.553,0 0.522,7.023 -0.54,13.614 -2.184,20.417 -0.085,0.352 0.408,0.474 0.534,0.147 2.463,-6.451 2.897,-13.751 2.203,-20.564"
   id="path107" />
                        <path
   d="m 129.078,69.724 c -0.007,-0.381 -0.586,-0.382 -0.593,0 -0.023,1.183 -0.132,2.417 0.045,3.59 0.038,0.247 0.464,0.249 0.503,0 0.177,-1.173 0.068,-2.408 0.045,-3.59"
   id="path109" />
                        <path
   d="m 80.877,50.947 c -1.218,2.311 -2.399,5.236 -2.07,7.896 0.031,0.255 0.39,0.344 0.472,0.064 0.755,-2.601 1.033,-5.107 2.185,-7.618 0.179,-0.389 -0.379,-0.733 -0.587,-0.342"
   id="path111" />
                        <path
   d="m 85.135,50.999 c -0.716,1.636 -1.66,3.85 -1.285,5.667 0.057,0.271 0.415,0.215 0.496,0 0.326,-0.861 0.332,-1.843 0.533,-2.745 0.204,-0.917 0.486,-1.806 0.828,-2.681 0.128,-0.327 -0.429,-0.565 -0.572,-0.241"
   id="path113" />
                        <path
   d="m 88.162,51.317 c -0.043,0.432 -0.086,0.861 -0.13,1.293 -0.037,0.384 -0.156,0.811 -0.016,1.176 0.076,0.194 0.354,0.27 0.471,0.061 0.193,-0.349 0.143,-0.753 0.158,-1.145 0.017,-0.462 0.035,-0.923 0.051,-1.385 0.011,-0.348 -0.501,-0.336 -0.534,0"
   id="path115" />
                    </g>
                </g>
            </g>
        </g></g>
    </g>
    </svg>
