<?xml version="1.0" encoding="UTF-8" standalone="no"?>
<!-- Generator: Adobe Illustrator 27.5.0, SVG Export Plug-In . SVG Version: 6.00 Build 0)  -->

<svg
   version="1.1"
   x="0px"
   y="0px"
   viewBox="0 0 500 500"
   style="enable-background:new 0 0 500 500;"
   xml:space="preserve"
   id="svg694"
   sodipodi:docname="person4.svg"
   inkscape:version="1.2.2 (b0a8486541, 2022-12-01)"
   xmlns:inkscape="http://www.inkscape.org/namespaces/inkscape"
   xmlns:sodipodi="http://sodipodi.sourceforge.net/DTD/sodipodi-0.dtd"
   xmlns:xlink="http://www.w3.org/1999/xlink"
   xmlns="http://www.w3.org/2000/svg"
   xmlns:svg="http://www.w3.org/2000/svg"><defs
   id="defs698" /><sodipodi:namedview
   id="namedview696"
   pagecolor="#ffffff"
   bordercolor="#000000"
   borderopacity="0.25"
   inkscape:showpageshadow="2"
   inkscape:pageopacity="0.0"
   inkscape:pagecheckerboard="0"
   inkscape:deskcolor="#d1d1d1"
   showgrid="false"
   inkscape:zoom="0.771"
   inkscape:cx="170.55772"
   inkscape:cy="517.50973"
   inkscape:window-width="1920"
   inkscape:window-height="972"
   inkscape:window-x="0"
   inkscape:window-y="0"
   inkscape:window-maximized="1"
   inkscape:current-layer="svg694" />
<g
   id="Background">
</g>
<g
   id="Objects"
   transform="matrix(3.6085515,0,0,3.6085515,-647.68222,-1162.5352)">
    <g
   id="g691"><g
     id="g689">
        <path
   style="fill:#6ff757"
   d="m 317.828,391.156 c 0,38.174 -30.945,69.121 -69.12,69.121 -38.173,0 -69.12,-30.947 -69.12,-69.121 0,-38.174 30.947,-69.119 69.12,-69.119 38.175,0 69.12,30.945 69.12,69.119 z"
   id="path594" />
        <g
   id="g687">
            <defs
   id="defs597">
                <path
   id="SVGID_00000166665742956536960770000004827171950430436481_"
   d="m 317.828,391.156 c 0,38.174 -30.945,69.121 -69.12,69.121 -38.173,0 -69.12,-30.947 -69.12,-69.121 0,-38.174 30.947,-69.119 69.12,-69.119 38.175,0 69.12,30.945 69.12,69.119 z" />
            </defs>
            <clipPath
   id="SVGID_00000033337056078035966800000011635190458111549588_">
                <use
   xlink:href="#SVGID_00000166665742956536960770000004827171950430436481_"
   style="overflow:visible"
   id="use599" />
            </clipPath>
            <g
   clip-path="url(#SVGID_00000033337056078035966800000011635190458111549588_)"
   id="g685">
                <g
   id="g668">
                    <g
   id="g652">
                        <path
   style="fill:#f4a076"
   d="m 245.262,419.658 c 1.691,0.717 3.374,0.067 4.965,-0.745 2.277,-1.162 3.976,-2.963 5.291,-5.101 -0.327,-0.088 -0.658,-0.165 -0.983,-0.258 l -0.944,-0.271 0.006,-0.818 c 0.009,-0.295 0.02,-0.592 0.025,-0.883 0.023,-1.033 -0.024,-2.123 0.217,-3.135 -0.325,-0.068 -0.416,-0.578 -0.027,-0.691 4.591,-1.329 8.866,-2.922 11.516,-7.162 2.281,-3.65 3.483,-8.103 4.488,-12.249 2.227,-9.194 2.456,-18.474 2.552,-27.872 -1.296,0.385 -2.661,0.487 -4.032,0.535 -1.795,0.063 -3.573,0.186 -5.357,0.305 0.75,0.723 1.238,1.807 1.379,2.754 0.029,0.202 -0.218,0.42 -0.386,0.226 -1.005,-1.165 -2.295,-2.97 -4.033,-2.142 -1.198,0.571 -2.061,1.684 -3.192,2.374 -0.302,0.184 -0.531,-0.214 -0.348,-0.45 0.68,-0.88 1.48,-1.97 2.456,-2.714 -3.183,-0.256 -6.423,-1.184 -9.344,-2.197 -6.381,-2.209 -12.215,-6.157 -15.422,-12.136 -2.413,1.943 -4.926,3.547 -6.935,5.98 -1.776,2.151 -2.86,4.511 -3.995,6.947 0.124,5.146 -0.38,10.309 -0.276,15.461 0.111,5.678 0.67,11.38 2.15,16.877 1.525,5.662 3.782,10.666 9.335,13.313 5.199,2.479 10.852,2.943 16.519,2.326 0.291,-0.032 0.334,0.426 0.066,0.497 -2.281,0.605 -4.62,0.812 -6.948,0.705 0.188,0.921 0.126,1.905 0.143,2.841 0.007,0.4 0.005,0.801 0.005,1.204 l 0.004,0.773 -0.858,0.293 c -0.081,0.025 -0.163,0.052 -0.245,0.078 -0.051,2.179 -0.096,4.361 2.208,5.335 z m 14.995,-44.309 c -0.272,0.635 -0.675,1.486 -1.458,1.573 -0.696,0.075 -1.259,-0.483 -1.445,-1.111 -0.256,-0.872 -0.209,-2.492 0.42,-3.438 0.344,-0.994 1.066,-1.832 2.215,-1.404 0.425,0.158 0.666,0.487 0.79,0.895 0.145,-0.101 0.292,-0.2 0.426,-0.318 0.32,-0.286 0.654,-0.645 0.866,-1.021 0.112,-0.194 0.389,-0.022 0.296,0.174 -0.307,0.663 -0.791,1.46 -1.489,1.803 0.039,1.013 -0.357,2.23 -0.621,2.847 z m -30.189,-10.68 c 0.69,-1.619 2.686,-4.655 4.817,-4.151 1.901,0.45 3.375,2.923 3.675,4.68 0.042,0.242 -0.256,0.379 -0.397,0.167 -0.854,-1.282 -2.172,-4.204 -4.04,-3.436 -1.473,0.603 -2.251,2.315 -3.626,3.168 -0.294,0.181 -0.54,-0.166 -0.429,-0.428 z m 4.724,12.253 c -0.697,0.075 -1.26,-0.483 -1.444,-1.111 -0.228,-0.774 -0.213,-2.134 0.231,-3.093 -0.656,-0.394 -1.127,-1.555 -0.907,-2.219 0.03,-0.092 0.153,-0.112 0.205,-0.025 0.203,0.331 0.299,0.723 0.491,1.065 0.128,0.229 0.321,0.418 0.484,0.62 0.37,-0.896 1.063,-1.587 2.128,-1.19 1.544,0.574 0.717,3.338 0.269,4.38 -0.272,0.634 -0.674,1.486 -1.457,1.573 z m 1.727,3.721 c -0.166,-0.014 -0.227,-0.273 -0.042,-0.312 3.52,-0.717 7.806,-2.094 7.865,-6.51 0.055,-4.207 -4.319,-6.315 -7.932,-6.425 -3.313,-0.101 -7.539,0.639 -9.46,3.657 -2.497,3.925 0.19,7.837 4.094,9.044 0.119,0.036 0.1,0.226 -0.031,0.222 -4.039,-0.145 -6.764,-4.561 -5.447,-8.331 1.488,-4.265 6.813,-5.69 10.843,-5.585 3.705,0.098 8.158,2.087 8.801,6.041 0.728,-0.606 1.843,-0.963 2.599,-0.959 0.927,0.008 1.957,0.543 2.502,1.35 0.056,-0.285 0.123,-0.567 0.222,-0.847 1.488,-4.265 6.812,-5.69 10.843,-5.585 4.016,0.105 8.922,2.431 8.888,7.075 -0.03,4.432 -4.625,7.513 -8.777,7.164 -0.169,-0.014 -0.229,-0.273 -0.043,-0.312 3.52,-0.717 7.806,-2.094 7.863,-6.51 0.058,-4.207 -4.317,-6.315 -7.931,-6.425 -3.314,-0.101 -7.538,0.639 -9.46,3.657 -2.497,3.925 0.189,7.837 4.095,9.044 0.118,0.036 0.1,0.226 -0.03,0.222 -3.401,-0.12 -5.86,-3.274 -5.77,-6.518 -0.746,-0.677 -1.474,-1.213 -2.559,-1.192 -0.866,0.016 -1.617,0.471 -2.356,0.887 -0.044,4.424 -4.629,7.496 -8.777,7.148 z m 11.575,9.297 c 0.196,0.088 0.141,0.416 -0.06,0.459 -1.293,0.272 -3.265,-0.647 -3.848,-1.877 -0.33,-0.698 -0.075,-1.354 0.235,-1.996 0.525,-1.099 1.172,-2.331 1.885,-3.313 0.1,-0.139 0.343,-0.06 0.29,0.121 -0.383,1.306 -1.354,2.51 -1.506,3.871 -0.157,1.417 1.912,2.243 3.004,2.735 z m -5.163,6.971 c -0.136,-0.06 -0.063,-0.272 0.074,-0.27 2.072,0.021 4.085,0.156 6.124,-0.351 1.627,-0.402 3.068,-1.264 4.636,-1.824 0.364,-0.132 0.499,0.378 0.241,0.57 -3.029,2.27 -7.498,3.514 -11.075,1.875 z"
   id="path602" />
                        <path
   style="fill:#d3745e"
   d="m 262.63,362.808 c -0.758,-0.697 -1.643,-1.156 -2.691,-0.657 -0.252,0.121 -0.485,0.275 -0.715,0.437 1.134,0.068 2.27,0.14 3.406,0.22 z"
   id="path604" />
                        <path
   style="fill:#d3745e"
   d="m 264.421,362.951 c 3.13,0.273 5.785,0.608 7.694,3.399 0.052,0.075 0.098,0.154 0.146,0.23 0.054,-2.032 0.085,-4.066 0.105,-6.107 -1.296,0.385 -2.661,0.487 -4.032,0.535 -1.795,0.063 -3.573,0.186 -5.357,0.305 0.454,0.44 0.799,1.014 1.042,1.606 0.135,0.011 0.269,0.021 0.402,0.032 z"
   id="path606" />
                        <path
   style="fill:#d3745e"
   d="m 253.61,411.989 c 0.005,-0.137 0.009,-0.273 0.012,-0.407 0.023,-1.033 -0.024,-2.123 0.217,-3.135 -0.325,-0.068 -0.416,-0.578 -0.027,-0.691 1.747,-0.506 3.449,-1.052 5.033,-1.765 -2.591,0.769 -5.198,1.454 -7.849,1.975 0.177,0.087 0.183,0.404 -0.043,0.464 -2.281,0.605 -4.62,0.812 -6.948,0.705 0.188,0.921 0.126,1.905 0.143,2.841 0.007,0.4 0.005,0.801 0.005,1.204 l 0.004,0.773 -0.858,0.293 c -0.081,0.025 -0.163,0.052 -0.245,0.078 -0.003,0.114 -0.006,0.227 -0.008,0.342 3.628,0.208 7.311,-0.816 10.564,-2.677 z"
   id="path608" />
                        <path
   style="fill:#f4b19a"
   d="m 261.377,367.397 c -3.314,-0.101 -7.538,0.639 -9.46,3.657 -2.259,3.553 -0.27,7.086 3.024,8.622 2.157,0.56 4.298,0.874 6.462,0.684 0.015,-0.01 0.022,-0.024 0.041,-0.028 3.52,-0.717 7.806,-2.094 7.863,-6.51 0.058,-4.208 -4.317,-6.316 -7.93,-6.425 z m 0.989,3.302 c -0.307,0.663 -0.791,1.46 -1.489,1.803 0.04,1.013 -0.356,2.23 -0.62,2.847 -0.272,0.635 -0.675,1.486 -1.458,1.573 -0.696,0.075 -1.259,-0.483 -1.445,-1.111 -0.256,-0.872 -0.209,-2.492 0.42,-3.438 0.344,-0.994 1.066,-1.832 2.215,-1.404 0.425,0.158 0.666,0.487 0.79,0.895 0.145,-0.101 0.292,-0.2 0.426,-0.318 0.32,-0.286 0.654,-0.645 0.866,-1.021 0.112,-0.194 0.388,-0.022 0.295,0.174 z"
   id="path610" />
                        <path
   style="fill:#f4b19a"
   d="m 236.41,367.397 c -3.313,-0.101 -7.539,0.639 -9.46,3.657 -2.497,3.925 0.19,7.837 4.094,9.044 0.068,0.021 0.087,0.091 0.068,0.146 1.667,0.513 3.488,0.555 5.289,0.321 -0.057,-0.085 -0.05,-0.208 0.075,-0.234 3.52,-0.717 7.806,-2.094 7.865,-6.51 0.055,-4.207 -4.318,-6.315 -7.931,-6.424 z m -0.16,7.952 c -0.273,0.635 -0.675,1.486 -1.458,1.573 -0.697,0.075 -1.26,-0.483 -1.444,-1.111 -0.228,-0.774 -0.213,-2.134 0.231,-3.093 -0.656,-0.394 -1.127,-1.555 -0.907,-2.219 0.03,-0.092 0.153,-0.112 0.205,-0.025 0.203,0.331 0.299,0.723 0.491,1.065 0.128,0.229 0.321,0.418 0.484,0.62 0.37,-0.896 1.063,-1.587 2.128,-1.19 1.545,0.574 0.719,3.338 0.27,4.38 z"
   id="path612" />
                        <path
   style="fill:#f4a076"
   d="m 253.693,413.314 c -3.306,1.782 -6.999,2.749 -10.641,2.564 0.066,1.601 0.46,3.04 2.21,3.781 1.691,0.717 3.374,0.067 4.965,-0.745 2.277,-1.162 3.976,-2.963 5.291,-5.101 -0.327,-0.088 -0.658,-0.165 -0.983,-0.258 z"
   id="path614" />
                        <path
   style="fill:#d3745e"
   d="m 226.39,357.461 c 2.77,-2.1 5.593,-2.729 8.873,-1.289 4.715,2.072 8.908,4.555 14.079,5.435 2.768,0.471 5.551,0.696 8.34,0.878 0.361,-0.407 0.747,-0.801 1.172,-1.125 -3.183,-0.256 -6.423,-1.184 -9.344,-2.197 -6.381,-2.209 -12.215,-6.157 -15.422,-12.136 -2.413,1.943 -4.926,3.547 -6.935,5.98 -1.776,2.151 -2.86,4.511 -3.995,6.947 0.002,0.048 0.001,0.092 0.002,0.139 1.032,-0.949 2.15,-1.814 3.23,-2.632 z"
   id="path616" />
                        <path
   style="fill:#ffffff"
   d="m 258.95,372.021 c -0.104,0.116 -0.183,0.24 -0.262,0.364 -0.065,0.111 -0.108,0.212 -0.146,0.302 -0.02,0.495 -0.047,1.309 0.506,1.547 0.188,0.081 0.462,0.016 0.658,0.079 0.223,-0.664 0.443,-1.553 0.231,-2.117 -0.27,-0.715 -0.671,-0.536 -0.987,-0.175 z"
   id="path618" />
                        <path
   style="fill:#ffffff"
   d="m 234.943,372.021 c -0.104,0.116 -0.183,0.24 -0.261,0.364 -0.066,0.111 -0.109,0.212 -0.146,0.302 -0.02,0.495 -0.047,1.309 0.506,1.547 0.187,0.081 0.461,0.016 0.658,0.079 0.223,-0.664 0.444,-1.553 0.231,-2.117 -0.27,-0.715 -0.672,-0.536 -0.988,-0.175 z"
   id="path620" />
                        <path
   style="fill:#f9da55"
   d="m 248.995,420.793 c 1.136,0.385 2.168,1.101 3.09,1.866 1.604,1.33 3.225,2.914 4.492,4.599 0.906,-1.915 1.965,-3.717 2.644,-5.747 0.71,-2.12 1.028,-4.271 1.22,-6.49 -1.372,-0.321 -2.741,-0.643 -4.102,-0.994 -1.396,3.074 -4.11,5.683 -7.344,6.766 z"
   id="path622" />
                        <path
   style="fill:#de953d"
   d="m 234.586,406.89 c -5.004,-2.213 -7.811,-5.919 -9.577,-11.003 -2.086,-5.999 -2.916,-12.371 -3.123,-18.695 -0.167,-5.113 -0.149,-10.393 0.462,-15.522 -0.015,0.032 -0.03,0.064 -0.045,0.096 -0.107,0.218 -0.491,0.118 -0.467,-0.125 0.574,-5.955 6.18,-13.254 11.916,-15.246 -0.195,-0.396 -0.381,-0.799 -0.554,-1.211 -0.105,-0.254 0.31,-0.413 0.434,-0.183 3.608,6.627 9.882,11 16.967,13.296 3.621,1.174 7.611,2.186 11.435,1.905 3.856,-0.281 7.751,-0.147 11.512,-1.113 0.463,-0.117 0.766,0.553 0.329,0.781 -0.272,0.145 -0.552,0.265 -0.833,0.373 0.768,10.285 -0.092,21.034 -2.888,30.97 -1.153,4.099 -2.523,8.54 -5.314,11.853 -2.667,3.165 -6.488,4.428 -10.398,5.284 0.129,0.568 0.16,1.161 0.161,1.755 3.232,-0.313 6.54,-0.109 9.789,-0.347 3.466,-0.249 6.916,-0.699 10.33,-1.341 1.673,-0.315 3.324,-0.685 4.961,-1.099 0.027,-0.107 0.058,-0.216 0.084,-0.322 -0.011,-0.057 -0.012,-0.119 0.011,-0.188 0.068,-0.226 0.121,-0.455 0.184,-0.682 0.081,-0.354 0.171,-0.709 0.239,-1.067 0.343,-1.782 0.561,-3.58 0.793,-5.377 0.137,-2.114 0.126,-4.247 0.074,-6.375 -0.11,-4.531 -0.232,-9.064 -0.351,-13.598 -0.375,-14.561 1.309,-34.565 -12.773,-43.679 -5.858,-3.792 -13.111,-4.833 -19.968,-4.471 -6.728,0.354 -13.709,2.018 -19.341,5.855 0.081,0.1 0.105,0.249 -0.002,0.353 -8.777,8.411 -11.729,20.354 -14.469,31.779 -1.511,6.31 -2.283,12.705 -2.45,19.188 -0.158,6.109 0.386,12.195 0.377,18.297 4.69,1.926 10.432,2.211 15.413,2.792 5.217,0.608 10.45,0.953 15.698,1.148 -0.018,-0.632 -0.02,-1.27 0.089,-1.88 -2.988,-0.226 -5.942,-0.981 -8.705,-2.201 z"
   id="path624" />
                        <path
   style="fill:#b2642f"
   d="m 234.586,406.89 c -5.004,-2.213 -7.811,-5.919 -9.577,-11.003 -2.086,-5.999 -2.916,-12.371 -3.123,-18.695 -0.167,-5.113 -0.149,-10.393 0.462,-15.522 -0.015,0.032 -0.03,0.064 -0.045,0.096 -0.107,0.218 -0.491,0.118 -0.467,-0.125 0.283,-2.942 1.799,-6.213 3.95,-9.01 -1.181,0.719 -2.419,1.309 -3.822,1.518 -0.449,0.067 -0.865,-0.257 -0.744,-0.742 0.329,-1.316 0.816,-2.575 1.163,-3.879 -1.038,0.574 -1.966,1.306 -2.863,2.082 -2.393,5.728 -3.909,11.902 -5.356,17.936 -1.511,6.31 -2.283,12.705 -2.45,19.188 -0.158,6.109 0.386,12.195 0.377,18.297 4.69,1.926 10.432,2.211 15.413,2.792 5.217,0.608 10.45,0.953 15.698,1.148 -0.018,-0.632 -0.02,-1.27 0.089,-1.88 -2.988,-0.226 -5.942,-0.981 -8.705,-2.201 z"
   id="path626" />
                        <path
   style="fill:#b2642f"
   d="m 280.717,379.708 c -0.207,-8.042 0.208,-17.742 -1.745,-26.354 -3.002,1.918 -7.038,1.785 -10.349,-0.433 0.081,0.477 0.151,0.953 0.197,1.444 0.023,0.25 -0.2,0.536 -0.444,0.583 -3.463,0.674 -7.341,0.713 -10.656,-0.64 0.492,0.566 1,1.123 1.48,1.711 0.259,0.317 0.223,0.919 -0.268,1.009 -4.64,0.859 -9.764,0.335 -14.432,-1.367 1.928,1.067 3.975,1.945 6.098,2.634 3.621,1.174 7.611,2.186 11.435,1.905 3.856,-0.281 7.751,-0.147 11.512,-1.113 0.463,-0.117 0.766,0.553 0.329,0.781 -0.272,0.145 -0.552,0.265 -0.833,0.373 0.768,10.285 -0.092,21.034 -2.888,30.97 -1.153,4.099 -2.523,8.54 -5.314,11.853 -2.667,3.165 -6.488,4.428 -10.398,5.284 0.129,0.568 0.16,1.161 0.161,1.755 3.232,-0.313 6.54,-0.109 9.789,-0.347 3.466,-0.249 6.916,-0.699 10.33,-1.341 1.673,-0.315 3.324,-0.685 4.961,-1.099 0.027,-0.107 0.058,-0.216 0.084,-0.322 -0.011,-0.057 -0.012,-0.119 0.011,-0.188 0.068,-0.226 0.121,-0.455 0.184,-0.682 0.081,-0.354 0.171,-0.709 0.239,-1.067 0.343,-1.782 0.561,-3.58 0.793,-5.377 0.137,-2.114 0.126,-4.247 0.074,-6.375 -0.11,-4.531 -0.232,-9.064 -0.35,-13.597 z"
   id="path628" />
                        <path
   style="fill:#f9da55"
   d="m 236.919,429.758 c 2.521,-3.059 5.63,-6.369 8.982,-8.507 -3.033,-0.364 -4.465,-3.675 -3.724,-6.646 -1.348,0.426 -2.705,0.815 -4.065,1.191 -0.996,4.629 -1.525,9.245 -1.193,13.962 z"
   id="path630" />
                        <path
   style="fill:#f9da55"
   d="m 215.452,424.583 c -1.135,0.811 -2.206,1.706 -3.091,2.765 -1.746,2.086 -2.54,4.734 -3.188,7.327 -1.12,4.492 -1.898,9.058 -2.605,13.632 2.2,1.768 4.702,2.991 7.324,4.208 1.928,0.896 3.863,1.778 5.816,2.626 -1.005,-5.088 -1.101,-10.459 -1.823,-15.594 -0.701,-4.979 -1.915,-9.966 -2.433,-14.964 z"
   id="path632" />
                        <path
   style="fill:#7a5332"
   d="m 274.443,438.865 c 1.067,-5.994 2.477,-12.538 5.323,-17.99 -1.471,-0.648 -3.073,-1.098 -4.424,-1.579 -2.509,-0.893 -5.044,-1.699 -7.602,-2.441 -2.068,-0.601 -4.174,-1.102 -6.284,-1.597 -0.12,4.339 -1.491,9.442 -4.508,12.645 -0.04,0.241 -0.337,0.453 -0.564,0.281 -1.54,-1.159 -2.762,-2.671 -4.156,-3.992 -1.397,-1.322 -2.864,-2.206 -4.528,-3.054 -0.14,0.026 -0.278,0.059 -0.419,0.081 -0.02,0.001 -0.037,0.001 -0.056,0.003 -1.521,1.803 -3.445,3.288 -5.145,4.92 -1.768,1.697 -3.447,3.485 -5.21,5.188 -0.315,0.304 -0.793,0.069 -0.823,-0.341 -0.363,-5.006 -0.141,-10.063 1.122,-14.934 -6.532,1.773 -13.11,3.309 -19.072,6.819 -0.686,0.403 -1.369,0.839 -2.042,1.291 1.632,5.088 2.247,10.739 2.984,16.01 0.696,4.964 1.724,10.271 1.462,15.304 1.491,0.639 2.992,1.26 4.509,1.838 7.343,2.8 14.94,4.523 22.822,4.619 8.524,0.105 17.108,-1.3 25.3,-3.911 -0.643,-6.271 0.211,-12.98 1.311,-19.16 z"
   id="path634" />
                        <path
   style="fill:#49241a"
   d="m 270.6,417.727 c -0.95,-0.297 -1.901,-0.595 -2.858,-0.872 -2.068,-0.601 -4.174,-1.102 -6.284,-1.597 -0.046,1.686 -0.289,3.487 -0.738,5.25 3.392,-0.578 6.71,-1.459 9.88,-2.781 z"
   id="path636" />
                        <path
   style="fill:#49241a"
   d="m 272.984,450.689 c -6.664,4.37 -15.475,6.596 -22.348,7.093 -7.243,0.523 -15.246,-0.93 -21.497,-4.766 -5.122,-3.143 -7.38,-7.847 -10.064,-12.607 0.694,4.897 1.684,10.117 1.427,15.07 1.491,0.639 2.992,1.26 4.509,1.838 7.343,2.8 14.94,4.523 22.822,4.619 8.524,0.105 17.108,-1.3 25.3,-3.911 -0.245,-2.4 -0.271,-4.863 -0.149,-7.336 z"
   id="path638" />
                        <path
   style="fill:#49241a"
   d="m 231.418,421.18 c 1.584,0.163 3.172,0.252 4.76,0.318 0.206,-1.83 0.527,-3.65 0.992,-5.443 -4.267,1.157 -8.548,2.225 -12.668,3.796 2.278,0.752 4.743,1.105 6.916,1.329 z"
   id="path640" />
                        <path
   style="fill:#f9da55"
   d="m 285.959,431.179 c -0.606,-2.462 -1.192,-5.489 -2.623,-7.621 -0.697,-1.038 -1.743,-1.774 -2.911,-2.363 -1.652,5.864 -3.81,11.467 -4.914,17.506 -1.162,6.365 -1.195,12.604 -1.465,19.02 4.584,-1.516 9.043,-3.402 13.291,-5.619 0.363,-4.104 0.494,-8.201 0.091,-12.343 -0.283,-2.891 -0.778,-5.761 -1.469,-8.58 z"
   id="path642" />
                        <path
   style="fill:#de953d"
   d="m 259.235,421.461 c 0.698,-2.107 1.016,-4.239 1.205,-6.44 -1.372,-0.321 -2.741,-0.643 -4.102,-0.994 -1.396,3.074 -4.109,5.684 -7.344,6.767 0.887,0.3 1.709,0.805 2.465,1.375 2.625,0.016 5.223,-0.167 7.776,-0.708 z"
   id="path644" />
                        <path
   style="fill:#de953d"
   d="m 245.023,421.852 c 0.292,-0.206 0.583,-0.414 0.878,-0.601 -3.033,-0.364 -4.465,-3.675 -3.724,-6.646 -1.348,0.426 -2.705,0.815 -4.065,1.191 -0.398,1.843 -0.716,3.686 -0.94,5.534 2.617,0.097 5.239,0.323 7.851,0.522 z"
   id="path646" />
                        <path
   style="fill:#de953d"
   d="m 217.885,439.547 c -0.173,-1.227 -0.377,-2.454 -0.595,-3.683 -1.467,5.444 -5.434,10.343 -10.539,12.575 2.157,1.692 4.59,2.892 7.141,4.075 1.928,0.896 3.863,1.778 5.816,2.626 -1.005,-5.087 -1.101,-10.458 -1.823,-15.593 z"
   id="path648" />
                        <path
   style="fill:#de953d"
   d="m 281.118,450.972 c -2.349,-0.314 -5.85,-1.268 -6.477,-3.989 -0.034,-0.148 -0.055,-0.302 -0.083,-0.452 -0.272,3.71 -0.354,7.419 -0.513,11.189 4.584,-1.516 9.043,-3.402 13.291,-5.619 0.074,-0.833 0.13,-1.666 0.182,-2.496 -1.904,1.11 -4.066,1.676 -6.4,1.367 z"
   id="path650" />
                    </g>
                    <path
   style="fill:#f78484"
   d="m 235.163,383.832 c 0,1.281 -2.054,2.32 -4.59,2.32 -2.534,0 -4.589,-1.039 -4.589,-2.32 0,-1.28 2.056,-2.318 4.589,-2.318 2.535,0 4.59,1.038 4.59,2.318 z"
   id="path654" />
                    <path
   style="fill:#f78484"
   d="m 268.023,383.497 c 0,1.28 -2.056,2.319 -4.591,2.319 -2.534,0 -4.588,-1.039 -4.588,-2.319 0,-1.281 2.054,-2.318 4.588,-2.318 2.536,0 4.591,1.037 4.591,2.318 z"
   id="path656" />
                    <path
   style="fill:#ffffff"
   d="m 272.597,346.246 c -2.641,-5.529 -6.442,-9.561 -11.933,-12.332 -0.116,-0.06 -0.211,0.103 -0.101,0.174 3.079,2.023 6.482,5.163 8.565,8.682 -1.377,-1.196 -2.866,-2.25 -4.522,-2.957 -0.64,-0.272 -1.268,0.163 -1.141,0.875 0.195,1.083 0.96,1.981 1.506,2.91 0.528,0.897 -0.953,-0.22 -1.156,-0.337 -0.336,-0.192 -0.763,-0.382 -1.162,-0.382 -0.75,0 -1.203,0.449 -1.534,1.061 -0.374,0.691 -2.592,-0.298 -3.383,-0.159 -0.477,0.082 -0.355,0.703 0,0.846 1.232,0.493 2.407,1.746 3.794,0.933 0.449,-0.263 0.851,-1.379 1.518,-0.986 0.698,0.412 1.226,0.878 2.032,1.05 0.807,0.173 1.688,-0.501 1.779,-1.301 0.077,-0.685 -0.193,-1.247 -0.55,-1.782 1.787,1.375 3.163,3.286 4.794,4.855 0.811,0.778 1.948,-0.2 1.494,-1.15 z"
   id="path658" />
                    <path
   style="fill:#ffffff"
   d="m 256.501,345.111 c -0.125,-0.218 -0.32,-0.389 -0.467,-0.591 -0.167,-0.231 -0.297,-0.486 -0.417,-0.743 -0.291,-0.623 -1.346,-0.178 -1.111,0.467 0.214,0.589 0.987,2.444 1.91,1.842 0.353,-0.231 0.268,-0.656 0.085,-0.975 z"
   id="path660" />
                    <path
   style="fill:#ffffff"
   d="m 254.041,345.111 c -0.194,-0.368 -0.564,-0.631 -0.731,-1.01 -0.185,-0.42 -0.812,-0.182 -0.818,0.222 -0.006,0.435 -0.015,0.795 0.131,1.214 0.167,0.474 0.467,0.928 0.865,1.229 0.382,0.289 1,-0.101 0.967,-0.555 -0.031,-0.42 -0.221,-0.733 -0.414,-1.1 z"
   id="path662" />
                    <path
   style="fill:#ffffff"
   d="m 246.147,346.422 c -0.639,0.694 -2.264,-1.479 -3.468,-0.342 -0.653,0.617 -0.771,1.504 -0.7,2.416 -0.79,-0.823 -1.455,-1.801 -2.063,-2.705 -0.92,-1.369 -1.871,-2.758 -2.624,-4.226 -0.121,-0.237 -0.526,-0.071 -0.432,0.181 1.316,3.519 2.736,6.991 5.737,9.433 0.587,0.477 1.433,0.184 1.477,-0.613 0.045,-0.792 -0.266,-1.596 -0.463,-2.355 -0.109,-0.42 -0.19,-0.823 -0.232,-1.257 -0.083,-0.856 1.323,0.407 1.358,0.436 0.942,0.767 1.939,0.516 1.852,-0.784 -0.014,-0.214 -0.279,-0.362 -0.442,-0.184 z"
   id="path664" />
                    <path
   style="fill:#ffffff"
   d="m 248.85,345.929 c -0.344,-0.023 -0.683,0.151 -1.01,0.242 -0.392,0.108 -0.975,0.022 -1.316,-0.173 -0.147,-0.085 -0.291,0.109 -0.178,0.229 0.465,0.501 0.796,0.882 1.503,0.973 0.591,0.079 1.304,-0.314 1.316,-0.955 0.004,-0.181 -0.146,-0.305 -0.315,-0.316 z"
   id="path666" />
                </g>
                <g
   id="Atun">
                    <path
   d="m 248.094,389.94 c -1.092,-0.491 -3.161,-1.317 -3.004,-2.735 0.151,-1.361 1.123,-2.565 1.506,-3.871 0.054,-0.181 -0.189,-0.26 -0.29,-0.121 -0.712,0.982 -1.36,2.215 -1.885,3.313 -0.31,0.643 -0.564,1.298 -0.235,1.996 0.584,1.229 2.555,2.149 3.848,1.877 0.201,-0.044 0.256,-0.372 0.06,-0.459"
   id="path670" />
                    <path
   d="m 253.766,394.467 c -1.568,0.561 -3.009,1.422 -4.636,1.824 -2.039,0.507 -4.052,0.371 -6.124,0.351 -0.137,-0.002 -0.21,0.21 -0.074,0.27 3.577,1.639 8.045,0.395 11.076,-1.874 0.257,-0.193 0.122,-0.703 -0.242,-0.571"
   id="path672" />
                    <path
   d="m 234.885,360.518 c -2.132,-0.504 -4.127,2.532 -4.817,4.151 -0.11,0.262 0.135,0.609 0.429,0.428 1.375,-0.853 2.154,-2.565 3.626,-3.168 1.868,-0.769 3.186,2.153 4.04,3.436 0.142,0.212 0.439,0.075 0.397,-0.167 -0.3,-1.758 -1.774,-4.23 -3.675,-4.68"
   id="path674" />
                    <path
   d="m 235.981,370.969 c -1.065,-0.397 -1.758,0.295 -2.128,1.19 -0.164,-0.202 -0.356,-0.392 -0.484,-0.62 -0.192,-0.343 -0.289,-0.734 -0.491,-1.065 -0.052,-0.087 -0.175,-0.066 -0.205,0.025 -0.22,0.664 0.251,1.825 0.907,2.219 -0.444,0.959 -0.46,2.318 -0.231,3.093 0.185,0.628 0.747,1.187 1.444,1.111 0.783,-0.087 1.185,-0.939 1.458,-1.573 0.448,-1.042 1.274,-3.806 -0.27,-4.38 m -0.281,3.344 c -0.197,-0.064 -0.471,0.002 -0.658,-0.079 -0.553,-0.238 -0.526,-1.052 -0.506,-1.547 0.038,-0.09 0.081,-0.19 0.146,-0.302 0.078,-0.124 0.157,-0.248 0.261,-0.364 0.315,-0.36 0.717,-0.539 0.988,0.175 0.213,0.564 -0.008,1.452 -0.231,2.117"
   id="path676" />
                    <path
   d="m 262.07,370.525 c -0.212,0.376 -0.546,0.734 -0.866,1.021 -0.134,0.118 -0.281,0.218 -0.426,0.318 -0.124,-0.408 -0.365,-0.737 -0.79,-0.895 -1.149,-0.428 -1.871,0.41 -2.215,1.404 -0.629,0.945 -0.676,2.566 -0.42,3.438 0.187,0.628 0.749,1.187 1.445,1.111 0.783,-0.087 1.186,-0.939 1.458,-1.573 0.265,-0.616 0.66,-1.834 0.62,-2.847 0.698,-0.343 1.183,-1.14 1.489,-1.803 0.094,-0.196 -0.182,-0.368 -0.295,-0.174 m -2.364,3.788 c -0.196,-0.064 -0.471,0.002 -0.658,-0.079 -0.553,-0.238 -0.525,-1.052 -0.506,-1.547 0.038,-0.09 0.081,-0.19 0.146,-0.302 0.079,-0.124 0.157,-0.248 0.262,-0.364 0.315,-0.36 0.717,-0.539 0.987,0.175 0.212,0.564 -0.008,1.452 -0.231,2.117"
   id="path678" />
                    <path
   d="m 261.377,366.403 c -4.031,-0.104 -9.355,1.32 -10.843,5.585 -0.099,0.279 -0.167,0.561 -0.222,0.847 -0.545,-0.807 -1.575,-1.342 -2.502,-1.35 -0.756,-0.004 -1.872,0.352 -2.599,0.959 -0.643,-3.954 -5.096,-5.943 -8.801,-6.041 -4.03,-0.104 -9.355,1.32 -10.843,5.585 -1.316,3.77 1.409,8.186 5.447,8.331 0.13,0.004 0.149,-0.186 0.031,-0.222 -3.904,-1.207 -6.591,-5.119 -4.094,-9.044 1.921,-3.019 6.146,-3.758 9.46,-3.657 3.613,0.109 7.986,2.218 7.932,6.425 -0.059,4.416 -4.345,5.793 -7.865,6.51 -0.185,0.039 -0.124,0.298 0.042,0.312 4.148,0.349 8.733,-2.724 8.777,-7.147 0.739,-0.416 1.49,-0.871 2.356,-0.887 1.085,-0.021 1.814,0.516 2.559,1.192 -0.091,3.243 2.368,6.397 5.77,6.518 0.13,0.004 0.148,-0.186 0.03,-0.222 -3.905,-1.207 -6.591,-5.119 -4.095,-9.044 1.922,-3.019 6.146,-3.758 9.46,-3.657 3.613,0.109 7.988,2.218 7.931,6.425 -0.058,4.416 -4.344,5.793 -7.863,6.51 -0.185,0.039 -0.126,0.298 0.043,0.312 4.152,0.349 8.747,-2.732 8.777,-7.164 0.034,-4.645 -4.872,-6.97 -8.888,-7.076"
   id="path680" />
                    <path
   d="m 288.294,438.44 c -0.34,-2.827 -0.86,-5.633 -1.582,-8.386 -0.652,-2.481 -1.262,-5.548 -2.941,-7.58 -1.234,-1.495 -3.074,-2.238 -4.826,-2.942 -2.88,-1.165 -5.821,-2.171 -8.792,-3.074 -4.998,-1.522 -10.319,-3.129 -15.578,-3.869 0.002,-0.339 0.001,-0.676 0.005,-1.006 0.002,-0.206 0.008,-0.414 0.012,-0.623 6.262,1.03 13.418,-0.119 19.573,-1.26 1.733,-0.321 3.468,-0.688 5.192,-1.108 l 1.397,-0.362 0.297,-1.273 c 0.268,-1.275 0.465,-2.581 0.591,-3.877 0.478,-2.506 0.572,-5.065 0.546,-7.678 -0.049,-4.602 -0.22,-9.207 -0.334,-13.81 -0.226,-8.993 0.173,-18.309 -1.534,-27.18 -1.35,-7.025 -4.466,-13.946 -10.276,-18.374 -5.713,-4.355 -13.13,-5.88 -20.195,-5.754 -8.124,0.146 -16.524,2.052 -22.648,7.648 -0.107,0.099 -0.05,0.249 0.051,0.32 -8.502,7.305 -11.178,19.253 -13.775,29.712 -3.162,12.726 -3.792,26.495 -2.08,39.505 0.028,0.205 0.187,0.317 0.349,0.33 1.944,1.246 4.251,1.499 6.491,1.876 2.624,0.442 5.256,0.823 7.896,1.144 5.674,0.691 11.383,1.122 17.098,1.261 0.007,0.415 0.022,0.831 0.034,1.245 -4.696,0.847 -9.395,2.208 -13.918,3.62 -4.721,1.476 -9.389,3.332 -13.513,6.103 -3.703,2.489 -6.018,5.497 -7.237,9.81 -1.364,4.816 -2.264,9.829 -2.767,14.823 l -0.099,1.096 0.67,0.609 c 1.692,1.45 3.764,2.457 5.805,3.428 3.461,1.649 6.949,3.251 10.502,4.697 7.775,3.165 15.826,5.3 24.254,5.51 8.247,0.207 16.486,-1.153 24.395,-3.426 5.051,-1.45 10.879,-3.148 15.821,-5.86 l 1.108,-0.63 0.199,-1.626 c 0.45,-4.333 0.322,-8.745 -0.191,-13.039 M 260.44,415.021 c -0.191,2.219 -0.51,4.37 -1.22,6.49 -0.679,2.03 -1.737,3.832 -2.644,5.747 -1.268,-1.685 -2.888,-3.269 -4.492,-4.599 -0.923,-0.766 -1.954,-1.482 -3.09,-1.866 3.235,-1.083 5.949,-3.692 7.344,-6.767 1.361,0.351 2.73,0.673 4.102,0.995 m -17.238,-4.05 c -5.247,-0.195 -10.48,-0.54 -15.698,-1.148 -4.982,-0.581 -10.723,-0.866 -15.413,-2.792 0.009,-6.102 -0.535,-12.188 -0.377,-18.297 0.167,-6.482 0.939,-12.878 2.45,-19.188 2.739,-11.425 5.692,-23.368 14.469,-31.779 0.107,-0.104 0.083,-0.253 0.002,-0.353 5.632,-3.837 12.613,-5.501 19.341,-5.855 6.857,-0.362 14.11,0.679 19.968,4.471 14.081,9.113 12.398,29.117 12.773,43.679 0.118,4.533 0.24,9.066 0.351,13.598 0.052,2.128 0.063,4.261 -0.074,6.375 -0.232,1.797 -0.45,3.595 -0.793,5.377 -0.068,0.358 -0.158,0.713 -0.239,1.067 -0.063,0.227 -0.115,0.456 -0.184,0.682 -0.022,0.069 -0.021,0.132 -0.011,0.188 -0.026,0.107 -0.057,0.216 -0.084,0.322 -1.637,0.414 -3.288,0.783 -4.961,1.099 -3.414,0.642 -6.864,1.092 -10.33,1.341 -3.249,0.237 -6.557,0.034 -9.789,0.347 -0.001,-0.594 -0.032,-1.186 -0.161,-1.755 3.909,-0.856 7.73,-2.119 10.398,-5.284 2.791,-3.313 4.161,-7.754 5.314,-11.853 2.796,-9.936 3.655,-20.685 2.888,-30.97 0.281,-0.108 0.561,-0.228 0.833,-0.373 0.436,-0.229 0.134,-0.898 -0.329,-0.781 -3.761,0.967 -7.655,0.832 -11.512,1.113 -3.823,0.281 -7.814,-0.732 -11.435,-1.905 C 243.514,356 237.24,351.627 233.632,345 c -0.124,-0.23 -0.538,-0.071 -0.434,0.183 0.172,0.412 0.358,0.815 0.554,1.211 -5.735,1.992 -11.342,9.291 -11.916,15.246 -0.023,0.243 0.36,0.343 0.467,0.125 0.015,-0.031 0.03,-0.063 0.045,-0.096 -0.611,5.13 -0.63,10.409 -0.462,15.522 0.207,6.324 1.037,12.696 3.123,18.695 1.766,5.084 4.572,8.79 9.577,11.003 2.763,1.221 5.717,1.976 8.705,2.201 -0.109,0.611 -0.107,1.249 -0.089,1.881 m -0.148,3.353 c 0.082,-0.026 0.164,-0.053 0.245,-0.078 l 0.858,-0.293 -0.004,-0.773 c 0,-0.403 0.002,-0.804 -0.005,-1.204 -0.017,-0.936 0.045,-1.92 -0.143,-2.841 2.328,0.106 4.667,-0.1 6.948,-0.705 0.268,-0.071 0.225,-0.529 -0.066,-0.497 -5.667,0.617 -11.32,0.152 -16.519,-2.326 -5.554,-2.647 -7.811,-7.651 -9.335,-13.313 -1.48,-5.497 -2.038,-11.199 -2.15,-16.877 -0.104,-5.151 0.4,-10.314 0.276,-15.461 1.135,-2.437 2.219,-4.796 3.995,-6.947 2.009,-2.434 4.522,-4.037 6.935,-5.98 3.207,5.979 9.041,9.927 15.422,12.136 2.921,1.014 6.161,1.941 9.344,2.197 -0.977,0.744 -1.776,1.834 -2.456,2.714 -0.184,0.236 0.046,0.634 0.348,0.45 1.131,-0.69 1.994,-1.803 3.192,-2.374 1.738,-0.828 3.028,0.977 4.033,2.142 0.168,0.194 0.415,-0.023 0.386,-0.226 -0.141,-0.947 -0.629,-2.031 -1.379,-2.754 1.783,-0.119 3.562,-0.241 5.357,-0.305 1.371,-0.048 2.736,-0.15 4.032,-0.535 -0.096,9.398 -0.325,18.678 -2.552,27.872 -1.005,4.147 -2.207,8.599 -4.488,12.249 -2.649,4.24 -6.925,5.833 -11.516,7.162 -0.389,0.113 -0.298,0.623 0.027,0.691 -0.241,1.012 -0.193,2.102 -0.217,3.135 -0.005,0.291 -0.017,0.588 -0.025,0.883 l -0.006,0.818 0.944,0.271 c 0.325,0.093 0.656,0.17 0.983,0.258 -1.315,2.138 -3.015,3.939 -5.291,5.101 -1.59,0.813 -3.274,1.462 -4.965,0.745 -2.304,-0.975 -2.259,-3.157 -2.208,-5.335 m -0.877,0.281 c -0.742,2.971 0.691,6.281 3.724,6.646 -3.351,2.138 -6.461,5.448 -8.982,8.507 -0.333,-4.717 0.197,-9.333 1.193,-13.961 1.36,-0.376 2.718,-0.766 4.065,-1.192 m -28.285,37.91 c -2.622,-1.217 -5.124,-2.44 -7.324,-4.208 0.708,-4.574 1.486,-9.14 2.605,-13.632 0.647,-2.593 1.441,-5.241 3.188,-7.327 0.885,-1.059 1.957,-1.954 3.091,-2.765 0.518,4.998 1.732,9.985 2.433,14.964 0.722,5.135 0.818,10.506 1.823,15.594 -1.953,-0.848 -3.888,-1.731 -5.816,-2.626 m 33.941,9.42 c -7.882,-0.096 -15.479,-1.819 -22.822,-4.619 -1.517,-0.578 -3.018,-1.199 -4.509,-1.838 0.262,-5.032 -0.766,-10.34 -1.462,-15.304 -0.738,-5.271 -1.352,-10.922 -2.984,-16.01 0.673,-0.452 1.356,-0.888 2.042,-1.291 5.962,-3.511 12.54,-5.046 19.072,-6.819 -1.262,4.871 -1.485,9.928 -1.122,14.934 0.03,0.41 0.508,0.645 0.823,0.341 1.763,-1.702 3.442,-3.49 5.21,-5.188 1.699,-1.632 3.624,-3.117 5.145,-4.92 0.019,-0.002 0.037,-0.002 0.056,-0.003 0.141,-0.023 0.279,-0.055 0.419,-0.081 1.663,0.848 3.13,1.731 4.528,3.054 1.395,1.321 2.616,2.833 4.156,3.992 0.227,0.172 0.523,-0.04 0.564,-0.281 3.017,-3.202 4.388,-8.306 4.508,-12.645 2.11,0.494 4.216,0.996 6.284,1.597 2.558,0.742 5.093,1.549 7.602,2.441 1.351,0.481 2.953,0.931 4.424,1.579 -2.847,5.452 -4.256,11.996 -5.323,17.99 -1.101,6.18 -1.954,12.889 -1.31,19.159 -8.193,2.613 -16.777,4.017 -25.301,3.912 m 39.504,-9.834 c -4.248,2.217 -8.707,4.104 -13.291,5.619 0.27,-6.415 0.303,-12.654 1.465,-19.02 1.104,-6.039 3.262,-11.642 4.914,-17.506 1.168,0.589 2.214,1.325 2.911,2.363 1.431,2.132 2.018,5.159 2.623,7.621 0.691,2.819 1.186,5.689 1.469,8.579 0.403,4.142 0.272,8.239 -0.091,12.344"
   id="path682" />
                </g>
            </g>
        </g>
    </g></g>
</g>
</svg>
